<svg width="150" height="150" viewBox="0 0 150 150" fill="none" xmlns="http://www.w3.org/2000/svg">
<g clip-path="url(#clip0_174_4079)">
<path d="M74.5 0C33.0499 0 -0.5 33.544 -0.5 75V91.1792C-0.5 98.2799 4.48047 104.22 11.2188 105.581V111.795C11.2188 116.641 15.2093 120.703 20.0556 120.703H23.5287C24.7313 123.926 27.9938 126.562 31.8221 126.562H40.6949C45.5412 126.562 49.5977 122.524 49.5977 117.678V73.5053C49.5977 68.659 45.5412 64.7461 40.6949 64.7461H31.8221C27.9938 64.7461 24.7316 67.0898 23.529 70.6055H20.0556C19.0791 70.6055 18.1404 70.7648 17.2621 71.0602C19.2766 41.3054 44.0975 17.5781 74.529 17.5781C104.657 17.5781 129.433 41.1993 131.704 71.0247C130.836 70.7367 129.909 70.6055 128.945 70.6055H125.471C124.269 67.0898 121.006 64.7461 117.178 64.7461H108.305C103.459 64.7461 99.4023 68.659 99.4023 73.5053V117.678C99.4023 122.524 103.459 126.562 108.305 126.562H117.178C121.006 126.562 124.269 123.926 125.471 120.703H128.944C133.791 120.703 137.781 116.641 137.781 111.795V105.581C139.832 105.138 141.924 104.209 143.641 102.913V129.42C143.641 132.671 140.996 135.352 137.745 135.352H93.2392C91.934 130.371 87.3244 126.562 81.8541 126.562H73.0293C66.548 126.562 61.2748 131.8 61.2748 138.281C61.2748 144.763 66.548 150 73.0293 150H81.8541C87.3247 150 91.934 146.191 93.2392 141.211H137.745C144.227 141.211 149.5 135.902 149.5 129.42C149.5 123.47 149.5 82.3014 149.5 75C149.5 33.5499 115.956 0 74.5 0ZM81.8541 144.141H73.0293C69.7785 144.141 67.1342 141.532 67.1342 138.281C67.1342 135.03 69.7785 132.422 73.0293 132.422H81.8541C85.1049 132.422 87.7495 135.031 87.7495 138.281C87.7495 141.532 85.1046 144.141 81.8541 144.141ZM5.35938 91.1792V91.1133H11.2188V99.5168C7.70312 98.3057 5.35938 95.0253 5.35938 91.1792ZM28.7969 73.5053C28.7969 71.8898 30.2066 70.6055 31.8221 70.6055H40.6949C42.3104 70.6055 43.7383 71.8901 43.7383 73.5053V117.678C43.7383 119.293 42.3104 120.703 40.6949 120.703H31.8221C30.2066 120.703 28.7969 119.293 28.7969 117.678C28.7969 111.113 28.7969 80.1064 28.7969 73.529V73.5053ZM20.0556 76.4648H22.9375V114.844H20.0556C18.4401 114.844 17.0781 113.41 17.0781 111.795C17.0781 108.776 17.0781 83.4639 17.0781 79.3887C17.0781 77.7732 18.4401 76.4648 20.0556 76.4648ZM74.4994 11.7188C39.6209 11.7188 11.2188 40.0895 11.2188 74.9997V85.2539H5.35938V75C5.35938 36.8757 36.3757 5.85938 74.5 5.85938C112.624 5.85938 143.641 36.8757 143.641 75V85.2958V85.2539H137.781C137.781 81.8552 137.781 78.8584 137.781 75.5215C137.781 40.8788 109.469 11.7188 74.4994 11.7188ZM120.203 117.678C120.203 119.293 118.793 120.703 117.178 120.703H108.305C106.69 120.703 105.262 119.293 105.262 117.678V73.5053C105.262 71.8898 106.69 70.6055 108.305 70.6055H117.178C118.793 70.6055 120.203 71.8901 120.203 73.5053V117.678ZM131.922 111.795C131.922 113.41 130.56 114.844 128.944 114.844H126.062V76.4648H128.944C130.56 76.4648 131.922 77.7732 131.922 79.3884V111.795ZM137.781 99.5168V91.1133H143.641V91.1792C143.641 95.0253 141.297 98.3057 137.781 99.5168Z" fill="#E7B447"/>
</g>
<defs>
<clipPath id="clip0_174_4079">
<rect width="150" height="150" fill="white"/>
</clipPath>
</defs>
</svg>
