<svg width="48" height="48" viewBox="0 0 48 48" fill="none" xmlns="http://www.w3.org/2000/svg">
<path d="M33.2616 21.7458C33.1486 21.6298 32.7219 21.1338 32.3244 20.7258C29.9942 18.1598 23.9152 13.9598 20.7336 12.6778C20.2504 12.4718 19.0287 12.0358 18.376 12.0078C17.7506 12.0078 17.1544 12.1518 16.5855 12.4438C15.8763 12.8518 15.3074 13.4938 14.9956 14.2518C14.7949 14.7778 14.4832 16.3518 14.4832 16.3798C14.1715 18.1018 14 20.8998 14 23.9918C14 26.9378 14.1715 29.6218 14.4267 31.3698C14.4559 31.3978 14.7677 33.3538 15.1086 34.0238C15.734 35.2478 16.9557 36.0078 18.263 36.0078H18.376C19.2275 35.9778 21.018 35.2178 21.018 35.1898C24.0283 33.9058 29.9669 29.9118 32.3536 27.2578C32.3536 27.2578 33.0258 26.5758 33.3181 26.1498C33.774 25.5378 34 24.7798 34 24.0218C34 23.1758 33.7448 22.3878 33.2616 21.7458Z" fill="#E7B447"/>
</svg>
