<svg width="49" height="49" viewBox="0 0 49 49" fill="none" xmlns="http://www.w3.org/2000/svg">
<path d="M8.5 25.2504C8.5 26.0098 9.06431 26.6374 9.79646 26.7367L10 26.7504L36.368 26.7492L26.842 36.2362C26.255 36.8208 26.2529 37.7705 26.8375 38.3575C27.3688 38.8912 28.2021 38.9414 28.7902 38.507L28.9588 38.3621L41.0588 26.3141C41.1362 26.2371 41.2034 26.1537 41.2604 26.0656C41.2765 26.0391 41.2929 26.012 41.3085 25.9843C41.3228 25.9606 41.3357 25.936 41.3479 25.9111C41.3648 25.8749 41.3814 25.8375 41.3964 25.7993C41.4086 25.7698 41.4188 25.7412 41.4281 25.7124C41.4391 25.6766 41.4499 25.6384 41.4591 25.5997C41.466 25.5727 41.4714 25.5467 41.4762 25.5205C41.4828 25.4817 41.4885 25.4415 41.4926 25.4008C41.4961 25.3697 41.4982 25.339 41.4993 25.3082C41.4996 25.2895 41.5 25.27 41.5 25.2504L41.4992 25.1923C41.4981 25.1628 41.4961 25.1334 41.4932 25.1041L41.5 25.2504C41.5 25.1557 41.4912 25.0631 41.4745 24.9733C41.4706 24.9519 41.4659 24.9298 41.4608 24.9079C41.4502 24.8628 41.4378 24.8193 41.4237 24.7767C41.4167 24.7555 41.4086 24.7328 41.3999 24.7104C41.3824 24.6653 41.3633 24.6222 41.3424 24.5803C41.3327 24.5606 41.3218 24.54 41.3103 24.5196C41.2916 24.4862 41.2723 24.4546 41.2519 24.4237C41.2374 24.4019 41.2215 24.3791 41.2048 24.3568L41.1919 24.3395C41.1514 24.2867 41.1076 24.2366 41.0607 24.1897L41.0589 24.1883L28.9589 12.1383C28.3719 11.5537 27.4221 11.5557 26.8375 12.1427C26.3061 12.6763 26.2594 13.5098 26.6964 14.0961L26.8419 14.264L36.364 23.7492L10 23.7504C9.17157 23.7504 8.5 24.4219 8.5 25.2504Z" fill="#015612"/>
</svg>
