<svg width="452" height="264" viewBox="0 0 452 264" fill="none" xmlns="http://www.w3.org/2000/svg">
<path d="M229.89 263.409C230.825 263.1 234.749 262.24 238.673 261.494C286.408 252.727 329.929 231.877 356.676 204.946C373.131 188.367 383.178 170.272 387.741 149.137C388.869 144.081 389.024 141.65 388.935 131.667C388.865 117.28 387.878 111.896 382.831 98.4896C380.307 91.8624 379.996 89.8904 380.721 85.6342C381.054 83.5442 381.566 81.6429 381.857 81.4133C382.148 81.2216 382.38 80.8406 382.377 80.5369C382.375 80.2712 384.29 77.9435 386.614 75.3854C388.996 72.827 392.016 69.3914 393.351 67.7886C394.686 66.1478 395.906 64.8115 395.965 64.8111C396.082 64.8104 395.799 65.951 395.343 67.3964C394.032 71.6943 393.847 83.9189 395.016 90.0233C397.417 102.687 401.728 112.34 416.209 137.569C426.579 155.686 431.065 165.414 433.976 176.025C435.312 181.103 435.376 181.672 434.566 182.93C433.93 183.997 433.874 184.339 434.463 184.601C435.405 184.975 435.64 184.973 436.517 184.588C437.744 184.087 440.173 180.161 440.161 178.757C440.154 177.998 440.959 176.133 441.883 174.57C446.106 167.825 449.714 157.97 451.044 149.23C452.102 142.846 451.332 128.919 449.696 123.122C446.486 111.83 441.538 103.016 429.129 86.5053C420.818 75.4731 416.769 68.8934 413.83 61.6614C412.092 57.5347 412.029 57.0416 412.338 52.1806C412.895 42.3451 415.023 30.9054 416.699 28.1616C418.666 25.0364 420.621 20.5826 420.263 19.9016C420.084 19.5231 420.705 16.8239 421.677 13.9328C423.507 8.6446 424.067 5.71806 424.153 2.18713C424.199 0.706364 423.96 0.290297 423.197 0.181236C422.492 0.109763 422.026 0.454358 421.623 1.33001C421.336 2.01512 421.045 2.28269 421.042 1.94105C420.974 0.954492 419.274 1.11707 418.638 2.184C418.349 2.67931 417.206 6.06507 416.065 9.67858C411.955 22.4974 401.537 44.9603 398.739 46.9899C397.398 47.9474 392.602 49.572 389.731 50.0077C387.681 50.3243 385.216 50.264 379.169 49.7328C341.358 46.4791 318.645 45.4837 301.991 46.386C275.955 47.7652 257.455 52.0198 236.301 61.4918C223.329 67.3058 216.21 71.6024 183.899 92.9128C151.587 114.223 145.634 117.715 129.973 124.609C121.382 128.384 109.743 132.329 101.546 134.241C98.6189 134.905 92.8203 135.966 88.6603 136.562C82.3324 137.475 80.9858 137.787 80.8152 138.396C80.7013 138.776 80.3534 139.234 80.0611 139.35C79.1845 139.735 80.0709 140.45 81.3615 140.442C82.0068 140.438 84.8264 140.838 87.647 141.352C111.74 145.717 142.403 143.511 165.976 135.656C177.148 131.979 184.453 128.745 201.74 119.942C215.347 112.985 221.014 110.292 228.614 107.283C246.385 100.186 263.067 95.9053 303.01 88.2127C340.61 80.9525 352.904 78.0657 370.101 72.3389C376.886 70.0943 384.72 67.008 388.224 65.1637C389.45 64.5486 390.444 64.0868 390.445 64.2007C390.45 64.77 386.971 69.3853 384.067 72.6683C381.047 76.1039 378.666 78.8901 375.416 82.8206C374.777 83.5838 373.496 84.6169 372.62 85.1159C369.818 86.69 363.702 91.6256 360.504 94.7966C358.295 97.0502 354.448 99.8457 346.164 105.175C328.664 116.408 316.64 123.279 300.81 130.971C295.728 133.432 290.705 135.894 289.595 136.432C284.28 139.085 270.776 144.561 267.264 145.456C265.157 146.039 262.228 146.513 260.82 146.522C256.949 146.546 247.921 147.362 247.22 147.708C246.87 147.9 244.35 148.182 241.594 148.351C208.347 150.27 179.764 155.575 148.76 165.64C134.195 170.402 125.951 173.566 110.173 180.499C98.8354 185.468 82.2453 193.468 75.0641 197.386C74.0716 197.923 71.6775 199.191 69.8091 200.19C67.8817 201.151 65.7216 202.342 64.9044 202.802C62.1614 204.414 54.2766 208.374 49.8361 210.414C47.3234 211.531 44.6367 212.876 43.7611 213.375C41.3684 214.795 28.973 219.504 23.7064 221.018C17.6793 222.764 10.0075 224.293 5.55173 224.625C0.509684 224.999 -0.0169355 225.154 -0.00779138 226.179C0.00338477 227.431 2.41742 228.403 4.64428 228.123C5.52322 228.004 6.57985 228.073 6.93386 228.299C7.34687 228.562 8.81213 228.401 11.8562 227.66C17.5351 226.334 24.1547 225.229 31.6569 224.422C36.4633 223.936 44.9675 223.655 70.367 223.267C88.2578 222.964 103.567 222.64 104.387 222.521C105.208 222.402 109.251 221.92 113.472 221.476C138.087 218.701 163.67 212.58 196.602 201.591C224.854 192.15 236.775 186.912 245.982 179.945C250.644 176.385 254.015 172.872 261.093 163.982C268.172 155.13 274.454 149.093 276.625 149.079C277.094 149.076 277.327 148.923 277.15 148.734C276.676 148.244 281.928 145.136 286.838 143.055C289.175 142.015 291.746 140.822 292.563 140.361C293.381 139.939 297.41 137.863 301.616 135.825C316.16 128.596 333.495 118.579 344.69 110.916C349.413 107.659 349.706 107.544 348.838 108.954C348.318 109.792 346.641 112.574 345.08 115.089C343.577 117.642 340.284 123.319 337.917 127.662C324.927 151.166 319.763 157.652 301.944 172.569C281.446 189.705 277.443 194.779 265.979 218.425C259.297 232.209 254.436 239.794 248.159 246.401C243.103 251.748 234.766 257.608 228.162 260.497C224.831 261.961 224.31 262.685 226.018 263.51C227.373 264.147 227.901 264.143 229.89 263.409ZM238.464 257.889C238.462 257.661 239.279 257.162 240.215 256.815C251.968 252.451 263.412 246.305 272.562 239.452C290.103 226.321 300.788 213.954 325.461 178.191C352.162 139.529 364.811 117.204 373.979 92.6995C376.843 84.8994 377.196 85.049 375.746 93.5235C369.998 126.548 358.003 156.385 340.333 181.513C320.868 209.158 291.867 233.294 258.339 249.754C254.659 251.561 251.505 253.175 251.448 253.327C251.332 253.48 250.981 253.634 250.747 253.636C250.453 253.637 247.764 254.679 244.783 255.951C239.172 258.34 238.47 258.534 238.464 257.889ZM249.011 256.38C278.519 243.021 299.107 229.453 320.283 209.351C332.034 198.155 345.837 180.302 354.849 164.529C363.398 149.556 370.798 130.757 375.557 111.822C376.521 108.096 377.374 105.015 377.491 104.939C377.607 104.862 378.385 106.528 379.284 108.686C389 132.464 380.907 159.088 355.174 187.835C344.021 200.281 325.753 217.478 312.645 227.811C300.528 237.416 284.883 246.207 271.666 250.846C265.876 252.857 255.868 255.615 251.065 256.481C247.317 257.15 247.258 257.15 249.011 256.38ZM248.6 249.777C256.221 242.516 261.547 234.587 268.864 219.546C278.831 199.098 282.247 194.028 292.253 184.512C294.638 182.219 297.839 179.39 299.354 178.204C303.373 174.989 313.329 166.423 316.063 163.825C324.556 155.647 330.813 146.801 339.412 130.841C344.087 122.156 349.228 113.203 349.523 113.391C349.877 113.616 348.796 123.949 348.115 126.496C346.361 133.758 342.495 141.071 335.71 149.921C330.201 157.168 324.969 162.554 304.957 181.547C298.616 187.585 297.337 188.845 292.049 194.535C285.134 201.981 280.501 208.692 273.632 221.338C266.36 234.822 263.174 239.36 257.064 244.978C254.038 247.769 246.167 253.285 245.17 253.291C244.994 253.292 246.564 251.688 248.6 249.777ZM252.241 250.134C255.681 247.72 256.612 246.955 259.405 244.28C264.699 239.274 268.579 233.631 275.507 221.022C284.396 204.757 289.851 198.041 308.004 181.148C335.641 155.35 344.29 145.008 349.276 131.728C350.881 127.504 351.557 124.311 352.199 117.436C353.106 107.332 354.495 105.198 365.392 96.8915C371.044 92.5662 370.928 92.6429 370.472 94.2022C369.73 96.5604 365.018 107.561 362.082 113.805C353.557 131.587 337.828 157.196 315.588 189.451C295.432 218.657 284.74 230.189 266.193 242.377C258.961 247.168 251.957 251.236 250.785 251.32C250.609 251.359 251.308 250.785 252.241 250.134ZM294.756 241.514C305.03 235.679 317.853 226.297 328.562 216.702C337.292 208.826 349.973 196.713 352.644 193.583C352.992 193.163 355.316 190.605 357.756 187.857C369.141 175.182 376.953 163.061 381.483 151.264C382.973 147.307 385.016 139.588 385.4 136.624C385.564 135.257 385.624 135.408 385.7 137.382C385.771 138.748 385.45 142.242 385.007 145.168C379.405 181.38 352.294 213.553 308.669 235.846C302.712 238.882 291.727 243.887 290.964 243.891C290.729 243.893 292.421 242.819 294.756 241.514ZM55.6803 221.044L47.7603 221.056L51.5671 220.311C53.6753 219.88 59.4728 218.704 64.4508 217.724C75.4027 215.605 109.128 208.103 130.907 203.031C172.825 193.2 201.378 184.63 225.577 174.57C240.423 168.402 251.754 162.75 261.906 156.423C267.273 153.048 268.209 152.739 265.591 155.147C264.368 156.217 260.768 160.34 257.517 164.27C250.553 172.704 247.18 176.066 241.7 179.934C233.654 185.565 222.725 190.304 199.622 198.156C170.786 207.942 150.125 213.425 128.979 217.013C110.233 220.206 96.5732 221.241 75.3345 221.11C68.8808 221.075 60.0218 221.055 55.6803 221.044ZM37.5467 220.437C38.9499 219.897 88.4642 206.64 98.0644 204.263C100.933 203.524 103.859 202.746 104.503 202.552C105.146 202.358 110.414 200.959 116.208 199.442C122.003 197.924 127.27 196.525 127.914 196.331C128.558 196.137 131.308 195.398 134.059 194.622C175.085 183.43 188.543 179.435 213.052 171.346C230.483 165.58 242.121 161.407 254.573 156.507C260.186 154.308 265.038 152.379 265.389 152.263C265.681 152.147 265.216 152.644 264.226 153.371C261.836 155.17 254.773 159.201 247.24 163.12C243.736 164.927 240.583 166.541 240.174 166.733C237.664 168.154 222.409 174.552 215.158 177.255C187.56 187.641 164.56 193.936 107.472 206.633C78.9578 212.963 61.6244 216.565 46.2775 219.243C37.1985 220.857 36.0852 221.016 37.5467 220.437ZM57.3613 212.188C57.3579 211.809 69.0545 207.673 73.1518 206.622C99.549 199.699 135.529 188.425 162.955 178.458C168.101 176.565 173.773 174.517 175.528 173.899C177.282 173.242 180.849 171.967 183.422 171.04C191.609 168.065 203.135 164.5 209.75 162.864C216.013 161.306 219.293 160.64 236.1 157.307C246.759 155.228 254.311 153.358 260.745 151.267C272.562 147.434 264.672 150.787 242.393 159.013C231.517 163.03 205.897 171.581 195.189 174.762C191.971 175.731 187.875 176.934 186.12 177.476C179.332 179.493 173.247 181.24 165.054 183.531C160.372 184.851 155.398 186.249 153.935 186.676C145.45 189.083 119.053 196.121 89.2608 203.863C85.0464 204.953 76.2671 207.286 69.6537 209.074C63.0399 210.824 57.597 212.301 57.4797 212.302C57.4214 212.34 57.362 212.264 57.3613 212.188ZM62.0138 207.604C62.0132 207.528 64.5818 206.107 67.6765 204.455C70.8298 202.803 75.5009 200.306 78.0695 198.885C80.6386 197.502 86.9458 194.274 92.0859 191.736C140.625 167.78 182.579 155.443 230.413 151.079C241.609 150.059 241.611 150.287 230.421 151.99C214.837 154.404 199.029 157.996 182.645 162.807C173.458 165.522 157.606 170.709 152.753 172.6C151.058 173.256 149.537 173.797 149.42 173.798C149.303 173.799 144.508 175.613 138.778 177.813C128.839 181.596 123.577 183.717 110.484 189.114C100.138 193.431 66.5228 206.664 64.709 207.207C62.8365 207.75 62.0162 207.869 62.0138 207.604ZM88.4029 199.769C144.221 176.298 171.472 166.484 200.916 159.161C217.951 154.916 237.165 151.682 252.759 150.407C263.898 149.501 264.191 149.461 263.549 149.883C261.975 150.956 247.749 154.424 235.509 156.741C219.578 159.727 217.235 160.197 212.083 161.331C209.155 161.994 204.648 163.086 201.955 163.824C197.215 165.107 179.198 171.028 173.468 173.19C156.979 179.368 131.536 187.994 113.808 193.383C102.165 196.949 83.6731 202.266 82.8522 202.309C82.5588 202.311 85.0712 201.157 88.4029 199.769ZM435.651 159.919C433.447 149.645 429.485 139.497 419.863 119.704C411.257 101.992 407.174 91.5409 404.913 81.4575C403.571 75.62 403.272 61.9179 404.405 57.3554C405.308 53.4018 406.226 51.0803 406.696 51.0774C407.165 51.0744 408.271 56.6857 408.966 62.2616C410.298 73.4517 414.037 84.8544 422.78 104.691C435.053 132.363 438.551 142.97 440.084 156.968C440.917 164.934 440.288 173.29 438.553 176.148L437.513 177.863L437.043 171.222C436.834 167.542 436.143 162.459 435.651 159.919ZM432.642 164.607C429.7 157.071 427.311 152.341 418.847 137.362C405.971 114.477 402.862 107.967 399.595 96.8653C396.269 85.7258 396.229 74.6414 399.424 64.5995C400.167 62.3551 400.168 62.431 400.64 69.3369C401.596 84.4394 405.272 95.387 417.934 120.475C425.817 136.103 428.51 142.008 431.28 150.001C434.168 158.106 436.004 166.598 435.928 171.192L435.888 173.318L435.286 171.613C434.984 170.666 433.783 167.523 432.642 164.607ZM440.227 146.717C438.15 137.506 434.658 127.468 428.124 111.87C419.432 91.1598 417.39 85.7822 414.961 76.6489C414.112 73.5415 413.264 70.472 413.082 69.8278C412.597 68.0846 413.604 69.1412 415.747 72.658C416.878 74.4351 420.027 78.9326 422.759 82.6735C425.491 86.4144 429.648 92.0443 431.905 95.1429C440.635 107.045 444.935 115.56 447.373 125.794C450.604 139.401 449.207 153.759 443.396 166.627L442.131 169.482L441.698 160.374C441.419 155.365 440.777 149.219 440.227 146.717ZM130.054 140.287C153.02 136.725 172.023 129.544 204.37 112.258C229.711 98.7353 242.39 92.9231 257.189 88.0465C273.042 82.8596 283.818 80.7417 320.734 75.7635C332.805 74.1308 346.514 72.0703 351.2 71.2055C366.663 68.3367 379.655 64.7243 389.649 60.4475C392.279 59.3301 394.5 58.4429 394.501 58.5568C394.509 59.4678 384.698 64.5027 377.039 67.474C360.669 73.841 343.577 78.1626 305.274 85.5411C251.1 96.0188 235.068 100.751 208.259 114.131C185.596 125.397 183.552 126.397 178.351 128.707C167.599 133.444 155.955 136.972 143.948 139.098C137.094 140.318 129.886 141.199 126.542 141.22C124.431 141.271 125.074 141.077 130.054 140.287ZM96.6152 140.46C95.3215 140.126 95.9068 139.971 101.004 139.217C119.811 136.403 136.084 132.277 149.003 127.108C151.225 126.221 153.856 125.218 154.791 124.832C157.305 123.905 169.572 117.906 174.184 115.333C178.504 112.952 181.714 111.034 191.281 104.976C212.283 91.7846 224.49 85.5957 238.354 81.1806C254.383 76.0306 273.364 72.9118 305.723 70.1261C341.834 66.9751 352.734 65.6156 369.072 62.1718C376.508 60.6064 383.473 58.6644 390.315 56.2676C393.006 55.3395 395.521 54.5644 395.932 54.5618C396.343 54.5593 396.81 54.3285 396.984 54.0997C397.099 53.8332 397.391 53.7175 397.627 53.8299C398.925 54.6189 388.351 59.6965 378.992 62.7545C363.783 67.7476 351.309 70.2558 322.245 74.1975C282.868 79.5329 273.263 81.3778 256.006 86.9531C243.254 91.0955 223.796 99.9494 206.633 109.472C170.614 129.439 146.813 138.055 120.378 140.727C117.154 141.051 98.0851 140.83 96.6152 140.46ZM116.55 132.514C126.435 129.225 134.442 125.796 145.889 119.953C159.788 112.881 169.244 107.431 193.283 92.6638C197.892 89.7876 208.748 83.5314 215.462 79.7688C224.393 74.7774 240.344 67.4641 249.35 64.1805C274.203 55.1407 295.882 52.0808 329.622 52.7409C347.225 53.0852 371.219 52.9337 378.313 52.3954C381.596 52.1469 385.35 52.1232 386.818 52.2658L389.461 52.5528L387.41 52.8315C377.096 54.1493 361.147 55.0472 330.53 55.9239C325.545 56.0692 319.973 56.2942 318.214 56.3812C316.455 56.4683 312.467 56.6833 309.418 56.8164C267.137 58.8296 240.216 66.2881 207.296 85.1349C202.276 88.0137 199.359 89.8163 187.516 97.2555C183.374 99.901 179.115 102.585 178.124 103.199C177.073 103.851 174.564 105.385 172.523 106.689C158.346 115.585 139.247 125.196 125.565 130.293C121.297 131.915 110.062 135.288 108.948 135.333C108.479 135.336 111.929 134.062 116.55 132.514ZM135.816 128.596C135.816 128.52 137.744 127.635 140.023 126.596C150.424 121.975 159.822 116.639 180.182 103.755C205.909 87.4972 213.262 83.1232 223.426 78.1621C255.144 62.6255 277.81 58.3446 337.87 56.6367C360.393 56.001 374.934 55.112 386.831 53.6703C393.277 52.9083 393.453 52.9072 390.471 54.0269C383.104 56.8066 370.342 59.9241 358.04 61.9758C346.969 63.8298 336.771 64.9951 315.667 66.8366C280.67 69.8667 269.887 71.1496 255.598 74.0869C241.075 77.0636 227.68 81.5138 216.408 87.1652C207.355 91.7018 202.219 94.6952 182.324 107.082C167.796 116.095 156.055 121.863 142.838 126.54C137.165 128.512 135.819 128.938 135.816 128.596ZM378.677 99.8445C378.43 98.4415 378.484 97.8718 378.897 98.1349C379.487 98.5108 383.278 109.192 383.171 110.369C383.122 111.47 379.108 102.044 378.677 99.8445ZM187.426 93.7637C202.469 83.3053 218.862 72.9523 227.797 68.3405C235.798 64.1902 247.721 59.142 255.735 56.548C282.586 47.9131 306.978 46.3545 357.758 50.0578C364.216 50.5484 370.556 51.0399 371.848 51.1835C374.08 51.4352 373.963 51.4739 370.093 51.7261C367.806 51.8544 359.535 51.9066 351.614 51.8428C326.796 51.6199 300.633 51.9369 295.592 52.4623C279.709 54.1569 267.646 56.7385 253.14 61.6132C237.055 67.0673 220.931 74.7234 200.27 86.7357C197.06 88.616 192.509 91.34 190.116 92.7597C185.331 95.6749 183.986 96.1769 187.426 93.7637Z" fill="#085913"/>
</svg>
