<svg width="32" height="32" viewBox="0 0 32 32" fill="none" xmlns="http://www.w3.org/2000/svg">
<path fill-rule="evenodd" clip-rule="evenodd" d="M5.14556 6.74775C5.14822 6.74775 5.08156 6.81709 4.99756 6.89975C4.67489 7.21309 4.00689 7.86509 4.00016 9.22909C3.98956 11.1371 5.24422 14.6798 11.2856 20.7198C17.2989 26.7304 20.8362 27.9998 22.7482 27.9998H22.7762C24.1402 27.9931 24.7909 27.3238 25.1056 27.0024C25.2016 26.9038 25.2789 26.8318 25.3336 26.7864C26.6616 25.4504 27.3416 24.4558 27.3349 23.8184C27.3256 23.1678 26.5162 22.3984 25.3976 21.3344C25.0416 20.9958 24.6549 20.6278 24.2469 20.2198C23.1896 19.1651 22.6656 19.3451 21.5136 19.7504C19.9202 20.3091 17.7336 21.0691 14.3362 17.6704C10.9336 14.2704 11.6949 12.0864 12.2522 10.4931C12.6549 9.34109 12.8389 8.81575 11.7802 7.75709C11.3656 7.34375 10.9936 6.95175 10.6509 6.59175C9.59356 5.47975 8.83089 4.67575 8.18422 4.66642H8.17356C7.53489 4.66642 6.54289 5.34909 5.13889 6.75309C5.14289 6.74909 5.14422 6.74775 5.14556 6.74775ZM22.7496 29.9998C19.4269 29.9998 15.0949 27.3544 9.87222 22.1344C4.62956 16.8931 1.98022 12.5478 2.00011 9.21842C2.01222 7.01842 3.16556 5.89175 3.59889 5.46909C3.62156 5.44109 3.69889 5.36509 3.72556 5.33842C5.63756 3.42509 6.92689 2.65175 8.20956 2.66621C9.69889 2.68642 10.7589 3.80109 12.1002 5.21309C12.4322 5.56242 12.7922 5.94242 13.1936 6.34242C15.1402 8.28909 14.5856 9.87709 14.1402 11.1518C13.6549 12.5424 13.2349 13.7424 15.7496 16.2571C18.2669 18.7718 19.4669 18.3518 20.8522 17.8624C22.1282 17.4171 23.7122 16.8598 25.6616 18.8064C26.0562 19.2011 26.4309 19.5571 26.7762 19.8864C28.1949 21.2344 29.3149 22.2998 29.3338 23.7931C29.3496 25.0664 28.5762 26.3638 26.6669 28.2744L25.8216 27.7011L26.5362 28.3998C26.1136 28.8331 24.9882 29.9878 22.7869 29.9998H22.7496Z" fill="white"/>
</svg>
