<svg width="24" height="24" viewBox="0 0 24 24" fill="none" xmlns="http://www.w3.org/2000/svg">
<path fill-rule="evenodd" clip-rule="evenodd" d="M2.4 12C2.40017 10.1525 2.93342 8.34437 3.93575 6.79246C4.93808 5.24055 6.36691 4.01081 8.05081 3.25082C9.7347 2.49082 11.6021 2.23285 13.429 2.50785C15.2559 2.78285 16.9646 3.57915 18.3501 4.80119C19.7357 6.02323 20.7392 7.61911 21.2402 9.39733C21.7412 11.1755 21.7185 13.0606 21.1748 14.8262C20.6311 16.5918 19.5895 18.1631 18.1749 19.3514C16.7604 20.5397 15.033 21.2947 13.2 21.5256V14.4H15.6C15.9183 14.4 16.2235 14.2736 16.4485 14.0485C16.6736 13.8235 16.8 13.5183 16.8 13.2C16.8 12.8817 16.6736 12.5765 16.4485 12.3515C16.2235 12.1264 15.9183 12 15.6 12H13.2V9.6C13.2 9.28174 13.3264 8.97652 13.5515 8.75147C13.7765 8.52643 14.0817 8.4 14.4 8.4H15C15.3183 8.4 15.6235 8.27357 15.8485 8.04853C16.0736 7.82348 16.2 7.51826 16.2 7.2C16.2 6.88174 16.0736 6.57652 15.8485 6.35147C15.6235 6.12643 15.3183 6 15 6H14.4C13.4452 6 12.5295 6.37928 11.8544 7.05442C11.1793 7.72955 10.8 8.64522 10.8 9.6V12H8.4C8.08174 12 7.77652 12.1264 7.55147 12.3515C7.32643 12.5765 7.2 12.8817 7.2 13.2C7.2 13.5183 7.32643 13.8235 7.55147 14.0485C7.77652 14.2736 8.08174 14.4 8.4 14.4H10.8V21.5256C8.47994 21.2333 6.34633 20.1042 4.7997 18.3504C3.25308 16.5965 2.39978 14.3384 2.4 12ZM12 24C18.6276 24 24 18.6276 24 12C24 5.3724 18.6276 0 12 0C5.3724 0 0 5.3724 0 12C0 18.6276 5.3724 24 12 24Z" fill="white"/>
</svg>
