<svg width="1196" height="854" viewBox="0 0 1196 854" fill="none" xmlns="http://www.w3.org/2000/svg">
<path d="M698.667 851.595C701.511 850.594 713.432 847.814 725.357 845.402C870.416 817.058 1002.67 749.649 1083.95 662.578C1133.95 608.976 1164.48 550.474 1178.35 482.142C1181.77 465.796 1182.24 457.938 1181.97 425.661C1181.76 379.147 1178.76 361.74 1163.42 318.396C1155.76 296.969 1154.81 290.594 1157.01 276.833C1158.03 270.076 1159.58 263.929 1160.46 263.187C1161.35 262.567 1162.05 261.335 1162.05 260.353C1162.04 259.494 1167.86 251.968 1174.92 243.698C1182.16 235.426 1191.34 224.319 1195.39 219.137C1199.45 213.832 1203.16 209.512 1203.34 209.51C1203.69 209.508 1202.83 213.196 1201.45 217.869C1197.46 231.764 1196.9 271.288 1200.45 291.023C1207.75 331.967 1220.85 363.175 1264.85 444.741C1296.37 503.318 1310 534.768 1318.85 569.074C1322.9 585.492 1323.1 587.332 1320.64 591.399C1318.7 594.848 1318.54 595.954 1320.33 596.801C1323.19 598.009 1323.9 598.004 1326.56 596.759C1330.3 595.138 1337.68 582.448 1337.64 577.907C1337.62 575.452 1340.06 569.422 1342.87 564.371C1355.7 542.561 1366.67 510.7 1370.71 482.445C1373.92 461.805 1371.59 416.778 1366.62 398.033C1356.86 361.525 1341.82 333.03 1304.12 279.649C1278.86 243.981 1266.56 222.709 1257.63 199.327C1252.34 185.985 1252.15 184.391 1253.09 168.675C1254.78 136.876 1261.25 99.8905 1266.34 91.0196C1272.32 80.9154 1278.26 66.516 1277.17 64.3141C1276.63 63.0905 1278.52 54.3638 1281.47 45.0164C1287.03 27.9194 1288.73 18.4577 1288.99 7.04189C1289.13 2.25444 1288.41 0.909258 1286.09 0.556654C1283.95 0.325577 1282.53 1.43968 1281.31 4.27072C1280.43 6.48575 1279.55 7.35081 1279.54 6.24629C1279.33 3.05665 1274.17 3.58228 1272.24 7.03174C1271.36 8.63315 1267.88 19.5796 1264.42 31.2623C1251.93 72.7067 1220.27 145.331 1211.77 151.893C1207.69 154.988 1193.12 160.241 1184.39 161.65C1178.16 162.673 1170.67 162.478 1152.3 160.761C1037.4 150.241 968.376 147.023 917.77 149.941C838.652 154.399 782.431 168.155 718.151 198.779C678.731 217.576 657.098 231.467 558.909 300.365C460.721 369.264 442.631 380.554 395.04 402.842C368.935 415.046 333.565 427.802 308.658 433.983C299.762 436.129 282.141 439.561 269.499 441.487C250.27 444.439 246.178 445.448 245.66 447.416C245.314 448.645 244.256 450.125 243.368 450.499C240.704 451.745 243.398 454.058 247.32 454.032C249.281 454.019 257.849 455.311 266.42 456.972C339.633 471.085 432.812 463.954 504.445 438.559C538.397 426.671 560.594 416.213 613.126 387.754C654.476 365.262 671.696 356.555 694.79 346.827C748.795 323.881 799.488 310.04 920.865 285.17C1035.12 261.697 1072.48 252.364 1124.74 233.848C1145.36 226.591 1169.17 216.613 1179.81 210.65C1183.54 208.662 1186.56 207.169 1186.56 207.537C1186.58 209.378 1176.01 224.299 1167.18 234.913C1158 246.021 1150.77 255.029 1140.89 267.736C1138.95 270.204 1135.06 273.544 1132.4 275.157C1123.88 280.247 1105.3 296.204 1095.58 306.456C1088.86 313.742 1077.17 322.78 1052 340.009C998.824 376.326 962.285 398.541 914.18 423.41C898.737 431.369 883.471 439.326 880.099 441.067C863.947 449.644 822.913 467.347 812.241 470.242C805.839 472.126 796.938 473.658 792.659 473.687C780.894 473.766 753.461 476.405 751.331 477.524C750.266 478.145 742.608 479.055 734.234 479.603C633.202 485.804 546.346 502.957 452.131 535.5C407.869 550.893 382.818 561.125 334.871 583.539C300.419 599.603 250.005 625.47 228.183 638.135C225.167 639.873 217.892 643.972 212.214 647.202C206.357 650.309 199.793 654.158 197.31 655.647C188.974 660.858 165.014 673.66 151.52 680.256C143.885 683.866 135.72 688.217 133.06 689.83C125.789 694.42 88.1216 709.646 72.1175 714.54C53.8023 720.186 30.4892 725.129 16.9492 726.202C1.62736 727.41 0.027018 727.912 0.0548049 731.225C0.0887668 735.275 7.42456 738.417 14.1915 737.512C16.8624 737.126 20.0734 737.35 21.1491 738.079C22.4042 738.93 26.8568 738.409 36.1072 736.015C53.3641 731.726 73.4797 728.154 96.2774 725.547C110.883 723.976 136.726 723.066 213.91 721.811C268.276 720.832 314.798 719.783 317.291 719.398C319.784 719.013 332.072 717.458 344.896 716.022C419.697 707.051 497.439 687.259 597.512 651.731C683.364 621.208 719.591 604.273 747.57 581.748C761.735 570.239 771.98 558.879 793.489 530.138C814.999 501.52 834.09 482 840.686 481.956C842.112 481.946 842.821 481.451 842.281 480.84C840.841 479.255 856.802 469.206 871.721 462.478C878.824 459.117 886.636 455.26 889.119 453.77C891.604 452.404 903.848 445.694 916.629 439.103C960.825 415.733 1013.5 383.346 1047.52 358.571C1061.88 348.043 1062.76 347.668 1060.13 352.227C1058.55 354.938 1053.45 363.932 1048.71 372.064C1044.14 380.317 1034.13 398.672 1026.94 412.711C987.465 488.702 971.774 509.671 917.625 557.9C855.336 613.303 843.172 629.708 808.336 706.158C788.03 750.723 773.26 775.246 754.185 796.606C738.82 813.892 713.485 832.84 693.418 842.18C683.296 846.912 681.711 849.254 686.903 851.919C691.021 853.978 692.625 853.967 698.667 851.595ZM724.724 833.746C724.718 833.01 727.2 831.398 730.043 830.274C765.759 816.166 800.535 796.295 828.339 774.139C881.644 731.684 914.112 691.701 989.089 576.076C1070.23 451.081 1108.66 378.902 1136.52 299.676C1145.23 274.458 1146.3 274.941 1141.9 302.34C1124.43 409.111 1087.98 505.577 1034.28 586.818C975.132 676.195 887.003 754.231 785.118 807.444C773.936 813.288 764.352 818.507 764.178 818.999C763.826 819.492 762.76 819.99 762.047 819.995C761.156 820.001 752.983 823.37 743.926 827.481C726.876 835.205 724.742 835.833 724.724 833.746ZM756.773 828.867C846.441 785.677 909.006 741.81 973.354 676.821C1009.06 640.621 1051.01 582.901 1078.39 531.906C1104.37 483.498 1126.86 422.718 1141.32 361.5C1144.25 349.453 1146.84 339.494 1147.2 339.246C1147.55 338.999 1149.91 344.383 1152.65 351.36C1182.17 428.237 1157.58 514.314 1079.38 607.256C1045.49 647.494 989.976 703.096 950.144 736.502C913.322 767.555 865.782 795.979 825.617 810.977C808.022 817.477 777.611 826.395 763.016 829.194C751.624 831.357 751.446 831.358 756.773 828.867ZM755.525 807.52C778.682 784.046 794.869 758.409 817.102 709.781C847.39 643.671 857.771 627.278 888.177 596.513C895.424 589.101 905.153 579.953 909.756 576.118C921.97 565.726 952.223 538.031 960.532 529.63C986.339 503.192 1005.35 474.59 1031.48 422.99C1045.69 394.912 1061.31 365.965 1062.21 366.573C1063.28 367.302 1060 400.707 1057.93 408.944C1052.6 432.421 1040.85 456.065 1020.23 484.677C1003.49 508.108 987.596 525.52 926.783 586.926C907.514 606.447 903.626 610.524 887.557 628.918C866.544 652.992 852.464 674.688 831.591 715.575C809.494 759.17 799.812 773.84 781.245 792.006C772.05 801.027 748.132 818.861 745.101 818.882C744.567 818.885 749.337 813.699 755.525 807.52ZM766.587 808.673C777.04 800.871 779.872 798.398 788.357 789.749C804.445 773.563 816.236 755.32 837.288 714.554C864.302 661.967 880.878 640.255 936.042 585.637C1020.03 502.229 1046.31 468.792 1061.46 425.857C1066.34 412.201 1068.39 401.878 1070.34 379.65C1073.1 346.985 1077.32 340.084 1110.43 313.229C1127.61 299.245 1127.25 299.493 1125.87 304.534C1123.62 312.158 1109.29 347.724 1100.37 367.912C1074.47 425.401 1026.67 508.198 959.087 612.483C897.838 706.907 865.348 744.19 808.986 783.597C787.009 799.086 765.726 812.238 762.163 812.508C761.629 812.634 763.753 810.779 766.587 808.673ZM895.784 780.805C927.002 761.94 965.969 731.609 998.512 700.585C1025.04 675.124 1063.58 635.959 1071.69 625.84C1072.75 624.483 1079.81 616.213 1087.23 607.326C1121.82 566.347 1145.56 527.159 1159.33 489.02C1163.86 476.225 1170.06 451.269 1171.23 441.688C1171.73 437.267 1171.91 437.756 1172.14 444.137C1172.36 448.554 1171.38 459.852 1170.04 469.311C1153.01 586.388 1070.63 690.404 938.06 762.479C919.958 772.296 886.578 788.476 884.26 788.491C883.547 788.496 888.688 785.025 895.784 780.805ZM169.28 714.624L145.213 714.663L156.781 712.253C163.187 710.86 180.805 707.06 195.932 703.89C229.212 697.039 331.697 672.786 397.879 656.386C525.26 624.602 612.027 596.896 685.562 564.369C730.677 544.429 765.11 526.156 795.958 505.698C812.269 494.788 815.113 493.787 807.155 501.573C803.441 505.034 792.499 518.363 782.622 531.07C761.457 558.336 751.208 569.205 734.555 581.713C710.105 599.919 676.896 615.238 606.689 640.624C519.063 672.264 456.279 689.991 392.018 701.591C335.056 711.915 293.545 715.262 229.005 714.836C209.393 714.723 182.473 714.658 169.28 714.624ZM114.175 712.662C118.44 710.915 268.903 668.053 298.077 660.371C306.792 657.98 315.685 655.466 317.641 654.839C319.597 654.212 335.604 649.686 353.212 644.782C370.821 639.877 386.828 635.351 388.783 634.724C390.739 634.097 399.098 631.709 407.456 629.198C532.126 593.014 573.022 580.098 647.501 553.947C700.471 535.304 735.836 521.811 773.676 505.97C790.731 498.86 805.476 492.624 806.542 492.249C807.431 491.875 806.018 493.48 803.007 495.832C795.746 501.649 774.284 514.68 751.392 527.353C740.745 533.193 731.161 538.412 729.919 539.034C722.291 543.626 675.934 564.311 653.901 573.05C570.035 606.628 500.142 626.98 326.665 668.033C240.016 688.498 187.343 700.143 140.707 708.802C113.117 714.02 109.734 714.533 114.175 712.662ZM174.388 685.993C174.378 684.766 209.921 671.395 222.372 667.998C302.588 645.613 411.924 609.163 495.266 576.939C510.903 570.82 528.14 564.199 533.472 562.2C538.802 560.077 549.643 555.954 557.462 552.956C582.34 543.339 617.364 531.812 637.466 526.523C656.499 521.485 666.465 519.332 717.54 508.557C749.93 501.834 772.878 495.789 792.431 489.03C828.34 476.639 804.363 487.477 736.662 514.074C703.611 527.06 625.757 554.707 593.219 564.989C583.44 568.123 570.993 572.011 565.659 573.766C545.033 580.286 526.54 585.933 501.643 593.342C487.417 597.61 472.301 602.13 467.855 603.51C442.07 611.293 361.858 634.046 271.324 659.078C258.517 662.6 231.839 670.143 211.742 675.924C191.644 681.582 175.104 686.357 174.748 686.359C174.571 686.483 174.39 686.239 174.388 685.993ZM188.526 671.171C188.524 670.925 196.33 666.332 205.734 660.991C215.316 655.649 229.511 647.576 237.316 642.983C245.123 638.512 264.289 628.074 279.909 619.869C427.409 542.416 554.9 502.531 700.257 488.422C734.28 485.125 734.286 485.862 700.281 491.368C652.925 499.172 604.887 510.786 555.099 526.339C527.183 535.118 479.011 551.888 464.265 558.001C459.113 560.122 454.492 561.871 454.135 561.873C453.779 561.876 439.209 567.742 421.798 574.855C391.593 587.085 375.605 593.943 335.817 611.393C304.379 625.35 202.228 668.133 196.716 669.888C191.026 671.645 188.533 672.03 188.526 671.171ZM268.717 645.84C438.336 569.957 521.148 538.227 610.623 514.552C662.387 500.827 720.775 490.371 768.162 486.248C802.011 483.32 802.901 483.191 800.951 484.555C796.167 488.023 752.939 499.237 715.742 506.728C667.331 516.381 660.213 517.901 644.555 521.566C635.659 523.712 621.961 527.24 613.781 529.627C599.375 533.774 544.626 552.92 527.213 559.91C477.106 579.883 399.789 607.772 345.917 625.193C310.536 636.722 254.344 653.914 251.85 654.054C250.958 654.06 258.593 650.326 268.717 645.84ZM1323.94 517.001C1317.24 483.786 1305.2 450.975 1275.96 386.983C1249.81 329.72 1237.4 295.93 1230.53 263.33C1226.45 244.456 1225.54 200.156 1228.98 185.406C1231.73 172.623 1234.52 165.118 1235.95 165.108C1237.37 165.098 1240.73 183.24 1242.84 201.267C1246.89 237.446 1258.25 274.312 1284.82 338.445C1322.12 427.911 1332.75 462.204 1337.4 507.461C1339.94 533.217 1338.02 560.231 1332.75 569.471L1329.59 575.015L1328.16 553.547C1327.53 541.646 1325.43 525.214 1323.94 517.001ZM1314.79 532.159C1305.85 507.795 1298.59 492.503 1272.87 444.074C1233.74 370.084 1224.3 349.038 1214.37 313.144C1204.26 277.129 1204.14 241.292 1213.85 208.826C1216.11 201.57 1216.11 201.815 1217.54 224.143C1220.45 272.97 1231.62 308.365 1270.1 389.477C1294.05 440.004 1302.23 459.095 1310.65 484.935C1319.43 511.141 1325.01 538.595 1324.78 553.447L1324.65 560.321L1322.83 554.81C1321.91 551.748 1318.26 541.586 1314.79 532.159ZM1337.84 474.32C1331.53 444.539 1320.92 412.086 1301.06 361.654C1274.65 294.698 1268.44 277.312 1261.06 247.783C1258.48 237.736 1255.9 227.812 1255.35 225.73C1253.88 220.094 1256.94 223.51 1263.45 234.88C1266.89 240.625 1276.46 255.166 1284.76 267.261C1293.06 279.355 1305.69 297.558 1312.55 307.575C1339.08 346.058 1352.15 373.584 1359.56 406.672C1369.37 450.667 1365.13 497.088 1347.47 538.689L1343.63 547.92L1342.31 518.473C1341.46 502.279 1339.51 482.409 1337.84 474.32ZM395.286 453.529C465.075 442.014 522.821 418.798 621.118 362.909C698.124 319.19 736.653 300.399 781.625 284.632C829.798 267.863 862.544 261.015 974.724 244.92C1011.41 239.642 1053.07 232.98 1067.31 230.184C1114.29 220.909 1153.77 209.23 1184.14 195.403C1192.13 191.79 1198.88 188.921 1198.89 189.29C1198.91 192.235 1169.1 208.513 1145.82 218.12C1096.08 238.705 1044.14 252.677 927.745 276.532C763.122 310.408 714.402 325.708 632.935 368.966C564.069 405.389 557.856 408.622 542.052 416.092C509.377 431.407 473.996 442.813 437.506 449.686C416.681 453.631 394.776 456.478 384.615 456.546C378.198 456.712 380.154 456.085 395.286 453.529ZM293.673 454.089C289.741 453.011 291.52 452.508 307.01 450.072C364.161 440.974 413.61 427.632 452.87 410.922C459.62 408.054 467.615 404.81 470.457 403.563C478.098 400.566 515.374 381.17 529.388 372.853C542.516 365.155 552.27 358.953 581.343 339.366C645.165 296.718 682.258 276.709 724.39 262.434C773.099 245.784 830.776 235.701 929.11 226.694C1038.84 216.507 1071.97 212.111 1121.61 200.977C1144.21 195.916 1165.37 189.638 1186.17 181.888C1194.34 178.888 1201.99 176.382 1203.24 176.374C1204.48 176.365 1205.9 175.619 1206.43 174.879C1206.78 174.018 1207.67 173.644 1208.39 174.007C1212.33 176.558 1180.2 192.974 1151.76 202.861C1105.54 219.004 1067.64 227.114 979.317 239.857C859.659 257.107 830.471 263.072 778.03 281.097C739.278 294.49 680.151 323.115 627.995 353.903C518.539 418.459 446.213 446.314 365.882 454.954C356.086 456.001 298.14 455.286 293.673 454.089ZM354.25 428.399C384.29 417.765 408.621 406.679 443.405 387.79C485.644 364.923 514.377 347.303 587.427 299.56C601.433 290.261 634.423 270.034 654.823 257.87C681.965 241.732 730.436 218.088 757.802 207.472C833.325 178.245 899.205 168.352 1001.73 170.486C1055.23 171.6 1128.14 171.11 1149.69 169.369C1159.67 168.566 1171.08 168.489 1175.54 168.95L1183.57 169.878L1177.34 170.779C1146 175.04 1097.53 177.943 1004.49 180.777C989.344 181.247 972.413 181.974 967.067 182.256C961.721 182.537 949.604 183.232 940.337 183.663C811.854 190.172 730.048 214.286 630.01 275.219C614.756 284.526 605.891 290.354 569.902 314.406C557.316 322.959 544.374 331.637 541.36 333.621C538.169 335.729 530.545 340.689 524.34 344.904C481.26 373.667 423.224 404.74 381.645 421.219C368.674 426.461 334.536 437.368 331.15 437.514C329.724 437.523 340.208 433.403 354.25 428.399ZM412.797 415.733C412.795 415.487 418.654 412.625 425.579 409.265C457.187 394.325 485.745 377.073 547.615 335.42C625.795 282.856 648.14 268.715 679.026 252.675C775.409 202.444 844.287 188.604 1026.8 183.082C1095.24 181.027 1139.43 178.152 1175.58 173.491C1195.17 171.028 1195.7 171.024 1186.64 174.644C1164.25 183.631 1125.47 193.71 1088.09 200.343C1054.45 206.338 1023.46 210.105 959.328 216.059C852.978 225.856 820.21 230.003 776.79 239.5C732.657 249.124 691.952 263.511 657.698 281.783C630.188 296.45 614.581 306.128 554.123 346.176C509.977 375.315 474.299 393.964 434.135 409.085C416.895 415.46 412.807 416.837 412.797 415.733ZM1150.8 322.776C1150.05 318.24 1150.21 316.398 1151.47 317.249C1153.26 318.464 1164.78 352.997 1164.46 356.804C1164.31 360.364 1152.11 329.886 1150.8 322.776ZM569.629 303.116C615.341 269.304 665.157 235.831 692.308 220.921C716.62 207.503 752.852 191.182 777.206 182.795C858.801 154.878 932.923 149.839 1087.23 161.812C1106.86 163.398 1126.12 164.987 1130.05 165.451C1136.83 166.265 1136.48 166.39 1124.72 167.205C1117.77 167.62 1092.63 167.789 1068.56 167.583C993.145 166.862 913.642 167.887 898.324 169.585C850.057 175.064 813.401 183.411 769.32 199.171C720.442 216.805 671.445 241.557 608.66 280.394C598.905 286.474 585.074 295.28 577.803 299.87C563.263 309.296 559.176 310.919 569.629 303.116Z" fill="#085913" fill-opacity="0.12"/>
</svg>
