<svg width="375" height="521" viewBox="0 0 375 521" fill="none" xmlns="http://www.w3.org/2000/svg">
<g clip-path="url(#clip0_263_20573)">
<path d="M372.06 319.809C372.206 319.896 372.757 320.224 374.05 321.009C379.453 300.994 379.963 280.316 375.906 260.542C369.334 251.539 374.568 256.358 376.041 278.113C376.975 291.928 375.738 305.893 372.063 319.809H372.06Z" fill="white" fill-opacity="0.12"/>
<path d="M365.131 247.54C358.468 240.499 363.927 244.315 366.522 266.881C368.329 282.607 367.358 298.558 363.485 314.12C363.207 315.243 365.333 315.954 365.663 314.623C371.164 292.526 370.946 269.49 365.131 247.54Z" fill="white" fill-opacity="0.12"/>
<path d="M356.402 250.996C353.777 234.971 353.612 236.621 350.68 233.969C350.601 235.699 360.451 266.866 355.997 310.551C356.034 310.571 357.924 311.627 358.119 311.738C360.286 291.475 359.72 271.242 356.405 250.996H356.402Z" fill="white" fill-opacity="0.12"/>
<path d="M345.42 236.551C345.206 235.234 343.928 227.89 342.732 226.827C335.664 220.54 344.014 224.272 344.532 253.458C344.843 271.018 342.829 289.262 348 306.109C353.526 309.153 349.537 308.882 347.565 293.152C345.236 274.552 348.453 255.101 345.42 236.551Z" fill="white" fill-opacity="0.12"/>
<path d="M337.723 244.749C336.377 234.518 334.165 226.206 331.33 216.938C322.744 209.782 335.582 221.159 336.827 262.175C337.202 274.538 336.482 287.021 335.638 299.374C335.758 299.438 336.962 300.092 337.445 300.353C338.248 300.786 340.629 266.846 337.719 244.752L337.723 244.749Z" fill="white" fill-opacity="0.12"/>
<path d="M327.367 204.307C327.138 203.586 327.04 202.852 326.081 202.852C325.353 202.852 325.518 202.852 327.367 204.307Z" fill="white" fill-opacity="0.12"/>
<path d="M316.716 205.364C310.743 200.844 312.94 200.824 318.395 215.229C327.93 240.404 331.604 267.87 328.23 295.355C328.222 295.426 327.979 295.268 330.329 296.522C334.255 266.099 329.718 234.51 316.712 205.364H316.716Z" fill="white" fill-opacity="0.12"/>
<path d="M306.929 305.456C321.931 298.495 325.043 301.959 319.325 298.965C289.967 305.839 271.119 332.64 242.204 339.118C246.613 339.967 246.433 340.651 254.39 337.274C273.714 329.069 287.92 314.275 306.929 305.453V305.456Z" fill="white" fill-opacity="0.12"/>
<path d="M305.561 197.138C300.165 193.252 302.033 192.772 306.941 207.268C315.845 233.573 318.691 261.317 315.249 288.571C315.748 288.832 317.319 289.651 317.356 289.671C321.462 258.413 317.356 226.602 305.561 197.141V197.138Z" fill="white" fill-opacity="0.12"/>
<path d="M291.804 187.817C284.842 183.562 288.561 184.068 295.49 200.395C306.356 225.992 308.62 254.567 301.358 281.416C301.665 281.57 303.086 282.301 303.394 282.455C312.062 250.896 307.852 216.912 291.808 187.817H291.804Z" fill="white" fill-opacity="0.12"/>
<path d="M199.079 326.123C200.302 326.646 229.145 322.411 256.876 305.864C272.908 296.297 279.631 287.629 292.06 284.947C292.022 284.927 290.316 284.065 289.784 283.797C288.333 283.066 280.789 287.096 278.476 288.531C269.38 294.175 243.753 318.314 196.188 324.856C196.23 324.872 197.977 325.65 199.079 326.12V326.123Z" fill="white" fill-opacity="0.12"/>
<path d="M276.867 179.668C271.13 176.875 273.68 176.019 280.481 193.05C291.107 219.65 294.298 248.246 289.941 275.667C290.08 275.738 291.887 276.643 292.037 276.717C297.406 243.917 292.097 209.936 276.871 179.668H276.867Z" fill="white" fill-opacity="0.12"/>
<path d="M263.894 173.889C258.6 171.733 261.165 171.049 266.928 186.996C276.346 213.06 278.153 240.904 272.473 267.075C272.597 267.135 274.426 268.024 274.539 268.081C281.524 236.421 277.658 203.332 263.894 173.885V173.889Z" fill="white" fill-opacity="0.12"/>
<path d="M253.422 182.783C248.177 166.149 248.076 168.033 245.339 167.145C254.87 189.869 260.659 217.022 260.415 242.08C260.209 263.252 257.123 259.647 261.127 261.598C264.993 236.393 261.236 207.57 253.422 182.783Z" fill="white" fill-opacity="0.12"/>
<path d="M234.848 163.872C229.858 162.337 232.096 161.203 237.908 176.621C247.603 202.363 249.561 229.091 245.136 253.612C245.395 253.746 247.176 254.651 247.217 254.671C252.86 224.145 248.544 192.367 234.852 163.869L234.848 163.872Z" fill="white" fill-opacity="0.12"/>
<path d="M142.456 273.887C128.94 273.887 127.868 270.081 131.79 274.943C152.171 278.991 196.2 270.118 229.025 253.359C228.988 253.339 226.986 252.283 226.787 252.176C196.395 267.453 162.156 273.887 142.456 273.887Z" fill="white" fill-opacity="0.12"/>
<path d="M222.524 160.097C218.017 158.722 219.899 157.82 225.122 172.728C233.584 196.867 236.408 222.401 233.363 247.479C234.492 248.079 233.956 247.794 235.478 248.596C239.287 218.75 234.81 188.116 222.524 160.094V160.097Z" fill="white" fill-opacity="0.12"/>
<path d="M212.603 157.076C208.527 155.839 210.087 154.846 213.679 169.073C219.389 191.69 221.372 215.551 219.014 239.677C219.978 240.213 219.693 240.055 221.147 240.86C224.057 212.607 221.076 184.089 212.599 157.076H212.603Z" fill="white" fill-opacity="0.12"/>
<path d="M213.3 244.822C212.097 244.152 192.285 256.994 157.502 258.852C133.383 260.139 117.429 255.1 117.977 255.931C118.4 256.575 118.888 257.306 119.323 257.95C152.017 264.84 186.777 260.136 215.126 245.835C214.478 245.476 213.72 245.057 213.3 244.822Z" fill="white" fill-opacity="0.12"/>
<path d="M108.494 240.69C109.844 242.967 108.067 243.315 124.223 244.931C149.936 247.503 176.485 245.227 201.456 238.064C199.75 237.072 199.105 236.693 199.019 236.643C169.08 244.921 137.679 246.004 108.494 240.693V240.69Z" fill="white" fill-opacity="0.12"/>
<path d="M204.673 165.811C200.901 151.778 200.773 153.492 198.25 152.73C205.516 173.144 208.969 194.376 208.557 215.715C208.167 235.858 205.711 232.115 209.461 234.272C212.381 211.014 210.578 187.771 204.673 165.811Z" fill="white" fill-opacity="0.12"/>
<path d="M115.483 233.11C100.662 229.747 99.0157 224.084 102.851 230.917C124.275 241.215 150.236 235.994 171.037 232.42C189.21 229.298 188.423 230.297 187.381 229.657C180.073 225.177 145.71 239.967 115.483 233.11Z" fill="white" fill-opacity="0.12"/>
<path d="M185.184 148.773C184.61 148.599 185.45 148.854 183.016 148.116C181.577 147.68 189.383 163.46 192.112 193.615C195.247 228.212 189.525 222.421 194.699 225.556C196.488 199.553 193.207 173.526 185.184 148.773Z" fill="white" fill-opacity="0.12"/>
<path d="M173.137 145.119C173.014 145.082 171.012 144.472 170.952 144.452C168.882 143.822 183.546 171.2 178.765 215.619C179.035 215.793 180.831 216.936 180.869 216.963C183.748 191.986 180.704 167.448 173.137 145.119Z" fill="white" fill-opacity="0.12"/>
<path d="M142.981 128.434C142.531 128.434 142.663 128.44 143.889 128.826C143.679 128.578 143.356 128.434 142.981 128.434Z" fill="white" fill-opacity="0.12"/>
<path d="M151.99 197.485C152.324 197.723 152.354 197.743 153.749 198.732C155.706 178.311 153.494 157.328 146.902 137.098C146.014 136.827 144.863 136.471 144.289 136.297C156.268 171.998 150.712 196.572 151.987 197.485H151.99Z" fill="white" fill-opacity="0.12"/>
<path d="M136.164 133.794C134.267 133.208 134.717 133.348 133.626 133.01C137.773 147.894 139.996 163.258 140.011 179.346C140.019 190.06 138.781 187.796 141.923 190.137C143.089 171.198 141.162 152.257 136.164 133.791V133.794Z" fill="white" fill-opacity="0.12"/>
<path d="M119.75 121.181C119.581 121.063 119.371 120.996 119.139 120.986C119.341 121.05 119.547 121.117 119.75 121.181Z" fill="white" fill-opacity="0.12"/>
<path d="M123.93 135.067C122.404 128.609 123.038 129.732 119.975 128.773C128.414 158.455 124.841 176.941 126.034 177.893C126.551 178.306 127.796 179.295 127.833 179.322C128.707 163.931 127.256 149.15 123.93 135.067Z" fill="white" fill-opacity="0.12"/>
<path d="M111.089 165.553C111.382 165.805 113.084 167.25 113.125 167.284C115.015 153.345 114.141 139.422 110.519 125.799C106.084 124.397 108.746 123.431 110.861 138.728C112.143 148.013 112.132 156.946 111.089 165.553Z" fill="white" fill-opacity="0.12"/>
<path d="M101.877 157.501C104.385 159.741 102.979 158.487 103.83 159.241C106.2 147.009 105.289 134.502 101.352 122.847C96.6615 121.271 99.391 120.593 101.716 133.104C103.197 141.081 103.275 149.393 101.873 157.498L101.877 157.501Z" fill="white" fill-opacity="0.12"/>
<path d="M85.0641 141.842C86.3538 143.096 86.1739 142.921 87.1487 143.857C88.0561 134.334 87.01 125.103 84.4042 116.482C80.0737 114.668 81.9221 113.89 83.8605 123.473C85.0716 129.472 85.484 135.581 85.0641 141.842Z" fill="white" fill-opacity="0.12"/>
<path d="M76.2347 133.06C76.6922 123.383 74.9225 112.251 73.9064 111.758C68.5673 109.183 74.4575 110.376 74.0639 130.827C74.0976 130.861 75.6573 132.47 76.2347 133.06Z" fill="white" fill-opacity="0.12"/>
<path d="M63.8961 120.036C64.2185 120.388 65.8982 122.212 65.9732 122.293C66.4531 117.303 66.2207 112.291 65.2758 107.331C59.8768 104.394 64.7022 105.125 63.8923 120.033L63.8961 120.036Z" fill="white" fill-opacity="0.12"/>
<path d="M354.37 341.823C342.308 345.068 343.605 344.388 353.691 344.113C387.709 334.731 396.659 344.757 386.783 338.074C375.812 337.028 364.969 338.973 354.374 341.823H354.37Z" fill="white" fill-opacity="0.12"/>
<path d="M370.069 328.241C352.38 328.241 338.927 339.102 324.154 344.91C330.693 344.803 328.421 345.594 338.833 340.252C348.574 335.256 361.877 328.298 375.569 330.699C371.138 327.863 372.097 328.241 370.069 328.241Z" fill="white" fill-opacity="0.12"/>
<path d="M302.827 329.288C274.898 345.179 269.094 342.942 272.896 343.267C291.388 344.854 316.089 316.144 346.106 316.144C352.634 316.144 354.434 317.834 347.958 314.286C347.269 313.908 335.934 313.455 321.132 319.796C314.66 322.569 308.646 325.986 302.831 329.288H302.827Z" fill="white" fill-opacity="0.12"/>
<path d="M232.415 331.713C254.607 325.459 272.121 311.443 291.111 300.948C308.984 291.073 310.094 294.158 305.479 291.787C275.049 303.832 250.112 330.693 216.026 332.454C220.357 333.849 220.747 334.999 232.415 331.709V331.713Z" fill="white" fill-opacity="0.12"/>
<path d="M178.378 315.646C180.786 317.071 193.248 314.818 197.646 313.654C220.78 307.538 238.357 292.868 259.86 284.117C279.053 276.304 283.169 280.465 276.424 277.105C255.878 280.764 238.454 292.959 221.624 301.714C182.923 321.843 168.323 309.698 178.375 315.646H178.378Z" fill="white" fill-opacity="0.12"/>
<path d="M198.937 297.954C218.594 293.367 233.633 284.917 262.492 270.207C259.384 268.678 262.724 267.772 243.348 277.647C221.909 288.578 201.036 299.339 169.317 299.339C153.074 299.339 152.369 296.807 156.681 300.385C158.042 301.515 178.709 302.678 198.933 297.957L198.937 297.954Z" fill="white" fill-opacity="0.12"/>
<path d="M155.507 288.822C202.269 288.822 222.992 267.674 245.653 261.913C245.496 261.836 243.988 261.075 243.392 260.773C240.831 259.486 215.771 272.767 209.674 275.48C189.484 284.47 165.593 288.591 141.488 286.086C143.442 288.161 142.437 288.819 155.511 288.819L155.507 288.822Z" fill="white" fill-opacity="0.12"/>
<path d="M169.852 218.548C158.214 218.588 148.841 222.887 132.505 222.887C109.469 222.887 94.0815 214.595 94.5576 215.517C95.0488 216.466 95.1688 216.704 95.7762 217.867C115.91 225.962 134.908 226.193 154.285 222.538C174.584 218.706 175.836 222.465 169.849 218.548H169.852Z" fill="white" fill-opacity="0.12"/>
<path d="M159.396 140.922C158.998 140.801 156.801 140.127 156.764 140.117C162.609 156.786 165.875 174.745 165.766 193.623C165.676 208.675 163.85 205.764 167.262 208.058C169.463 185.589 166.823 162.704 159.396 140.925V140.922Z" fill="white" fill-opacity="0.12"/>
<path d="M128.006 209.252C88.0756 211.472 84.7761 195.937 89.6203 205.752C107.951 215.174 131.313 210.231 149.524 210.231C159.302 210.231 159.561 211.71 154.728 208.357C145.797 207.894 137.263 208.739 128.006 209.252Z" fill="white" fill-opacity="0.12"/>
<path d="M79.6543 184.568C80.1117 185.588 80.5129 186.476 80.9816 187.512C81.9152 189.565 108.671 205.136 141.358 198.843C140.548 198.249 139.202 197.263 139.104 197.189C117.898 200.771 95.9003 195.734 79.6543 184.568Z" fill="white" fill-opacity="0.12"/>
<path d="M81.8624 174.13C71.1617 168.708 71.6941 166.669 74.18 172.219C89.5374 181.507 107.684 186.798 126.169 187.388C125.49 186.862 125.224 186.654 123.443 185.252C108.82 184.404 94.5203 180.545 81.8624 174.13Z" fill="white" fill-opacity="0.12"/>
<path d="M66.5537 155.859C67.9785 158.793 66.3737 158.881 81.4012 164.356C89.2449 167.216 97.6322 169.624 106.522 171.418C106.484 171.384 104.46 169.664 103.837 169.124C102.36 167.853 88.0151 166.257 66.5537 155.859Z" fill="white" fill-opacity="0.12"/>
<path d="M93.2453 149.634C93.4627 149.836 95.3112 151.549 95.3486 151.583C96.2935 140.467 95.0787 129.663 92.1317 119.56C87.6625 117.867 89.9608 116.905 92.1617 129.556C93.2752 135.96 93.6877 142.734 93.2453 149.634Z" fill="white" fill-opacity="0.12"/>
<path d="M61.4775 145.672C70.1873 150.725 79.5457 154.075 88.9791 155.866C84.2474 151.49 88.5929 154.501 77.7572 150.823C58.9617 144.442 57.4919 137.886 61.4737 145.672H61.4775Z" fill="white" fill-opacity="0.12"/>
<path d="M52.1152 128.219C53.63 130.908 52.2352 131.699 68.2187 137.47C72.0131 138.838 71.7956 139.287 67.7876 135.136C62.3098 133.104 57.1131 130.807 52.119 128.222L52.1152 128.219Z" fill="white" fill-opacity="0.12"/>
<path d="M43.3193 111.818C45.3852 115.755 43.7168 114.266 52.1491 118.173C47.8936 113.334 50.0757 114.947 43.3193 111.818Z" fill="white" fill-opacity="0.12"/>
<path d="M386.363 227.995C375.868 226.751 374.702 220.736 376.581 226.993C380.086 228.904 384.035 229.944 387.844 230.128C387.405 229.498 386.382 228.029 386.359 227.995H386.363Z" fill="white" fill-opacity="0.12"/>
<path d="M373.593 217.03C373.96 218.257 378.774 219.106 380.461 219.233C377.728 215.072 378.141 218.106 372.903 214.659C372.865 214.632 372.79 214.354 373.593 217.03Z" fill="white" fill-opacity="0.12"/>
<path d="M364.182 455.47C364.516 470.093 363.545 487.825 371.355 502.659C377.417 504.986 373.522 505.123 369.919 493.283C364.49 475.448 368.085 456.748 365.044 438.175C364.617 435.556 362.484 425.544 360.931 424.813C354.029 421.547 363.429 422.66 364.182 455.47Z" fill="white" fill-opacity="0.12"/>
<path d="M359.275 498.137C365.075 500.26 360.609 500.498 357.685 484.775C354.007 465.018 358.015 443.421 346.905 424.882C341.27 415.473 338.979 415.821 334.679 414.443C361.318 433.828 347.85 471.205 359.275 498.141V498.137Z" fill="white" fill-opacity="0.12"/>
<path d="M292.315 405.217C286.462 404.496 288.723 403.098 297.924 415.132C313.367 435.331 321.342 459.933 320.082 484.307C321.147 484.672 320.656 484.501 322.283 485.061C323.974 456.392 313.064 427.314 292.315 405.217Z" fill="white" fill-opacity="0.12"/>
<path d="M231.391 403.008C223.161 403.165 232.613 401.553 250.4 422.815C270.8 447.202 270.635 468.296 272.116 468.749C272.154 468.759 273.597 469.205 274.089 469.356C267.988 427.341 233.093 402.978 231.391 403.008Z" fill="white" fill-opacity="0.12"/>
<path d="M197.511 404.928C195.7 405.092 194.013 405.256 193.908 405.27C213.019 415.956 231.023 428.778 239.062 447.75C244.705 461.062 239.815 459.188 244.753 460.613C242.185 435.991 220.731 418.213 197.515 404.931L197.511 404.928Z" fill="white" fill-opacity="0.12"/>
<path d="M232.366 464.51C232.512 464.59 232.681 464.637 232.865 464.651C232.7 464.604 232.531 464.557 232.366 464.51Z" fill="white" fill-opacity="0.12"/>
<path d="M182.971 406.518C175.3 407.51 178.116 406.471 185.903 409.864C206.889 419.018 218.583 437.138 227.968 455.865C229.137 456.191 229.122 456.181 230.81 456.653C220.443 435.653 207.166 415.098 182.975 406.518H182.971Z" fill="white" fill-opacity="0.12"/>
<path d="M162.32 409.767C177.869 425.46 204.433 431.951 212.903 451.762C214.189 452.107 213.51 451.923 215.569 452.476C209.247 435.113 188.562 426.539 174.378 416.889C162.17 408.58 167 408.902 162.32 409.771V409.767Z" fill="white" fill-opacity="0.12"/>
<path d="M138.418 479.801C139.516 480.666 150.809 481.082 162.639 476.971C181.528 470.405 191.767 460.708 206.836 457.56C202.239 456.379 203.18 454.548 180.231 466.828C142.868 486.832 130.24 473.376 138.418 479.804V479.801Z" fill="white" fill-opacity="0.12"/>
<path d="M151.02 412.027C144.125 413.509 148.091 410.985 168.046 423.582C178.769 430.352 188.633 438.5 197.148 447.745C199.833 448.372 200.68 448.59 200.811 448.62C186.86 432.817 169.579 420.514 151.02 412.027Z" fill="white" fill-opacity="0.12"/>
<path d="M135.666 415.631C135.298 415.725 133.172 416.265 133.135 416.275C148.466 429.302 168.341 430.006 176.279 443.381C176.747 443.468 179.023 443.901 179.061 443.911C171.678 428.708 150.929 428.027 135.666 415.631Z" fill="white" fill-opacity="0.12"/>
<path d="M117.992 420.273C117.647 420.367 116.095 420.786 115.581 420.923C125.239 430.369 141.422 428.8 151.432 436.666C155.722 440.039 152.52 439.315 157.446 440.113C149.355 426.959 128.779 429.672 117.992 420.27V420.273Z" fill="white" fill-opacity="0.12"/>
<path d="M108.873 425.482C102.829 423.917 104.696 423.933 100.621 425.073C99.7583 425.315 99.6609 425.174 101.172 425.566C115.322 429.248 122.048 430.593 127.046 434.74C128.655 436.075 127.26 435.642 131.384 436.189C126.424 429.63 117.467 427.706 108.877 425.482H108.873Z" fill="white" fill-opacity="0.12"/>
<path d="M361.01 573.492C367.564 566.293 372.401 558.272 377.252 550.175C396.67 517.774 401.425 523.118 396.445 520.959C377.046 538.228 371.085 565.398 350.051 580.524C353.376 580.359 353.86 581.342 361.01 573.492Z" fill="white" fill-opacity="0.12"/>
<path d="M378.969 458.874C379.168 483.506 385.384 508.231 386.543 508.714C392.054 511.001 386.142 510.85 382.422 478.509C379.58 453.81 383.675 444.231 377.282 433.44C368.036 428.045 375.501 431.207 377.897 440.861C379.355 446.729 378.917 452.912 378.965 458.874H378.969Z" fill="white" fill-opacity="0.12"/>
<path d="M317.082 578.884C319.268 579.212 327.262 574.85 329.29 573.619C359.428 555.298 359.304 523.503 383.963 515.422C383.907 515.396 383.176 515.067 381.305 514.242C366.086 520.338 359.893 535.145 352.446 546.774C328.589 584.017 302.261 576.664 317.079 578.884H317.082Z" fill="white" fill-opacity="0.12"/>
<path d="M341.138 575.39C349.083 568.026 355.465 559.318 361.628 550.902C389.347 513.065 395.946 520.784 389.576 517.938C364.231 534.914 352.394 568.181 331.161 580.399C334.506 580.617 334.543 581.499 341.134 575.39H341.138Z" fill="white" fill-opacity="0.12"/>
<path d="M322.751 553.27C337.951 538.617 350.253 518.85 371.174 509.981C371.103 509.954 369.648 509.388 368.929 509.116C367.399 508.539 357.834 515.038 354.711 517.489C336.98 531.384 326.145 551.255 306.952 563.111C289.3 574.019 279.45 569.395 288.677 572.269C290.818 572.936 306.333 569.1 322.748 553.273L322.751 553.27Z" fill="white" fill-opacity="0.12"/>
<path d="M323.895 411.285C315.845 409.146 321.465 409.179 329.047 421.827C347.25 452.203 337.524 490.368 342.402 492.088C342.987 492.293 343.853 492.601 344.438 492.806C341.588 477.321 347.681 437.141 323.899 411.285H323.895Z" fill="white" fill-opacity="0.12"/>
<path d="M252.023 557.848C253.684 558.633 264.059 555.36 266.117 554.629C289.978 546.163 307.304 528.736 324.27 514.144C343.376 497.713 344.587 500.453 340.253 498.924C311.694 518.65 287.398 552.202 249.264 556.53C249.609 556.698 250.036 556.909 252.023 557.848Z" fill="white" fill-opacity="0.12"/>
<path d="M234.458 548.922C236.419 549.991 246.381 547.581 249.894 546.444C269.14 540.227 287.058 524.464 324.083 501.311C334.022 495.094 335.927 497.394 330.577 495.523C325.597 497.562 324.825 498.172 288.239 522.446C270.478 534.225 252.406 547.869 231.47 547.275C231.732 547.423 232.238 547.715 234.454 548.922H234.458Z" fill="white" fill-opacity="0.12"/>
<path d="M222.647 542.184C225.587 543.935 249.515 538.828 279.315 519.464C293.199 510.44 306.161 500.522 320.423 491.988C312.269 489.172 277.936 524.742 239.797 537.037C220.285 543.328 216.341 538.426 222.644 542.184H222.647Z" fill="white" fill-opacity="0.12"/>
<path d="M209.356 532.636C207.158 532.747 206.75 532.19 210.439 534.584C263.298 531.379 276.357 496.717 306.307 487.164C306.269 487.151 304.379 486.514 303.682 486.279C301.939 485.692 292.385 491.292 289.802 492.975C269.488 506.207 252.556 530.453 209.356 532.633V532.636Z" fill="white" fill-opacity="0.12"/>
<path d="M296.072 462.313C299.761 478.234 295.176 476.004 299.87 477.54C300.608 454.477 287.561 433.698 271.798 415.403C259.887 401.578 260.839 403.114 257.734 403.047C274.363 420.879 290.748 439.321 296.072 462.313Z" fill="white" fill-opacity="0.12"/>
<path d="M198.442 526.466C222.415 528.3 242.185 514.938 260.527 502.018C293.852 478.546 296.529 483.884 290.56 481.946C287.166 480.843 262.038 498.407 259.17 500.429C243.786 511.266 223.214 526.033 199.371 524.538C194.685 524.243 194.67 523.82 198.442 526.469V526.466Z" fill="white" fill-opacity="0.12"/>
<path d="M189.222 519.806C190.017 520.396 217.818 515.306 244.435 499.423C250.595 495.748 256.523 491.7 262.608 487.935C280.898 476.621 283.158 479.552 277.317 477.725C253.197 488.103 235.32 509.814 187.385 518.431C187.422 518.462 188.176 519.028 189.222 519.806Z" fill="white" fill-opacity="0.12"/>
<path d="M179.496 512.375C182.623 514.83 214.515 506.534 250.145 483.696C253.13 481.785 256.081 479.74 259.046 477.842C265.702 473.58 266.496 474.408 265.267 474.039C261.832 473.01 263.771 472.299 251.653 480.243C235.962 490.533 202.45 508.794 183.276 510.602C176.523 511.239 175.192 508.999 179.492 512.375H179.496Z" fill="white" fill-opacity="0.12"/>
<path d="M214.241 403.674C208.1 404.029 209.975 402.47 220.844 410.836C238.788 424.644 251.724 443.542 257.033 464.201C257.07 464.211 259.32 464.878 259.515 464.935C253.61 440.488 237.131 418.226 214.241 403.674Z" fill="white" fill-opacity="0.12"/>
<path d="M172.882 507.124C174.071 508.073 182.244 506.641 183.988 506.269C205.498 501.675 220.473 486.348 238.848 476.57C253.52 468.764 256.71 471.51 249.823 469.525C222.336 478.803 203.098 505.467 172.998 505.467C170.235 505.467 169.95 504.783 172.882 507.124Z" fill="white" fill-opacity="0.12"/>
<path d="M160.483 497.246C161.342 497.93 166.827 496.649 167.686 496.437C177.674 493.963 184.655 489.087 203.17 480.353C238.654 463.61 239.951 466.675 234.346 465.076C232.88 464.657 206.525 476.007 187.104 485.962C181.51 488.836 175.886 491.824 169.879 493.715C158.474 497.303 156.359 493.973 160.483 497.252V497.246Z" fill="white" fill-opacity="0.12"/>
<path d="M149.317 488.397C150.157 489.061 151.072 488.514 158.484 486.794C187.891 479.98 200.496 465.458 223.667 462.068C219.479 460.905 219.858 460.123 211.054 463.128C188.91 470.679 185.139 478.726 152.684 486.15C146.618 487.538 145.823 485.637 149.317 488.4V488.397Z" fill="white" fill-opacity="0.12"/>
<path d="M130.21 473.359C152.973 473.279 172.627 461.12 192.251 453.998C187.853 452.989 189.514 452.714 182.578 455.608C167.325 461.972 152.028 469.848 134.676 471.166C126.675 471.776 126.086 470.13 130.21 473.359Z" fill="white" fill-opacity="0.12"/>
<path d="M118.568 464.784C120.488 466.109 133.787 463.5 139.201 462.068C149.017 459.473 158.522 455.707 168.307 453.145C178.892 450.372 181.839 451.623 172.927 449.99C154.682 453.819 137.162 463.124 118.546 463.124C115.434 463.124 115.25 462.497 118.568 464.784Z" fill="white" fill-opacity="0.12"/>
<path d="M110.92 459.529C113.709 461.43 146.228 450.754 157.146 448.682C162.249 447.713 163.373 448.343 155.192 447.012C139.595 450.184 124.448 456.87 108.7 458.05C109.154 458.345 110.095 458.969 110.92 459.529Z" fill="white" fill-opacity="0.12"/>
<path d="M139.554 444.558C131.58 443.375 137.946 443.7 107.385 452.773C101.881 454.41 101.378 453.632 102.439 454.235C105.78 456.143 100.696 457.089 139.554 444.555V444.558Z" fill="white" fill-opacity="0.12"/>
<path d="M94.3176 448.964C91.3144 448.947 90.482 447.985 96.2111 450.885C101.419 450.503 104.133 449.34 124.016 442.472C118.141 441.775 120.608 441.5 111.37 444.692C105.056 446.875 99.7055 448.984 94.3176 448.967V448.964Z" fill="white" fill-opacity="0.12"/>
<path d="M436.23 182.439C435.795 181.6 413.403 195.19 383.881 184.702C374.118 181.235 370.901 177.087 378.846 184.893C396.745 192.709 419.136 192.723 437.028 183.961C436.451 182.871 436.743 183.421 436.23 182.435V182.439Z" fill="white" fill-opacity="0.12"/>
<path d="M363.882 168.836C365.933 171.22 397.656 182.859 431.142 172.206C429.728 169.222 431.764 170.597 420.651 172.816C405.77 175.791 389.363 175.271 373.818 170.61C360.62 166.653 359.102 163.277 363.882 168.833V168.836Z" fill="white" fill-opacity="0.12"/>
<path d="M353.482 155.644C354.685 157.401 388.625 172.118 424.975 158.317C424.412 156.965 424.525 157.237 424.195 156.429C410.337 161.71 394.972 163.283 380.47 161.475C354.041 158.179 348.199 147.925 353.482 155.644Z" fill="white" fill-opacity="0.12"/>
<path d="M345.056 140.883C346.14 142.978 381.699 160.602 420.163 146.11C420.01 145.698 420.205 146.238 419.459 144.196C404.562 149.849 388.174 151.012 373.165 148.555C345.484 144.021 340.842 132.728 345.056 140.879V140.883Z" fill="white" fill-opacity="0.12"/>
<path d="M336.474 122.716C336.875 123.652 369.795 133.118 407.528 124.524C407.495 124.477 406.224 122.78 406.197 122.747C383.75 127.729 359.173 127.407 335.623 120.725C335.638 120.758 336.294 122.301 336.474 122.716Z" fill="white" fill-opacity="0.12"/>
<path d="M330.165 107.802C330.72 109.14 361.461 119.192 393.281 106.39C393.885 106.145 393.75 106.189 392.502 104.539C391.519 104.727 382.138 109.297 366.803 110.534C343.055 112.452 328.92 104.797 329.475 106.138C329.703 106.692 329.932 107.248 330.165 107.802Z" fill="white" fill-opacity="0.12"/>
<path d="M340.726 132.148C341.386 133.536 376.06 143.844 413.089 131.937C412.617 131.31 412.26 130.834 412.017 130.508C411.207 129.432 387.732 140.263 352.765 133.412C338.255 130.569 338.923 128.346 340.726 132.148Z" fill="white" fill-opacity="0.12"/>
<path d="M315.155 114.384C316.535 111.078 319.396 101.938 318.488 99.6541C314.716 90.1614 319.306 97.7998 313.423 112.758C314.81 114.059 314.611 113.871 315.155 114.384Z" fill="white" fill-opacity="0.12"/>
<path d="M325.527 96.4116C325.965 97.5148 355.004 107.235 385.974 95.979C385.914 95.9019 384.699 94.3259 384.673 94.2891C366.256 100.881 344.3 101.264 324.717 94.3461C325.317 95.8717 325.35 95.9589 325.53 96.4116H325.527Z" fill="white" fill-opacity="0.12"/>
<path d="M377.312 84.8259C377.222 84.7119 375.992 83.1627 375.906 83.0554C356.803 86.945 336.009 84.7856 318.136 76.6309C318.428 77.4725 318.721 78.294 318.916 78.8506C319.377 80.1516 346.241 91.4617 377.312 84.8259Z" fill="white" fill-opacity="0.12"/>
<path d="M298.924 99.5085C303.675 89.8616 306.517 79.7519 307.439 69.1997C302.46 53.5607 310.03 71.4362 297.226 97.9996C298.38 99.0189 296.948 97.7481 298.924 99.5085Z" fill="white" fill-opacity="0.12"/>
<path d="M314.218 64.6089C330.352 70.6211 348.142 72.5759 365.502 70.1483C362.75 66.7985 366.563 69.1524 350.921 69.1524C326.707 69.1524 313.213 61.2357 313.607 62.5669C313.618 62.6004 314.087 64.1898 314.214 64.6089H314.218Z" fill="white" fill-opacity="0.12"/>
<path d="M316.516 51.1273C309.145 49.652 309.82 48.7936 310.637 51.912C324.465 55.1477 338.96 56.7337 354.017 56.3716C351.895 53.8635 352.885 54.4167 349.829 54.4167C338.585 54.4167 327.464 53.3203 316.52 51.1273H316.516Z" fill="white" fill-opacity="0.12"/>
<path d="M307.139 106.929C310.99 100.538 312.861 93.3255 313.277 86.1062C308.399 72.9184 313.648 83.1387 308.864 97.8354C305.808 107.221 304.177 104.213 307.139 106.929Z" fill="white" fill-opacity="0.12"/>
<path d="M304.181 22.945C312.407 27.2236 321.792 29.9061 331.758 30.5264C328.286 26.5496 331.803 29.6345 319.835 26.6703C302.438 22.3649 303.075 17.1341 304.181 22.9417V22.945Z" fill="white" fill-opacity="0.12"/>
<path d="M301.377 7.08756C301.553 8.16391 314.248 12.9287 315.962 13.5457C317.69 14.166 317.461 14.1928 316.854 13.4987C312.482 8.50257 317.405 13.046 301.043 5.02539C301.047 5.05892 301.245 6.29958 301.377 7.09091V7.08756Z" fill="white" fill-opacity="0.12"/>
<path d="M325.106 11.4248C326.512 8.11531 327.584 4.67166 328.3 1.13077C325.331 1.13077 326.22 0.614385 325.455 3.54501C323.501 11.0392 322.643 8.59816 325.106 11.4248Z" fill="white" fill-opacity="0.12"/>
<path d="M340.198 28.8458C342.541 19.8192 343.239 10.4707 342.241 1.12891H339.977C340.91 9.73636 340.408 18.384 338.413 26.7803C338.567 26.958 340.025 28.6412 340.202 28.8458H340.198Z" fill="white" fill-opacity="0.12"/>
<path d="M352.987 43.6411C353.568 44.3184 366.578 25.816 362.66 1.12695H360.399C362.075 11.2098 360.98 21.6749 357.43 31.0803C352.567 43.9664 350.403 40.6334 352.987 43.6411Z" fill="white" fill-opacity="0.12"/>
<path d="M359.656 51.4472C359.825 51.645 360.68 52.6543 361.111 53.164C371.845 37.7765 375.674 18.9823 372.547 1.12695H370.278C373.416 18.5095 369.705 36.6935 359.656 51.4472Z" fill="white" fill-opacity="0.12"/>
<path d="M378.074 51.0683C372.394 68.0619 370.11 63.8772 373.128 67.5556C384.481 47.5308 387.556 24.3641 382.652 2.87399C382.149 0.677694 382.663 1.13036 379.926 1.13036C384.002 17.061 383.63 34.4436 378.074 51.0683Z" fill="white" fill-opacity="0.12"/>
<path d="M320.652 119.607C321.642 120.556 321.282 120.204 322.426 121.304C323.296 118.812 323.881 116.254 324.184 113.665C320.51 104.756 323.719 109.729 320.656 119.607H320.652Z" fill="white" fill-opacity="0.12"/>
<path d="M312.224 37.0503C305.494 34.7232 306.311 33.6402 307.117 37.2783C317.979 41.7916 330.341 43.9979 342.818 43.2703C340.651 40.7588 341.81 41.3993 338.218 41.3993C329.321 41.3993 320.562 39.934 312.224 37.0536V37.0503Z" fill="white" fill-opacity="0.12"/>
<path d="M288.756 90.6393C289.138 90.9646 288.553 90.4616 290.451 92.0912C294.552 84.9625 297.747 77.3945 299.936 69.5918C300.739 66.7282 303.453 55.6261 302.711 52.7558C298.182 35.1955 306.723 59.0094 288.756 90.6393Z" fill="white" fill-opacity="0.12"/>
<path d="M291.774 25.1966C294.864 61.0582 279.398 82.8065 280.489 83.7052C281.719 84.7178 281.794 84.7849 281.929 84.8955C295.67 58.8586 298.055 28.4793 289.161 1.1246C283.477 1.1246 289.54 -0.726316 291.771 25.1966H291.774Z" fill="white" fill-opacity="0.12"/>
<path d="M273.594 78.1165C273.897 78.3579 275.461 79.612 275.498 79.6455C282.491 53.8332 281.779 26.6126 273.714 1.12891H271.374C279.615 26.8104 280.069 53.5247 273.594 78.1165Z" fill="white" fill-opacity="0.12"/>
<path d="M266.65 52.6592C263.26 71.6949 260.669 68.097 264.272 70.8432C271.891 48.3907 272.799 24.2181 266.961 1.12852C262.743 1.12852 265.307 -1.10131 267.493 15.7917C269.079 28.0608 268.802 40.5947 266.653 52.6626L266.65 52.6592Z" fill="white" fill-opacity="0.12"/>
<path d="M249.875 60.3047C258.416 41.0209 260.944 20.5636 258.304 1.12891H256.051C258.735 20.5166 256.103 40.5213 248.042 59.0205C248.203 59.1311 249.204 59.8353 249.879 60.3081L249.875 60.3047Z" fill="white" fill-opacity="0.12"/>
<path d="M237.619 51.9929C238.058 52.2813 239.535 53.257 239.572 53.2838C244.304 36.8837 245.395 19.1189 242.013 1.13281H239.741C242.861 17.3954 242.456 34.7713 237.615 51.9962L237.619 51.9929Z" fill="white" fill-opacity="0.12"/>
<path d="M231.072 34.7473C229.591 48.3341 227.652 45.5611 231.034 47.7238C234.795 32.4671 234.847 16.5499 231.184 1.12891H228.89C231.578 12.2344 232.294 23.521 231.072 34.7473Z" fill="white" fill-opacity="0.12"/>
<path d="M225.329 44.1159C221.017 -1.14786 221.594 4.30766 221.223 1.12891H218.97C224.174 45.7052 220.848 41.3127 225.332 44.1159H225.329Z" fill="white" fill-opacity="0.12"/>
<path d="M210.773 35.2139C213.045 36.5786 212.003 35.9516 212.955 36.525C213.641 25.0841 212.591 13.194 209.468 1.13281H207.162C210.019 11.9533 211.354 23.3774 210.776 35.2172L210.773 35.2139Z" fill="white" fill-opacity="0.12"/>
<path d="M138.872 58.6362C139.569 58.8407 139.112 58.7133 142.674 59.736C148.197 61.322 179.748 45.5322 195.982 42.4775C207.38 40.3315 209.173 42.8698 204.07 39.852C201.67 38.4303 187.565 42.2562 181.536 44.3653C167.431 49.2978 153.877 56.7082 138.872 58.6362Z" fill="white" fill-opacity="0.12"/>
<path d="M200.403 29.0436C201.707 29.8148 200.98 29.3856 202.611 30.3513C202.975 20.6876 202.131 10.8328 200.058 1.12891H197.771C199.814 10.531 200.65 19.7689 200.403 29.047V29.0436Z" fill="white" fill-opacity="0.12"/>
<path d="M190.861 23.4405C192.323 16.1173 192.799 8.6533 192.259 1.12891H190.01C190.546 8.51247 190.077 15.5741 188.813 22.2401C188.918 22.3005 190.639 23.3098 190.861 23.4405Z" fill="white" fill-opacity="0.12"/>
<path d="M178.84 16.3926C179.305 11.3227 179.346 6.20917 178.968 1.1292C174.75 1.1292 177.967 -0.993327 176.703 15.1419C176.804 15.2022 178.713 16.3188 178.84 16.3926Z" fill="white" fill-opacity="0.12"/>
<path d="M78.1133 33.0247C81.4727 35.0097 81.0303 35.7139 89.86 34.6174C110.29 32.0824 127.507 21.2351 147.019 16.3027C161.184 12.7215 162.781 15.518 157.364 12.3359C129.547 15.4677 106.009 34.8924 78.1133 33.028V33.0247Z" fill="white" fill-opacity="0.12"/>
<path d="M168.882 10.5615C169.294 7.41961 169.478 4.26433 169.433 1.12916C166.441 1.12916 167.333 0.304294 167.142 4.831C166.917 10.2262 166.017 8.88492 168.882 10.5615Z" fill="white" fill-opacity="0.12"/>
<path d="M159.639 1.12735C156.752 1.12735 157.502 0.621027 157.082 3.65895C159.665 5.17121 159.17 5.71441 159.639 1.12735Z" fill="white" fill-opacity="0.12"/>
<path d="M274.786 112.125C274.876 112.125 274.944 112.161 273.883 111.672C274.067 111.93 274.374 112.125 274.786 112.125Z" fill="white" fill-opacity="0.12"/>
<path d="M292.071 111.563C305.227 113.692 311.346 120.871 301.737 112.039C296.416 110.061 290.665 109.005 285.056 108.975C291.25 111.962 288.603 111 292.071 111.563Z" fill="white" fill-opacity="0.12"/>
<path d="M291.178 102.528C284.89 101.119 277.965 101.143 271.527 102.766C277.118 105.22 272.746 103.513 281.838 103.513C294.181 103.513 298.17 108.694 291.181 102.528H291.178Z" fill="white" fill-opacity="0.12"/>
<path d="M283.762 96.093C280.987 93.7223 281.632 93.0014 271.385 92.2134C260.67 91.3885 250.981 94.1448 252.338 94.6981C253.261 95.0736 254.288 95.4928 254.761 95.6872C264.13 92.8639 274.272 94.1884 283.762 96.093Z" fill="white" fill-opacity="0.12"/>
<path d="M268.858 83.7733C267.497 82.6869 253.839 82.8814 241.874 87.5925C237.214 89.4267 237.679 88.9539 240.952 90.1945C250.46 86.03 261.165 84.5378 271.217 85.6678C270.789 85.3225 270.943 85.4398 268.855 83.7733H268.858Z" fill="white" fill-opacity="0.12"/>
<path d="M258.379 75.6172C246.148 76.157 235.699 82.1826 224.372 84.2582C225.077 84.4962 225.407 84.6035 228.076 85.529C237.716 83.1852 246.535 78.7691 256.279 77.7732C261.802 77.2099 262.244 78.5478 258.379 75.6172Z" fill="white" fill-opacity="0.12"/>
<path d="M242.879 71.2128C251.705 69.2814 253.133 71.6621 249.039 68.708C245.522 66.1697 221.815 77.1109 213.424 79.0725C209.697 79.9443 208.947 79.2133 214.294 80.9335C224.323 78.5393 233.007 73.3755 242.879 71.2128Z" fill="white" fill-opacity="0.12"/>
<path d="M189.225 72.4184C185.9 72.4184 184.966 71.9523 187.538 72.7168C202.573 77.1899 219.97 64.049 238.447 61.2726C231.031 56.2161 209.412 72.4184 189.225 72.4184Z" fill="white" fill-opacity="0.12"/>
<path d="M223.341 51.416C202.318 52.0967 184.059 63.0916 163.947 65.7808C177.194 69.5664 201.748 52.8243 226.479 53.3944C226.277 53.2669 225.632 52.8478 223.341 51.416Z" fill="white" fill-opacity="0.12"/>
<path d="M117.504 51.8105C124.545 54.3991 123.803 54.2717 127.71 53.7151C144.619 51.3176 154.548 40.5977 178.341 35.0483C193.309 31.5577 194.253 34.0457 189.184 31.0547C152.59 35.7222 139.873 55.1032 117.504 51.8071V51.8105Z" fill="white" fill-opacity="0.12"/>
<path d="M98.7275 43.9559C103.613 46.2561 102.784 45.9208 104.048 45.8168C124.587 44.1604 140.462 31.7203 158.969 25.8926C175.001 20.8462 178.716 24.8867 172.271 21.0977C145.456 23.408 125.337 44.7103 98.7275 43.9525V43.9559Z" fill="white" fill-opacity="0.12"/>
<path d="M75.0312 21.4688C60.7311 23.3264 54.7322 17.6127 58.9089 20.5668C60.6037 21.7672 61.7585 22.5619 62.947 23.3734C81.7613 26.6695 107.418 12.6769 131.654 7.74113C147.413 4.5322 149.119 7.48964 143.307 4.07617C118.85 5.84326 95.2703 18.8433 75.0237 21.4688H75.0312Z" fill="white" fill-opacity="0.12"/>
<path d="M37.4177 4.16323C39.5811 5.8968 51.4591 9.11579 63.2246 9.11579C78.3195 9.11579 90.2987 4.26718 104.794 1.12866C94.4118 1.12866 97.0438 0.870473 92.3609 2.11783C70.9932 7.81478 54.6985 10.048 34.4595 1.12866C33.2147 1.12866 32.9522 0.588812 37.4177 4.16323Z" fill="white" fill-opacity="0.12"/>
<path d="M89.9045 96.5322C177.445 141.99 309.737 153.116 365.876 237.538C366.952 239.157 370.616 242.487 372.67 244.207C370.657 234.885 368.1 228.239 365.43 218.596C362.854 209.284 349.259 186.989 326.219 167.266C244.405 97.2498 131.106 109.19 27.0802 21.3688C0.444716 -1.12057 7.61725 1.12937 1.76074 1.12937C30.1884 29.0675 62.9728 53.8135 100.811 71.6219C182.248 109.951 291.886 120.809 347.774 192.743C357.654 205.458 365.306 219.702 369.292 234.899C345.622 196.626 310.251 165.818 269.626 145.655C187.545 104.918 118.576 123.81 22.3935 28.2259C-7.88637 -1.86496 0.0397849 1.12937 -5.82422 1.12937C-5.82422 1.17296 2.42813 10.6153 11.2729 19.9068C125.67 140.096 202.202 99.0706 299.303 165.442C327.123 184.458 350.673 208.852 367.432 236.015C329.541 179.877 255.465 154.491 190.59 133.326C103.054 104.764 55.9615 86.4628 -5.82422 15.2527V18.4952C21.3624 49.5517 51.616 76.6516 89.9045 96.5322Z" fill="white" fill-opacity="0.12"/>
<path d="M299.442 139.582C359.057 177.469 363.871 214.008 359.608 194.433C358.243 188.176 337.105 163.172 310.979 144.797C220.949 81.4629 108.697 84.8629 17.5688 1.12891H14.4531C103.092 83.743 209.731 82.566 299.442 139.582Z" fill="white" fill-opacity="0.12"/>
<path d="M104.7 258.247C107.25 260.551 108.491 261.607 109.151 262.173C101.281 250.085 104.276 249.023 97.5576 237.26C98.33 243.235 101.663 255.497 104.7 258.247Z" fill="white" fill-opacity="0.12"/>
<path d="M88.2213 242.172C94.1791 248.352 90.6397 246.085 89.3311 235.945C86.7516 215.957 90.6359 224.893 85.9492 215.639C84.8844 213.536 85.773 213.667 86.3166 225.4C86.5791 231.009 86.8303 236.673 88.2213 242.169V242.172Z" fill="white" fill-opacity="0.12"/>
<path d="M75.0127 193.008C77.1386 205.119 74.0154 217.526 76.7187 229.939C83.0063 236.739 78.2559 233.852 77.8285 219.846C77.0823 195.301 80.408 204.697 75.0164 193.008H75.0127Z" fill="white" fill-opacity="0.12"/>
<path d="M46.8993 164.267C53.2544 143.046 51.4847 143.139 49.1714 138.965C50.075 155.1 40.1279 170.769 40.1279 186.988C44.7659 192.843 39.1381 190.184 46.8955 164.267H46.8993Z" fill="white" fill-opacity="0.12"/>
<path d="M0.887142 147.707C-0.80757 145.407 0.0922761 145.443 -5.82422 144.615V146.624C1.48704 147.693 1.70825 148.817 0.887142 147.703V147.707Z" fill="white" fill-opacity="0.12"/>
<path d="M19.4881 80.1692C13.9878 68.7586 17.3472 74.7338 17.3697 83.5458C17.4109 100.6 9.08359 116.366 6.74398 133.611C5.48795 142.883 6.37655 142.266 8.59617 145.28C6.76273 123.673 21.134 102.471 19.4881 80.1692Z" fill="white" fill-opacity="0.12"/>
<path d="M10.797 64.5267C6.77023 58.2061 8.61117 59.8693 8.73865 69.0769C9.05735 92.4481 -0.143593 104.05 -2.56943 120.886C-3.90045 130.137 -2.7269 129.899 -0.293567 133.202C-4.05793 111.809 13.0092 96.6798 10.7933 64.5267H10.797Z" fill="white" fill-opacity="0.12"/>
<path d="M0.9512 59.6336C0.988693 58.2019 1.03744 50.9927 -0.034883 49.7051C-6.30757 42.1874 2.04976 48.4342 -3.03812 74.0085C-6.25133 90.1403 -5.8239 80.0675 -5.8239 94.6268C-2.90689 83.1625 0.643752 71.6579 0.9512 59.6336Z" fill="white" fill-opacity="0.12"/>
<path d="M97.932 300.167C102.589 313.462 99.6904 311.518 103.639 312.175C99.9829 295.295 92.1167 279.412 81.2961 266.002C68.7919 259.672 86.8676 268.578 97.932 300.167Z" fill="white" fill-opacity="0.12"/>
<path d="M89.8042 262.222C102.23 264.123 106.29 269.378 98.8964 262.725C96.9017 260.931 87.9407 259.852 84.8438 259.697C86.6509 260.603 88.9118 261.759 89.8042 262.222Z" fill="white" fill-opacity="0.12"/>
<path d="M81.5925 295.818C85.6456 310.488 82.2374 308.616 86.4329 309.314C83.2347 279.615 64.4204 258.028 62.1521 257.049C48.3807 251.104 71.8217 260.446 81.5925 295.818Z" fill="white" fill-opacity="0.12"/>
<path d="M60.5064 248.462C60.3827 248.475 60.1427 248.318 64.0271 250.001C70.506 248.982 77.0336 247.231 83.3775 248.609C84.5886 248.874 84.9223 249.488 81.8253 246.306C74.5328 245.37 67.6077 247.704 60.5064 248.458V248.462Z" fill="white" fill-opacity="0.12"/>
<path d="M60.9526 305.057C61.0276 305.071 63.1197 305.42 63.2585 305.443C60.7014 284.587 52.494 264.86 39.9524 247.997C38.9326 247.605 37.804 247.176 36.7767 246.787C34.0884 245.771 56.0784 266.899 60.9526 305.054V305.057Z" fill="white" fill-opacity="0.12"/>
<path d="M68.2748 292.502C72.3204 308.741 68.2973 306.29 72.7928 307.041C71.4393 285.984 62.1746 266.368 47.9645 251.141C40.6645 248.214 42.5092 248.144 48.0207 254.371C57.5516 265.141 64.7279 278.255 68.2748 292.502Z" fill="white" fill-opacity="0.12"/>
<path d="M44.7406 242.131C46.754 242.905 59.0182 236.172 69.6514 237.01C74.1806 237.369 74.8255 239.019 71.2748 235.173C60.9154 233.754 51.7669 238.66 42.5247 240.987C41.8836 241.148 41.4899 240.876 44.7443 242.131H44.7406Z" fill="white" fill-opacity="0.12"/>
<path d="M21.4307 233.705C22.7542 234.154 24.0365 234.597 25.3375 235.046C29.2218 236.394 45.9515 227.579 54.4063 225.396C62.2687 223.367 62.6474 225.661 59.8166 222.432C46.0265 223.622 34.6247 233.47 21.4307 233.701V233.705Z" fill="white" fill-opacity="0.12"/>
<path d="M65.8867 194.863C61.8149 216.091 64.6082 216.467 66.6928 218.831C68.2301 220.571 64.9644 216.427 66.6141 203.759C67.5627 196.476 69.5911 189.424 70.0185 181.99C66.0217 173.064 69.5349 175.864 65.8867 194.863Z" fill="white" fill-opacity="0.12"/>
<path d="M0.25 226.83C4.26182 228.071 1.97096 229.154 20.3091 220.137C47.4432 206.792 54.2483 216.063 49.5804 210.52C30.9723 208.995 16.0648 221.757 0.25 226.83Z" fill="white" fill-opacity="0.12"/>
<path d="M21.7373 298.4C21.8348 298.416 23.852 298.765 23.9532 298.782C25.9816 275.897 18.3029 253.163 4.07033 235.465C3.35795 235.24 2.12066 234.851 0.924613 234.479C-2.87349 233.302 25.3667 256.023 21.7373 298.396V298.4Z" fill="white" fill-opacity="0.12"/>
<path d="M55.0773 182.124C51.4254 204.509 53.3076 203.222 55.1185 205.378C56.6033 207.145 53.8438 205.022 56.4983 187.415C60.8963 158.253 60.4014 160.379 55.0323 149.877C54.4474 151.527 59.5765 154.548 55.0773 182.124Z" fill="white" fill-opacity="0.12"/>
<path d="M7.91742 215.507C44.7812 197.226 47.5519 208.164 42.599 202.125C25.4082 203.03 10.1333 212.439 -3.60437 218.844C-6.40514 220.148 -5.82774 219.36 -5.82774 222.093C-1.19728 220.061 3.3282 217.787 7.91742 215.507Z" fill="white" fill-opacity="0.12"/>
<path d="M34.7295 145.702C41.6696 120.111 39.1575 120.433 36.7767 115.832C38.7413 134.76 27.5682 152.75 28.0932 171.484C32.9823 177.905 26.9608 174.341 34.7295 145.705V145.702Z" fill="white" fill-opacity="0.12"/>
<path d="M24.3324 179.035C14.4078 180.044 5.16566 184.34 -3.13542 189.386C-6.36737 191.351 -5.82747 190.499 -5.82747 193.551C22.4315 175.055 28.5729 184.564 24.3324 179.035Z" fill="white" fill-opacity="0.12"/>
<path d="M17.5343 170.09C9.17698 171.381 1.52828 174.332 -5.82422 178.053V180.381C18.093 167.961 21.1487 174.885 17.5343 170.09Z" fill="white" fill-opacity="0.12"/>
<path d="M29.3907 101.174C26.0575 94.3667 27.1598 95.2117 27.1485 100.842C27.1036 123.918 17.3927 135.261 16.2117 152.436C15.9717 155.937 15.7505 155.011 18.5363 158.767C16.6691 140.006 29.2369 127.123 29.3907 101.174Z" fill="white" fill-opacity="0.12"/>
<path d="M12.3264 163.149C11.5503 162.106 0.470962 164.175 -5.82422 166.113V168.242C13.5825 162.096 15.3409 167.189 12.3264 163.149Z" fill="white" fill-opacity="0.12"/>
<path d="M6.69161 155.568C6.60912 155.454 5.78801 154.344 5.46182 153.905C4.76818 152.966 -4.444 154.498 -5.82376 154.763C-5.82376 159.048 -7.18478 155.383 6.69536 155.568H6.69161Z" fill="white" fill-opacity="0.12"/>
<path d="M172.219 325.335C171.84 324.449 169.887 320.332 169.339 319.99C161.878 315.332 165.087 316.419 168.619 322.917C169.793 325.076 168.709 324.483 172.219 325.335Z" fill="white" fill-opacity="0.12"/>
<path d="M155.53 321.566C157.127 321.901 156.141 321.693 158.109 322.116C157.277 319.886 153.569 310.075 151.42 308.706C143.127 303.422 149.249 305.038 155.53 321.569V321.566Z" fill="white" fill-opacity="0.12"/>
<path d="M146.659 319.766C146.88 319.81 148.148 320.064 149.22 320.276C146.937 313.942 140.214 301.498 135.689 298.514C117.504 286.516 138.133 297.384 146.659 319.766Z" fill="white" fill-opacity="0.12"/>
<path d="M133.383 357.514C135.276 356.77 145.328 343.636 148.654 327.376C148.23 327.289 147.825 327.205 146.828 327.001C145.666 326.763 145.092 342.412 129.765 358.916C130.556 358.614 132.093 358.02 133.383 357.514Z" fill="white" fill-opacity="0.12"/>
<path d="M133.423 317.279C133.956 317.376 135.842 317.718 135.879 317.725C132.974 307.608 128.077 297.673 121.144 289.012C104.58 278.433 124.744 288.402 133.423 317.279Z" fill="white" fill-opacity="0.12"/>
<path d="M118.528 314.671C119.173 314.781 120.901 315.076 120.939 315.083C115.416 293.194 99.9874 276.09 95.6082 273.635C73.2207 261.085 108.596 277.263 118.524 314.671H118.528Z" fill="white" fill-opacity="0.12"/>
<path d="M51.2605 303.426C51.6617 303.493 52.7527 303.677 53.1952 303.751C54.0463 303.895 50.1432 273.06 27.7145 243.442C27.677 243.429 25.5174 242.657 24.5838 242.325C21.8655 241.363 44.8341 263.252 51.2605 303.426Z" fill="white" fill-opacity="0.12"/>
<path d="M34.4636 286.875C36.7507 302.48 33.6762 300.448 37.748 301.139C37.7592 282.485 32.4389 263.852 22.3869 247.321C17.1003 238.627 17.2165 239.763 13.7783 238.613C24.9214 253.112 31.9665 269.831 34.4636 286.871V286.875Z" fill="white" fill-opacity="0.12"/>
<path d="M9.21883 296.23C9.35755 296.253 10.9773 296.538 11.0973 296.558C11.0148 277.697 5.13577 258.853 -5.82362 242.365C-5.82362 247.72 -6.26604 245.437 -3.63024 250.144C11.0223 276.326 7.87281 295.995 9.21883 296.23Z" fill="white" fill-opacity="0.12"/>
<path d="M168.814 343.261C170.707 342.524 174.521 333.209 173.546 332.971C172.762 332.779 172.275 332.662 171.735 332.531C168.859 344.371 161.259 346.205 168.814 343.261Z" fill="white" fill-opacity="0.12"/>
<path d="M150.36 350.561C152.699 349.612 159.013 338.527 161.383 330.131C160.524 329.936 159.677 329.748 159.197 329.645C153.202 350.732 140.461 354.568 150.36 350.561Z" fill="white" fill-opacity="0.12"/>
<path d="M110.042 365.756C114.103 364.485 133.446 348.595 138.301 325.317C137.593 325.183 136.903 325.056 136.1 324.908C128.159 362.631 89.181 372.291 110.042 365.756Z" fill="white" fill-opacity="0.12"/>
<path d="M89.7021 371.444C93.0278 370.626 104.718 360.53 111.988 349.475C119.945 337.367 123.488 322.771 122.273 322.569C121.973 322.519 120.668 322.304 120.439 322.268C117.56 340.009 106.908 356.506 91.5993 367.967C84.2768 373.45 81.1536 373.554 89.7021 371.444Z" fill="white" fill-opacity="0.12"/>
<path d="M65.8673 376.414C68.3382 375.992 98.0931 355.83 112.446 320.947C112.307 320.924 110.845 320.682 110.578 320.639C109.27 320.424 105.048 338.102 84.4342 358.824C65.4624 377.903 55.2454 378.235 65.8636 376.414H65.8673Z" fill="white" fill-opacity="0.12"/>
<path d="M49.3669 378.827C51.9052 378.525 84.1422 356.164 90.8236 317.807C90.9173 317.277 91.2923 317.458 88.6865 317.029C85.2558 337.312 73.7528 357.092 55.8345 371.836C45.4076 380.417 42.6218 379.632 49.3669 378.831V378.827Z" fill="white" fill-opacity="0.12"/>
<path d="M42.5284 360.033C16.6953 380.829 -5.26848 377.788 9.68398 379.417C42.6596 369.834 67.9003 343.77 74.5555 314.702C69.8163 313.921 74.6979 313.693 66.8318 329.939C61.4177 341.114 53.1916 351.452 42.5321 360.036L42.5284 360.033Z" fill="white" fill-opacity="0.12"/>
<path d="M63.4643 312.871C63.4268 312.864 61.2147 312.499 61.1734 312.492C48.7368 335.649 27.6279 354.5 2.4059 365.968C-7.3237 370.39 -5.82395 368.322 -5.82395 371.554C24.5684 360.331 49.7154 338.885 63.4643 312.871Z" fill="white" fill-opacity="0.12"/>
<path d="M53.6334 311.248C53.5359 311.232 51.9874 310.977 51.71 310.93C50.109 310.665 41.448 334.11 8.34486 353.333C-7.7999 362.709 -5.82399 358.481 -5.82399 362.665C20.4853 351.66 41.5267 332.977 53.6334 311.248Z" fill="white" fill-opacity="0.12"/>
<path d="M42.0327 309.33C41.834 309.296 39.7044 308.944 39.6706 308.938C32.4043 319.852 23.2784 329.184 12.8252 337.03C-7.10644 351.985 -5.82416 345.641 -5.82416 350.962C14.7336 340.658 31.1408 325.955 42.0327 309.33Z" fill="white" fill-opacity="0.12"/>
<path d="M30.2155 307.369C29.8593 307.309 28.6145 307.104 28.2246 307.037C26.9648 306.829 18.4162 322.777 -5.82715 337.852V340.287C8.44667 331.616 20.8383 320.466 30.2155 307.366V307.369Z" fill="white" fill-opacity="0.12"/>
<path d="M16.4591 305.078C15.1355 304.856 15.8442 304.974 14.052 304.672C8.40168 312.076 1.83655 318.668 -5.82715 324.667V327.315C2.53018 320.985 10.0364 313.645 16.4553 305.078H16.4591Z" fill="white" fill-opacity="0.12"/>
<path d="M8.21737 303.67C3.29821 302.819 8.16863 302.574 -5.49779 312.137C-5.93647 312.442 -5.82399 311.956 -5.82399 314.88C-0.736104 311.456 3.97684 307.691 8.21737 303.67Z" fill="white" fill-opacity="0.12"/>
<path d="M-1.63965 208.577C33.5181 185.374 37.1475 195.437 33.3157 190.585C32.5395 189.602 21.1115 192.311 8.57736 199.625C3.66195 202.492 -1.03975 205.697 -5.82769 208.836C-5.82769 212.035 -6.76878 211.961 -1.63965 208.577Z" fill="white" fill-opacity="0.12"/>
<path d="M259.451 616.818C241.69 593.142 221.695 570.079 198.899 547.707C155.361 504.971 86.5456 454.252 86.5081 454.235C73.7115 448.713 72.5454 445.675 114.85 478.535C244.851 579.528 248.721 617.257 259.451 616.818Z" fill="white" fill-opacity="0.12"/>
<path d="M116.593 519.636C110.174 514.522 112.461 515.481 115.449 522.459C122.779 539.584 119.588 552.158 122.254 567.813C124.05 578.362 125.321 577.494 127.916 578.724C119.525 561.325 127.335 542.41 116.593 519.632V519.636Z" fill="white" fill-opacity="0.12"/>
<path d="M107.347 515.642C106.02 511.102 105.87 511.477 105.394 511.132C98.6002 506.223 105.761 508.728 107.756 530.872C108.93 543.902 107.977 559.383 114.07 572.641C119.458 574.891 116.578 575.136 113.774 565.456C109.068 549.22 112.203 532.246 107.347 515.642Z" fill="white" fill-opacity="0.12"/>
<path d="M93.5153 521.44C95.12 535.969 94.0814 552.04 99.5367 566.482C104.677 568.715 101.535 569.004 98.9706 556.302C95.3525 538.38 98.3032 519.126 91.1569 501.502C83.9694 496.969 91.0557 499.192 93.5153 521.436V521.44Z" fill="white" fill-opacity="0.12"/>
<path d="M77.3745 493.392C71.0981 489.962 74.0901 490.676 77.5882 498.754C87.8877 522.518 81.3563 558.406 90.1823 562.356C83.8646 539.927 89.3912 514.879 77.3745 493.392Z" fill="white" fill-opacity="0.12"/>
<path d="M59.025 475.921C58.7776 475.662 58.4176 475.525 58.0127 475.612C59.5874 476.336 59.4337 476.343 59.025 475.921Z" fill="white" fill-opacity="0.12"/>
<path d="M69.1071 491.485C67.6336 487.965 68.241 488.625 64.9603 487.056C62.0583 485.671 71.0118 490.835 72.9802 522.595C73.0627 523.913 74.3188 555.08 76.4222 556.063C80.6214 558.025 77.112 560.258 75.6273 530.016C74.9899 517.009 74.27 503.818 69.1109 491.485H69.1071Z" fill="white" fill-opacity="0.12"/>
<path d="M43.1388 469.167C42.9363 469 42.6964 468.899 42.4414 468.879C42.6739 468.976 42.9063 469.073 43.1388 469.167Z" fill="white" fill-opacity="0.12"/>
<path d="M50.3346 480.335C43.0383 477.103 50.0909 477.381 54.6351 502.141C57.5371 517.957 57.8333 535.487 65.3433 550.801C71.7359 553.883 67.4504 553.748 63.2211 538.931C57.7208 519.654 59.2318 498.888 50.3346 480.335Z" fill="white" fill-opacity="0.12"/>
<path d="M49.7378 533.242C50.0977 534.798 52.6211 544.572 54.1246 545.32C60.9184 548.693 52.9623 548.368 49.4416 517.312C47.8669 503.433 47.0383 488.793 40.1469 475.917C34.3467 473.443 37.3312 473.429 40.9643 483.066C47.057 499.238 45.8422 516.48 49.7416 533.246L49.7378 533.242Z" fill="white" fill-opacity="0.12"/>
<path d="M40.1619 538.342C44.5224 540.508 42.0104 540.968 40.6868 526.734C39.2058 510.793 40.5669 493.306 33.2256 477.6C30.0087 470.723 29.63 471.481 26.0381 469.992C41.1968 489.299 35.3215 516.269 40.1657 538.342H40.1619Z" fill="white" fill-opacity="0.12"/>
<path d="M13.1704 464.774C6.37651 462.102 10.3771 462.524 14.2502 471.249C21.1527 486.791 17.962 503.694 20.7478 520.215C22.6037 531.23 23.7548 530.294 26.3419 531.548C17.1559 510.762 26.7355 484.987 13.1666 464.774H13.1704Z" fill="white" fill-opacity="0.12"/>
<path d="M5.20644 478.898C9.31949 493.775 7.84599 509.173 11.3666 524.403C15.7234 526.441 13.3163 527.223 11.7303 512.751C10.0731 497.655 10.6768 480.889 2.45066 466.075C1.71204 464.744 -1.5874 459.198 -3.31961 458.581C-11.0545 455.818 -0.0914063 459.728 5.20644 478.898Z" fill="white" fill-opacity="0.12"/>
<path d="M-3.10564 506.582C-0.136146 520.806 0.696212 519.481 3.45574 520.742C-2.33327 506.941 -2.70446 491.674 -5.82018 477.406C-5.82018 487.771 -6.41258 490.742 -3.10189 506.582H-3.10564Z" fill="white" fill-opacity="0.12"/>
<path d="M216.667 614.659C217.788 615.993 218.71 617.231 220.525 617.821C180.729 529.03 95.4273 465.619 -5.82422 444.961V447.026C95.8473 467.92 177.76 531.227 216.667 614.659Z" fill="white" fill-opacity="0.12"/>
<path d="M225.94 618.022C226.161 618.012 226.243 618.005 227.837 617.941C228.988 617.894 222.565 596.263 209.472 575.511C177.074 524.151 121.966 491.304 68.6088 459.718C28.5431 436.001 32.7236 437.691 31.4976 437.741C27.0509 437.926 20.2495 433.342 78.3384 467.896C142.752 506.209 208.186 550.252 225.943 618.018L225.94 618.022Z" fill="white" fill-opacity="0.12"/>
<path d="M272.716 566.717C274.419 567.37 284.677 562.824 287.035 561.657C309.475 550.558 324.263 531.499 342.807 517.292C360.478 503.755 366.777 508.325 359.192 505.633C330.123 515.628 308.796 556.848 269.998 565.657C270.081 565.69 271.715 566.334 272.716 566.717Z" fill="white" fill-opacity="0.12"/>
<path d="M463.679 507.475C436.046 452.323 358.487 417.488 356.931 354.443C356.841 350.757 357.636 351.364 354.685 351.415C353.901 392.5 388.246 425.291 414.382 450.754C449.139 484.611 444.621 483.957 463.679 507.475Z" fill="white" fill-opacity="0.12"/>
<path d="M316.277 369.684C307.297 357.871 309.307 352.08 307.942 352.053C307.904 352.053 306.33 352.026 306.063 352.02C308.159 369.251 324.998 382.62 339.133 394.276C384.223 431.535 369.053 419.766 384.879 429.342C332.541 386.094 324.293 380.229 316.277 369.684Z" fill="white" fill-opacity="0.12"/>
<path d="M231.863 344.237C230.483 343.928 228.174 343.385 226.273 342.902C222.91 342.051 202.835 345.24 181.284 352.311C144.653 364.329 90.5608 392.103 22.5174 392.103C-8.97353 392.103 -5.82781 387.928 -5.82781 392.358C98.7569 405.455 165.571 346.561 231.863 344.237Z" fill="white" fill-opacity="0.12"/>
<path d="M255.826 341.138C255.275 341.379 255.009 341.262 257.344 341.574C257.048 341.104 256.415 340.88 255.826 341.138Z" fill="white" fill-opacity="0.12"/>
<path d="M247.086 347.127C245.822 346.926 244.998 346.792 243.299 346.5C172.552 376.058 97.2464 395.295 21.1906 403.728C-9.89537 407.175 -5.82356 404.522 -5.82356 407.939C26.4472 406.678 132.884 395.392 247.09 347.127H247.086Z" fill="white" fill-opacity="0.12"/>
<path d="M297.199 326.25C336.377 303.878 341.427 310.712 334.926 307.225C307 313.421 285.524 335.294 257.88 341.641C263.238 342.349 264.936 344.672 297.203 326.247L297.199 326.25Z" fill="white" fill-opacity="0.12"/>
<path d="M267.819 349.739C267.617 349.719 265.007 349.454 263.751 349.32C177.107 388.119 80.6736 412.335 -5.82422 421.634V423.635C86.7325 413.402 182.206 388.528 267.819 349.739Z" fill="white" fill-opacity="0.12"/>
<path d="M164.461 402.339C179.233 399.703 161.308 402.185 212.813 384.544C235.301 376.842 258.814 367.842 273.549 350.275C273.162 350.242 273.241 350.255 270.92 350.037C245.346 379.266 198.164 382.173 164.461 402.339Z" fill="white" fill-opacity="0.12"/>
<path d="M246.036 402.899C245.999 402.899 243.768 402.893 243.13 402.893C240.3 402.893 278.933 424.44 286.368 473.194C286.653 473.285 288.704 473.935 288.745 473.948C284.868 446.6 269.312 420.825 246.04 402.899H246.036Z" fill="white" fill-opacity="0.12"/>
<path d="M237.379 395.713C240.506 395.666 239.497 395.964 240.329 394.63C244.859 387.364 269.428 376.671 275.96 362.862C276.485 361.756 275.956 362.209 275.993 366.839C276.057 374.562 278.029 382.257 277.872 389.946C277.711 397.815 275.66 396.602 279.282 396.877C282.825 381.794 273.133 364.006 282.345 350.956C280.594 350.835 281.07 350.868 279.837 350.778C276.612 355.895 278.843 355.771 277.444 350.597C276.087 350.49 276.905 350.557 275.056 350.402C281.726 370.769 241.278 384.611 237.375 395.716L237.379 395.713Z" fill="white" fill-opacity="0.12"/>
<path d="M360.275 321.978C336.219 321.978 317.236 339.817 294.894 344.578C306.944 345.027 300.713 345.38 332.447 331.156C356.372 320.432 367.001 325.321 364.587 323.863C361.081 321.747 361.79 321.978 360.271 321.978H360.275Z" fill="white" fill-opacity="0.12"/>
<path d="M301.676 381.319C291.497 371.394 290.068 364.225 286.761 351.238C285.419 351.158 284.546 351.104 283.035 351C281.242 365.764 288.527 385.785 296.765 398.668C302.351 399.409 298.834 401.012 291.756 384.364C287.811 375.085 284.561 363.571 285.052 353.662C286.743 360.402 288.362 366.843 291.962 372.805C301.099 387.945 329.733 405.431 337.22 407.866C372.382 419.306 329.212 408.157 301.684 381.316L301.676 381.319Z" fill="white" fill-opacity="0.12"/>
<path d="M307.068 407.487C300.011 406.173 303.843 405.331 313.584 418.304C330.576 440.931 332.357 461.462 330.587 487.949C330.805 488.026 332.432 488.596 332.785 488.716C334.794 459.061 331.993 432.719 307.064 407.487H307.068Z" fill="white" fill-opacity="0.12"/>
<path d="M276.443 403.775C274.546 403.661 273.526 403.61 272.255 403.553C269.548 403.426 307.93 429.178 309.456 480.715C309.494 480.729 310.911 481.201 311.334 481.346C312.227 481.647 312.793 438.208 275.266 403.882C275.656 404.063 276.09 404.049 276.439 403.778L276.443 403.775Z" fill="white" fill-opacity="0.12"/>
</g>
<defs>
<clipPath id="clip0_263_20573">
<rect width="865" height="724.666" fill="white" transform="translate(-6 0.988281)"/>
</clipPath>
</defs>
</svg>
