<svg width="1162" height="854" viewBox="0 0 1162 854" fill="none" xmlns="http://www.w3.org/2000/svg">
<path d="M462.815 851.712C459.971 850.711 448.049 847.931 436.125 845.519C291.066 817.175 158.814 749.766 77.5361 662.695C27.5328 609.093 -2.99699 550.591 -16.8645 482.259C-20.293 465.913 -20.7619 458.055 -20.4913 425.778C-20.2795 379.265 -17.2811 361.857 -1.94221 318.513C5.72515 297.087 6.67001 290.711 4.46779 276.95C3.45479 270.193 1.90182 264.046 1.01666 263.304C0.130467 262.684 -0.572315 261.452 -0.564082 260.47C-0.556878 259.611 -6.37695 252.086 -13.4387 243.815C-20.6788 235.543 -29.8561 224.436 -33.913 219.254C-37.969 213.949 -41.6766 209.629 -41.8548 209.628C-42.2114 209.625 -41.3509 213.313 -39.9639 217.986C-35.98 231.881 -35.42 271.405 -38.9728 291.141C-46.269 332.084 -59.3667 363.292 -103.372 444.858C-134.884 503.435 -148.519 534.885 -157.364 569.191C-161.423 585.61 -161.617 587.449 -159.155 591.516C-157.223 594.965 -157.054 596.071 -158.844 596.918C-161.707 598.126 -162.42 598.121 -165.083 596.876C-168.814 595.256 -176.195 582.565 -176.157 578.024C-176.136 575.569 -178.582 569.539 -181.392 564.488C-194.223 542.679 -205.187 510.818 -209.229 482.562C-212.443 461.922 -210.105 416.895 -205.134 398.151C-195.379 361.642 -180.343 333.147 -142.635 279.767C-117.377 244.099 -105.076 222.826 -96.1443 199.444C-90.8623 186.102 -90.6707 184.508 -91.6086 168.792C-93.303 136.993 -99.7674 100.008 -104.863 91.1368C-110.84 81.0326 -116.78 66.6332 -115.692 64.4313C-115.147 63.2076 -117.035 54.481 -119.987 45.1336C-125.549 28.0366 -127.252 18.5748 -127.513 7.15907C-127.651 2.37162 -126.927 1.02645 -124.606 0.673842C-122.465 0.442765 -121.048 1.55687 -119.824 4.38791C-118.951 6.60294 -118.067 7.468 -118.058 6.36348C-117.853 3.17384 -112.687 3.69947 -110.755 7.14893C-109.877 8.75034 -106.403 19.6968 -102.936 31.3795C-90.4472 72.8239 -58.7879 145.448 -50.2856 152.01C-46.2111 155.106 -31.6364 160.358 -22.9125 161.767C-16.6814 162.791 -9.19206 162.595 9.18499 160.878C124.084 150.359 193.105 147.14 243.712 150.058C322.83 154.517 379.05 168.272 443.33 198.896C482.75 217.693 504.384 231.584 602.572 300.483C700.76 369.381 718.85 380.671 766.442 402.96C792.546 415.163 827.917 427.919 852.824 434.1C861.72 436.246 879.341 439.678 891.982 441.604C911.211 444.556 915.303 445.566 915.822 447.533C916.168 448.763 917.225 450.242 918.113 450.617C920.777 451.862 918.084 454.176 914.162 454.149C912.201 454.136 903.633 455.429 895.061 457.089C821.849 471.202 728.669 464.072 657.036 438.676C623.085 426.788 600.887 416.33 548.356 387.871C507.006 365.379 489.786 356.672 466.691 346.944C412.687 323.999 361.994 310.158 240.616 285.287C126.359 261.814 88.9986 252.481 36.74 233.966C16.1206 226.709 -7.68496 216.73 -18.3317 210.767C-22.0588 208.779 -25.077 207.286 -25.0801 207.654C-25.0955 209.495 -14.524 224.416 -5.69909 235.03C3.47822 246.138 10.7121 255.146 20.5891 267.854C22.5295 270.321 26.4236 273.661 29.0842 275.275C37.5989 280.364 56.1843 296.321 65.9036 306.573C72.6171 313.859 84.3077 322.897 109.479 340.126C162.658 376.443 199.197 398.658 247.301 423.527C262.745 431.486 278.01 439.443 281.383 441.184C297.534 449.761 338.568 467.465 349.24 470.359C355.643 472.243 364.544 473.776 368.822 473.804C380.588 473.883 408.021 476.522 410.15 477.641C411.215 478.262 418.873 479.173 427.248 479.72C528.279 485.922 615.135 503.074 709.35 535.617C753.612 551.01 778.664 561.242 826.611 583.656C861.062 599.72 911.476 625.587 933.298 638.252C936.314 639.991 943.589 644.09 949.267 647.319C955.124 650.426 961.688 654.275 964.172 655.765C972.507 660.975 996.467 673.778 1009.96 680.373C1017.6 683.984 1025.76 688.334 1028.42 689.947C1035.69 694.537 1073.36 709.764 1089.36 714.658C1107.68 720.304 1130.99 725.247 1144.53 726.32C1159.85 727.527 1161.45 728.029 1161.43 731.342C1161.39 735.392 1154.06 738.534 1147.29 737.629C1144.62 737.243 1141.41 737.467 1140.33 738.196C1139.08 739.047 1134.62 738.526 1125.37 736.132C1108.12 731.843 1088 728.272 1065.2 725.664C1050.6 724.093 1024.76 723.183 947.572 721.928C893.205 720.949 846.683 719.9 844.191 719.515C841.698 719.13 829.41 717.575 816.586 716.139C741.784 707.168 664.043 687.377 563.97 651.849C478.118 621.325 441.891 604.391 413.912 581.865C399.746 570.356 389.501 558.996 367.992 530.255C346.482 501.637 327.392 482.117 320.796 482.073C319.37 482.063 318.661 481.568 319.201 480.958C320.64 479.372 304.68 469.323 289.761 462.596C282.658 459.234 274.846 455.377 272.362 453.888C269.878 452.521 257.633 445.811 244.852 439.22C200.657 415.85 147.98 383.463 113.958 358.688C99.606 348.16 98.7178 347.786 101.354 352.344C102.935 355.055 108.03 364.049 112.775 372.181C117.341 380.435 127.349 398.789 134.541 412.828C174.016 488.819 189.707 509.789 243.856 558.018C306.145 613.42 318.309 629.825 353.145 706.275C373.452 750.84 388.221 775.363 407.296 796.724C422.662 814.009 447.997 832.957 468.064 842.297C478.186 847.029 479.771 849.371 474.578 852.036C470.461 854.095 468.856 854.085 462.815 851.712ZM436.757 833.864C436.764 833.127 434.281 831.515 431.438 830.391C395.723 816.283 360.947 796.412 333.143 774.256C279.837 731.802 247.369 691.818 172.392 576.193C91.2543 451.198 52.8166 379.019 24.9565 299.793C16.2541 274.575 15.1803 275.058 19.5858 302.457C37.0531 409.228 73.5043 505.694 127.198 586.935C186.35 676.313 274.478 754.348 376.363 807.562C387.546 813.405 397.129 818.624 397.303 819.116C397.656 819.61 398.721 820.108 399.434 820.112C400.326 820.118 408.498 823.487 417.556 827.598C434.606 835.322 436.74 835.95 436.757 833.864ZM404.708 828.985C315.04 785.794 252.476 741.927 188.127 676.938C152.419 640.738 110.473 583.018 83.0888 532.023C57.1096 483.615 34.6214 422.835 20.1594 361.617C17.2297 349.57 14.639 339.611 14.2845 339.364C13.9301 339.116 11.5673 344.5 8.8346 351.477C-20.6911 428.354 3.90253 514.431 82.1004 607.374C115.992 647.612 171.505 703.214 211.338 736.619C248.159 767.672 295.7 796.097 335.865 811.094C353.46 817.594 383.87 826.513 398.466 829.311C409.857 831.474 410.036 831.475 404.708 828.985ZM405.957 807.638C382.799 784.163 366.613 758.526 344.379 709.898C314.091 643.788 303.711 627.395 273.305 596.63C266.057 589.218 256.329 580.07 251.726 576.235C239.512 565.843 209.258 538.148 200.95 529.747C175.143 503.309 156.129 474.707 129.998 423.107C115.793 395.029 100.169 366.082 99.2723 366.69C98.1966 367.419 101.482 400.824 103.552 409.061C108.882 432.539 120.628 456.182 141.247 484.794C157.987 508.226 173.886 525.637 234.699 587.043C253.967 606.564 257.855 610.641 273.924 629.036C294.938 653.109 309.018 674.805 329.89 715.692C351.988 759.287 361.67 773.957 380.237 792.123C389.432 801.145 413.349 818.979 416.38 818.999C416.915 819.003 412.145 813.816 405.957 807.638ZM394.894 808.791C384.441 800.988 381.609 798.515 373.124 789.867C357.037 773.681 345.245 755.437 324.194 714.672C297.18 662.084 280.604 640.372 225.439 585.754C141.456 502.346 115.173 468.909 100.023 425.974C95.1459 412.318 93.0931 401.995 91.1402 379.768C88.3834 347.103 84.1626 340.201 51.0497 313.346C33.874 299.362 34.2285 299.61 35.6124 304.651C37.8661 312.276 52.1867 347.841 61.1096 368.029C87.0127 425.519 134.81 508.315 202.394 612.6C263.643 707.024 296.134 744.307 352.496 783.714C374.472 799.203 395.756 812.356 399.319 812.625C399.853 812.751 397.729 810.896 394.894 808.791ZM265.698 780.922C234.479 762.057 195.512 731.726 162.969 700.702C136.441 675.241 97.9047 636.076 89.7888 625.958C88.7305 624.6 81.6687 616.33 74.2555 607.444C39.6567 566.464 15.9177 527.276 2.15358 489.137C-2.37435 476.343 -8.58309 451.386 -9.7507 441.806C-10.2484 437.384 -10.4308 437.874 -10.6626 444.254C-10.8779 448.671 -9.90302 459.969 -8.55611 469.428C8.46819 586.505 90.8518 690.521 223.421 762.596C241.523 772.414 274.904 788.593 277.221 788.609C277.934 788.613 272.794 785.142 265.698 780.922ZM992.202 714.741L1016.27 714.78L1004.7 712.371C998.295 710.977 980.677 707.177 965.55 704.007C932.269 697.156 829.784 672.903 763.602 656.504C636.222 624.719 549.454 597.013 475.92 564.486C430.804 544.546 396.372 526.273 365.523 505.815C349.213 494.905 346.369 493.904 354.326 501.69C358.041 505.151 368.982 518.48 378.859 531.187C400.024 558.453 410.273 569.322 426.926 581.83C451.376 600.036 484.586 615.355 554.793 640.741C642.418 672.381 705.202 690.108 769.463 701.708C826.426 712.032 867.936 715.379 932.477 714.954C952.088 714.84 979.009 714.775 992.202 714.741ZM1047.31 712.78C1043.04 711.033 892.578 668.17 863.405 660.488C854.689 658.097 845.796 655.583 843.841 654.956C841.885 654.329 825.878 649.803 808.269 644.899C790.661 639.994 774.654 635.468 772.698 634.841C770.742 634.214 762.383 631.826 754.025 629.316C629.356 593.131 588.46 580.215 513.981 554.064C461.01 535.421 425.646 521.929 387.805 506.088C370.75 498.977 356.006 492.742 354.939 492.366C354.051 491.992 355.464 493.597 358.475 495.949C365.735 501.766 387.198 514.797 410.089 527.47C420.737 533.31 430.32 538.529 431.563 539.151C439.19 543.743 485.547 564.428 507.581 573.167C591.446 606.745 661.339 627.097 834.816 668.151C921.466 688.615 974.139 700.26 1020.77 708.919C1048.36 714.137 1051.75 714.65 1047.31 712.78ZM987.093 686.11C987.104 684.883 951.56 671.512 939.109 668.115C858.893 645.73 749.558 609.28 666.216 577.056C650.579 570.937 633.341 564.316 628.009 562.317C622.679 560.195 611.839 556.072 604.019 553.073C579.141 543.456 544.117 531.929 524.016 526.64C504.982 521.603 495.017 519.449 443.941 508.674C411.551 501.951 388.604 495.906 369.05 489.147C333.142 476.756 357.118 487.594 424.819 514.191C457.87 527.177 535.724 554.824 568.263 565.106C578.042 568.24 590.489 572.129 595.822 573.883C616.448 580.403 634.942 586.05 659.838 593.459C674.065 597.727 689.181 602.247 693.626 603.627C719.411 611.41 799.624 634.163 890.157 659.195C902.964 662.717 929.642 670.26 949.739 676.041C969.837 681.699 986.377 686.474 986.734 686.476C986.911 686.6 987.091 686.356 987.093 686.11ZM972.955 671.288C972.957 671.042 965.152 666.449 955.748 661.108C946.166 655.766 931.971 647.693 924.165 643.1C916.359 638.629 897.192 628.191 881.572 619.986C734.073 542.533 606.582 502.648 461.225 488.539C427.201 485.242 427.195 485.979 461.2 491.485C508.557 499.289 556.595 510.903 606.382 526.457C634.298 535.235 682.471 552.005 697.217 558.118C702.369 560.239 706.989 561.988 707.346 561.991C707.703 561.993 722.272 567.859 739.684 574.972C769.889 587.203 785.876 594.06 825.664 611.51C857.102 625.467 959.253 668.25 964.765 670.005C970.455 671.762 972.948 672.147 972.955 671.288ZM892.764 645.957C723.145 570.074 640.333 538.344 550.858 514.67C499.094 500.944 440.707 490.488 393.319 486.365C359.471 483.437 358.581 483.309 360.53 484.672C365.315 488.14 408.542 499.354 445.739 506.845C494.15 516.498 501.269 518.018 516.926 521.683C525.822 523.829 539.52 527.358 547.701 529.744C562.107 533.891 616.856 553.037 634.268 560.027C684.375 580.001 761.693 607.889 815.565 625.311C850.945 636.84 907.137 654.031 909.632 654.171C910.523 654.177 902.889 650.444 892.764 645.957ZM-162.454 517.119C-155.757 483.903 -143.716 451.092 -114.476 387.1C-88.3238 329.838 -75.9176 296.047 -69.0479 263.447C-64.9675 244.573 -64.0612 200.274 -67.503 185.523C-70.2483 172.74 -73.0378 165.235 -74.464 165.225C-75.8901 165.216 -79.2512 183.357 -81.3635 201.385C-85.4107 237.563 -96.7731 274.429 -123.34 338.562C-160.637 428.028 -171.265 462.321 -175.923 507.578C-178.456 533.334 -176.543 560.348 -171.273 569.588L-168.11 575.132L-166.682 553.664C-166.048 541.763 -163.949 525.331 -162.454 517.119ZM-153.31 532.276C-144.37 507.912 -137.111 492.62 -111.389 444.191C-72.2607 370.201 -62.8138 349.155 -52.8857 313.261C-42.7784 277.246 -42.6562 241.41 -52.3675 208.943C-54.6243 201.687 -54.6263 201.932 -56.0615 224.26C-58.9669 273.087 -70.1386 308.482 -108.614 389.594C-132.57 440.121 -140.753 459.212 -149.17 485.052C-157.947 511.258 -163.526 538.712 -163.294 553.564L-163.173 560.438L-161.344 554.927C-160.427 551.865 -156.777 541.703 -153.31 532.276ZM-176.358 474.437C-170.047 444.656 -159.434 412.203 -139.579 361.772C-113.167 294.815 -106.96 277.429 -99.5814 247.9C-97.0012 237.854 -94.4221 227.93 -93.8698 225.847C-92.3963 220.211 -95.4557 223.627 -101.969 234.997C-105.405 240.743 -114.975 255.283 -123.277 267.378C-131.58 279.473 -144.212 297.675 -151.07 307.693C-177.6 346.175 -190.667 373.702 -198.075 406.789C-207.893 450.784 -203.647 497.205 -185.99 538.807L-182.145 548.037L-180.829 518.591C-179.98 502.396 -178.03 482.526 -176.358 474.437ZM766.195 453.646C696.407 442.131 638.661 418.915 540.363 363.026C463.357 319.307 424.828 300.516 379.856 284.75C331.683 267.98 298.938 261.132 186.757 245.037C150.076 239.759 108.415 233.097 94.1763 230.301C47.1887 221.026 7.70888 209.347 -22.6607 195.52C-30.653 191.907 -37.4035 189.039 -37.4066 189.407C-37.4313 192.352 -7.61704 208.63 15.6568 218.237C65.4021 238.822 117.342 252.794 233.736 276.649C398.359 310.525 447.079 325.825 528.546 369.083C597.413 405.506 603.625 408.739 619.429 416.209C652.104 431.524 687.486 442.931 723.975 449.803C744.801 453.748 766.705 456.595 776.866 456.663C783.283 456.829 781.327 456.202 766.195 453.646ZM867.809 454.206C871.74 453.128 869.961 452.625 854.472 450.189C797.321 441.091 747.871 427.749 708.612 411.04C701.861 408.171 693.866 404.927 691.024 403.68C683.383 400.683 646.107 381.287 632.093 372.97C618.965 365.272 609.212 359.07 580.139 339.483C516.316 296.835 479.224 276.826 437.091 262.552C388.383 245.901 330.705 235.818 232.371 226.811C122.637 216.624 89.5144 212.228 39.8682 201.095C17.2693 196.033 -3.89318 189.755 -24.6868 182.006C-32.8624 179.005 -40.5074 176.499 -41.7552 176.491C-43.0031 176.482 -44.4231 175.736 -44.9517 174.997C-45.301 174.135 -46.1893 173.761 -46.9055 174.124C-50.849 176.675 -18.7183 193.092 9.72333 202.978C55.9403 219.121 93.8455 227.231 182.165 239.974C301.823 257.224 331.011 263.189 383.451 281.214C422.204 294.607 481.33 323.233 533.486 354.02C642.942 418.576 715.268 446.431 795.599 455.071C805.395 456.119 863.342 455.403 867.809 454.206ZM807.231 428.516C777.192 417.882 752.86 406.796 718.076 387.907C675.838 365.041 647.105 347.42 574.054 299.677C560.048 290.378 527.058 270.152 506.658 257.987C479.517 241.849 431.045 218.205 403.679 207.589C328.156 178.362 262.276 168.469 159.748 170.603C106.256 171.717 33.344 171.227 11.787 169.487C1.81013 168.683 -9.59903 168.607 -14.0599 169.068L-22.0902 169.995L-15.858 170.896C15.4833 175.157 63.9506 178.06 156.988 180.894C172.138 181.364 189.068 182.092 194.414 182.373C199.76 182.654 211.877 183.35 221.144 183.78C349.628 190.289 431.434 214.403 531.472 275.336C546.726 284.643 555.591 290.471 591.579 314.523C604.165 323.076 617.107 331.754 620.121 333.738C623.312 335.846 630.937 340.806 637.141 345.021C680.221 373.784 738.258 404.857 779.837 421.337C792.807 426.578 826.945 437.485 830.331 437.631C831.757 437.641 821.273 433.52 807.231 428.516ZM748.684 415.85C748.686 415.604 742.827 412.742 735.902 409.382C704.294 394.442 675.736 377.19 613.866 335.537C535.686 282.974 513.342 268.832 482.456 252.792C386.072 202.561 317.194 188.721 134.684 183.199C66.2423 181.144 22.0535 178.27 -14.0979 173.608C-33.6879 171.145 -34.2227 171.141 -25.1608 174.761C-2.77315 183.748 36.007 193.827 73.3898 200.461C107.034 206.455 138.023 210.222 202.153 216.176C308.503 225.973 341.271 230.12 384.692 239.617C428.824 249.241 469.529 263.629 503.783 281.9C531.294 296.567 546.901 306.245 607.358 346.294C651.505 375.432 687.182 394.081 727.346 409.202C744.586 415.577 748.675 416.954 748.684 415.85ZM10.6788 322.893C11.43 318.357 11.2671 316.515 10.012 317.366C8.21908 318.581 -3.30204 353.114 -2.9774 356.921C-2.82898 360.481 9.37123 330.003 10.6788 322.893ZM591.852 303.233C546.14 269.421 496.325 235.949 469.173 221.038C444.861 207.62 408.63 191.299 384.276 182.912C302.68 154.995 228.559 149.956 74.2477 161.929C54.6238 163.515 35.3564 165.104 31.4304 165.568C24.649 166.382 25.0045 166.507 36.7641 167.323C43.7134 167.737 68.8492 167.906 92.9185 167.7C168.336 166.979 247.84 168.004 263.157 169.703C311.425 175.182 348.08 183.528 392.161 199.288C441.04 216.922 490.037 241.675 552.822 280.511C562.576 286.591 576.408 295.398 583.679 299.988C598.219 309.413 602.305 311.036 591.852 303.233Z" fill="#085913" fill-opacity="0.12"/>
</svg>
