<svg width="33" height="33" viewBox="0 0 33 33" fill="none" xmlns="http://www.w3.org/2000/svg">
<path d="M16.5 17.834C18.7091 17.834 20.5 16.0431 20.5 13.834C20.5 11.6248 18.7091 9.83398 16.5 9.83398C14.2909 9.83398 12.5 11.6248 12.5 13.834C12.5 16.0431 14.2909 17.834 16.5 17.834Z" stroke="#626262" stroke-width="2" stroke-linecap="round" stroke-linejoin="round"/>
<path d="M16.4997 3.16699C13.6707 3.16699 10.9576 4.2908 8.9572 6.29119C6.95681 8.29157 5.83301 11.0047 5.83301 13.8337C5.83301 16.3563 6.36901 18.007 7.83301 19.8337L16.4997 29.8337L25.1663 19.8337C26.6303 18.007 27.1663 16.3563 27.1663 13.8337C27.1663 11.0047 26.0425 8.29157 24.0421 6.29119C22.0418 4.2908 19.3287 3.16699 16.4997 3.16699Z" stroke="#626262" stroke-width="2" stroke-linecap="round" stroke-linejoin="round"/>
</svg>
