<svg width="32" height="32" viewBox="0 0 32 32" fill="none" xmlns="http://www.w3.org/2000/svg">
<path fill-rule="evenodd" clip-rule="evenodd" d="M16 2.66797C22.0653 2.66797 27 7.63997 27 13.752C27 21.2653 18.392 28.668 16 28.668C13.608 28.668 5 21.2653 5 13.752C5 7.63997 9.93467 2.66797 16 2.66797ZM16 4.66797C11.0373 4.66797 7 8.74397 7 13.752C7 20.124 14.4987 26.332 16 26.6626C17.5013 26.3306 25 20.1226 25 13.752C25 8.74397 20.9627 4.66797 16 4.66797ZM16.0013 9.33464C18.3907 9.33464 20.3347 11.2786 20.3347 13.6693C20.3347 16.0586 18.3907 18.0013 16.0013 18.0013C13.612 18.0013 11.668 16.0586 11.668 13.6693C11.668 11.2786 13.612 9.33464 16.0013 9.33464ZM16.0013 11.3346C14.7147 11.3346 13.668 12.3813 13.668 13.6693C13.668 14.956 14.7147 16.0013 16.0013 16.0013C17.288 16.0013 18.3347 14.956 18.3347 13.6693C18.3347 12.3813 17.288 11.3346 16.0013 11.3346Z" fill="white"/>
</svg>
