<svg width="32" height="32" viewBox="0 0 32 32" fill="none" xmlns="http://www.w3.org/2000/svg">
<path fill-rule="evenodd" clip-rule="evenodd" d="M22.8787 2.66797C27.3187 2.66797 30.6667 6.29064 30.6667 11.0946V20.252C30.6667 22.7106 29.7973 24.932 28.2173 26.508C26.8 27.92 24.9613 28.668 22.9 28.668H9.76267C7.70533 28.668 5.868 27.9213 4.44933 26.508C2.86933 24.932 2 22.7106 2 20.252V11.0946C2 6.29064 5.348 2.66797 9.788 2.66797H22.8787ZM22.8787 4.66797H9.788C6.43467 4.66797 4 7.37064 4 11.0946V20.252C4 22.176 4.66133 23.8946 5.86133 25.0906C6.896 26.124 8.24667 26.668 9.76667 26.668H22.8787C22.8813 26.6653 22.892 26.668 22.9 26.668C24.4213 26.668 25.7707 26.124 26.8053 25.0906C28.0067 23.8946 28.6667 22.176 28.6667 20.252V11.0946C28.6667 7.37064 26.232 4.66797 22.8787 4.66797ZM24.98 10.8397C25.328 11.2677 25.2627 11.897 24.8347 12.2464L18.9093 17.0624C18.16 17.657 17.264 17.9544 16.3693 17.9544C15.4773 17.9544 14.588 17.6597 13.844 17.0704L7.864 12.249C7.43333 11.9024 7.36667 11.2717 7.712 10.8424C8.06 10.4144 8.68933 10.3464 9.11867 10.6917L15.0933 15.5077C15.844 16.1024 16.9013 16.1024 17.6573 15.5024L23.572 10.6944C24.0013 10.3437 24.6307 10.4104 24.98 10.8397Z" fill="white"/>
</svg>
