<svg width="23" height="28" viewBox="0 0 23 28" fill="none" xmlns="http://www.w3.org/2000/svg">
<path fill-rule="evenodd" clip-rule="evenodd" d="M14.6817 14.3288C14.4978 13.751 14.1573 13.2506 13.7069 12.8968C13.2566 12.543 12.7186 12.353 12.167 12.3531V11.6123H10.8337V12.3531C10.1264 12.3531 9.44814 12.6653 8.94804 13.221C8.44794 13.7767 8.16699 14.5304 8.16699 15.3163C8.16699 16.1022 8.44794 16.8559 8.94804 17.4116C9.44814 17.9673 10.1264 18.2795 10.8337 18.2795V21.2427C10.2537 21.2427 9.75966 20.8316 9.57566 20.2552C9.54836 20.161 9.50432 20.0737 9.44615 19.9987C9.38797 19.9236 9.31684 19.8623 9.23697 19.8183C9.15709 19.7743 9.07009 19.7486 8.98111 19.7427C8.89213 19.7367 8.80298 19.7506 8.71894 19.7836C8.63489 19.8166 8.55765 19.868 8.49179 19.9348C8.42593 20.0015 8.37278 20.0823 8.33549 20.1722C8.2982 20.2622 8.27753 20.3596 8.2747 20.4586C8.27186 20.5576 8.28692 20.6562 8.31899 20.7486C8.5028 21.3265 8.84334 21.8268 9.29371 22.1806C9.74407 22.5345 10.2821 22.7244 10.8337 22.7243V23.4651H12.167V22.7243C12.8742 22.7243 13.5525 22.4121 14.0526 21.8564C14.5527 21.3007 14.8337 20.547 14.8337 19.7611C14.8337 18.9752 14.5527 18.2215 14.0526 17.6658C13.5525 17.1101 12.8742 16.7979 12.167 16.7979V13.8347C12.4427 13.8346 12.7117 13.9296 12.9369 14.1064C13.1621 14.2833 13.3324 14.5333 13.4243 14.8222C13.4832 15.0075 13.6059 15.1592 13.7654 15.2439C13.8444 15.2859 13.9301 15.3101 14.0175 15.3153C14.1049 15.3205 14.1924 15.3065 14.275 15.2741C14.3576 15.2417 14.4336 15.1915 14.4987 15.1265C14.5638 15.0615 14.6167 14.9828 14.6545 14.895C14.6923 14.8073 14.7141 14.7121 14.7188 14.6149C14.7234 14.5178 14.7108 14.4206 14.6817 14.3288ZM10.8337 13.8347C10.48 13.8347 10.1409 13.9908 9.89085 14.2687C9.6408 14.5465 9.50033 14.9234 9.50033 15.3163C9.50033 15.7093 9.6408 16.0861 9.89085 16.364C10.1409 16.6418 10.48 16.7979 10.8337 16.7979V13.8347ZM12.167 21.2427C12.5206 21.2427 12.8598 21.0866 13.1098 20.8088C13.3598 20.5309 13.5003 20.1541 13.5003 19.7611C13.5003 19.3682 13.3598 18.9913 13.1098 18.7135C12.8598 18.4356 12.5206 18.2795 12.167 18.2795V21.2427Z" fill="#626262"/>
<path fill-rule="evenodd" clip-rule="evenodd" d="M4.26898 2.44164C5.90498 1.55194 8.58898 0.5 11.5263 0.5C14.4023 0.5 17.0156 1.50823 18.643 2.38608L18.735 2.43572C19.2256 2.70537 19.6216 2.96021 19.9003 3.16689L17.4376 7.16722C23.115 13.6166 27.5003 27.1667 11.5263 27.1667C-4.44769 27.1667 -0.180354 13.8626 5.54631 7.16722L3.09965 3.16689C3.28831 3.02984 3.52765 2.87057 3.81298 2.70166C3.95431 2.61721 4.10631 2.53005 4.26898 2.44164ZM15.855 7.11462L17.8263 3.91214C15.993 4.05881 13.8116 4.53737 11.7116 5.21299C10.2116 5.69451 8.54498 5.62117 7.00165 5.30484C6.61271 5.22483 6.22647 5.12945 5.84365 5.0189L7.12365 7.11314C9.86698 8.19842 13.111 8.19842 15.855 7.11462ZM6.35365 8.37473C9.56365 9.75262 13.4216 9.75262 16.6316 8.37325C17.9712 9.9431 19.092 11.7267 19.957 13.6648C20.8583 15.7079 21.349 17.7503 21.269 19.5105C21.1916 21.2091 20.5903 22.6604 19.217 23.739C17.7856 24.8628 15.3783 25.6851 11.5256 25.6851C7.66898 25.6851 5.25031 24.8768 3.80565 23.7656C2.42231 22.7011 1.81498 21.2691 1.72898 19.5934C1.63898 17.8526 2.11898 15.8205 3.01698 13.7633C3.87365 11.8017 5.06898 9.91338 6.35365 8.37473ZM5.58698 3.40098C6.12031 3.57729 6.67765 3.73064 7.24298 3.84695C8.67631 4.1403 10.1136 4.18327 11.3403 3.78842C12.7697 3.3255 14.2237 2.96156 15.6936 2.6987C14.467 2.2883 13.0323 1.9816 11.5256 1.9816C9.22898 1.9816 7.08698 2.69352 5.58698 3.40098Z" fill="#626262"/>
</svg>
