<svg width="360" height="162" viewBox="0 0 360 162" fill="none" xmlns="http://www.w3.org/2000/svg">
<path d="M319.213 2.57794C318.223 4.75464 317.218 10.3071 317.144 14.2035C317.109 15.9525 317.439 20.698 317.863 24.6903C319.573 41.5668 319.497 45.7288 317.411 52.4294C315.857 57.344 313.843 60.281 309.252 64.477C305.797 67.6683 304.851 68.2841 302.354 69.2658C299.779 70.2591 298.911 70.8633 294.509 74.8032C291.813 77.2362 288.661 79.7944 287.572 80.4888C286.426 81.1725 285.514 81.8213 285.568 81.9648C285.663 82.5949 296.311 79.5931 299.133 78.0888C300.1 77.5835 301.72 77.0179 302.74 76.7889C303.771 76.6152 305.635 75.9371 306.846 75.3193C309.801 73.814 316.811 67.3974 319.64 63.5799C323.553 58.3487 328.563 53.0096 331.511 50.9178C335.172 48.378 340.069 46.183 345.259 44.8158C349.562 43.6767 357.121 42.1812 357.385 42.4448C357.582 42.6425 357.412 46.1744 357.049 50.3607C355.579 66.1986 349.544 75.4633 338.361 79.0005C331.794 81.0863 324.442 81.4514 309.696 80.4443C304.763 80.1051 300.603 79.915 300.469 80.0488C300.335 80.1826 300.092 80.1623 299.927 79.9976C299.762 79.8328 298.676 79.9959 297.522 80.3587C293.041 81.6762 287.496 83.1346 283.761 83.9042C281.643 84.3739 278.351 85.0958 276.433 85.4976C274.548 85.9324 272.642 86.2566 272.233 86.2043C271.857 86.185 269.376 86.425 266.751 86.7435C264.125 87.0621 260.127 87.4352 257.835 87.5521C255.576 87.7018 253.704 87.9262 253.758 88.0697C253.853 88.6998 258.979 88.5174 272.999 87.416C279.333 86.8814 287.304 86.6887 291.507 86.9671C311.155 88.1476 327.439 96.4478 352.522 118.096C358.339 123.154 359.284 124.055 359.016 124.323C358.905 124.434 357.203 124.026 355.227 123.432C348.602 121.357 343.706 120.387 332.528 118.844C311.709 116.001 303.934 113.757 290.13 106.733C286.205 104.726 280.274 101.694 276.944 100.015C269.623 96.2623 266.611 94.99 260.76 93.0639C253.23 90.5749 244.553 89.1681 231.731 88.3458C226.344 87.9989 218.203 87.3075 215.45 86.9629C214.477 86.8817 212.575 86.6746 211.247 86.5518C201.935 85.7142 178.404 81.3643 167.878 78.5104C166.42 78.1229 165.436 77.9865 165.601 78.1512C166.26 78.8104 172.825 81.539 176.766 82.8043C181.923 84.4368 192.221 86.6615 195.253 86.7937C196.514 86.8506 198.736 87.1992 200.205 87.6419C201.64 88.0517 204.602 88.6492 206.802 89.0201C216.541 90.5517 228.944 95.4169 238.704 101.608C247.098 106.924 250.09 109.336 257.999 117.245C264.129 123.375 265.512 124.892 268.098 128.37C273.697 135.887 277.916 143.005 281.136 150.463C282.768 154.236 284.75 159.965 284.722 160.784C284.695 161.338 283.636 160.947 282.713 160.025C282.318 159.629 280.057 158.528 277.652 157.506C270.006 154.276 262.413 149.94 255.798 145.02C251.572 141.864 239.411 129.703 234.608 123.829C219.134 104.832 209.927 95.8475 200.482 90.4621C198.51 89.3369 196.467 88.6772 191.097 87.4558C176.425 84.0686 170.044 81.8809 164.306 78.1942C163.457 77.6582 160.168 76.4655 157.043 75.5704C137.053 69.8547 115.53 61.9812 94.1968 52.4683C91.6376 51.3365 89.5631 50.5109 89.5621 50.6437C89.6164 50.7872 91.0364 51.8058 92.7658 52.9107C98.8572 56.7718 108.085 62.9668 115.44 68.1355C119.558 71.0043 127.167 76.1158 132.333 79.4526C143.755 86.8154 150.075 91.1728 157.47 96.8282C180.349 114.221 196.451 132.063 207.215 151.882C208.612 154.439 210.197 157.138 210.668 157.788C211.194 158.448 211.598 159.164 211.586 159.375C211.559 159.928 202.251 155.527 196.984 152.49C184.609 145.289 176.081 138.724 165.766 128.408C158.087 120.73 154.95 117.013 144.023 102.696C135.431 91.3825 129.001 83.9711 120.52 75.4463C116.236 71.1621 114.96 70.0649 108.259 64.9688C95.6029 55.3464 82.2413 46.8914 73.7698 43.1035C71.8833 42.2876 69.2922 40.99 68.0136 40.2913C65.7763 39.0353 65.0705 38.6864 63.3392 37.8473C60.9128 36.7144 39.9375 25.1956 32.8185 21.1097C20.7954 14.2163 1.58172 2.45186 0.46122 1.33136C0.197587 1.06772 0.133653 0.736155 0.289774 0.580034C0.445895 0.423913 4.21482 2.58702 9.22737 5.68152C18.2608 11.2803 34.646 20.93 42.273 25.167C58.2105 34.0121 64.7267 37.3166 70.0681 39.3573C72.4848 40.302 75.3746 41.6305 76.4651 42.3196C81.0473 45.2513 85.7339 44.5852 91.7873 40.2455C112.107 25.5942 136.257 18.2519 164.846 18.0703C170.745 18.0371 183.291 18.6733 183.654 19.0358C184.379 19.7608 183.411 20.399 180.439 21.1296C176.359 22.1785 172.244 24.8435 163.958 31.6792C150.215 43.0494 138.929 48.5352 124.302 50.9029C115.658 52.296 107.956 52.221 97.9075 50.6032C94.6132 50.0745 91.7718 49.6864 91.5943 49.732C90.9952 49.9357 97.8565 52.961 109.762 57.8631C127.294 65.0471 141.998 70.1163 158.51 74.7625C163.745 76.2505 164.508 76.3444 167.488 75.9346C169.305 75.6996 173.27 75.2935 176.327 75.0049C181.765 74.5103 187.674 73.1488 191.295 71.5057C197.503 68.659 204.318 61.6462 204.959 57.3803C205.352 55.1417 204.246 50.6454 200.664 39.7928C198.781 34.0296 198.275 26.2971 199.346 20.6777C200.647 14.0384 204.722 7.85409 210.039 4.38315C211.362 3.521 212.54 2.87022 212.606 2.93614C213.166 3.49638 215.988 9.44068 217.302 12.8065C222.297 25.6075 222.588 36.9165 218.164 46.811C216.476 50.6089 211.643 56.0352 208.14 58.1533C206.662 59.0387 205.548 60.0211 205.043 60.8549C204.595 61.5666 202.631 63.7949 200.668 65.7576C196.932 69.5597 193.995 71.574 190.299 72.9631C187.613 73.9351 188.376 74.029 192.522 73.1788C197.3 72.1579 203.616 69.5981 209.319 66.3345C223.502 58.215 225.334 57.3711 238.273 52.8689C253.908 47.4501 258.384 45.4132 264.36 41.0851C267.209 39.0272 271.214 34.6918 272.572 32.2135C273.324 30.8686 273.778 30.8763 274.697 32.1975C275.464 33.2764 275.36 42.6737 274.532 48.3133C273.352 56.5455 270.765 62.1652 265.686 67.8368C261.523 72.4612 258.031 74.7674 252.294 76.7473C244.06 79.5761 236.623 79.4992 218.439 76.5258C208.435 74.8633 206.114 74.5487 202.308 74.2674C199.454 74.0896 167.207 76.5454 167.281 76.9322C167.387 77.6176 190.946 82.5318 201.957 84.1756C226.754 87.9184 250.261 88.0074 273.419 84.491C281.563 83.2677 287.097 80.3706 293.508 74.0249L297.221 70.3779L296.178 64.8298C292.945 47.3671 296.026 29.1265 304.622 14.7956C306.987 10.9152 317.315 0.32331 318.675 0.479112C319.947 0.591302 320 0.867591 319.213 2.57794ZM316.521 4.34686C312.561 10.0211 310.451 18.2603 309.444 31.527C308.474 44.2953 307.377 51.8517 305.767 56.8886C304.907 59.4628 302.41 64.7276 300.516 67.874C299.945 68.7748 299.954 68.9628 300.531 68.7814C300.941 68.7009 301.921 67.9852 302.757 67.2152C303.915 66.1883 304.182 66.0535 303.834 66.7312C303.036 68.3863 308.701 64.1048 311.113 61.2976C317.646 53.5122 319.241 44.5354 317.137 26.9978C316.877 24.8194 316.56 21.247 316.443 19.1228C316.349 16.9764 316.163 15.1848 316.053 15.1635C315.832 15.1209 314.779 24.149 313.908 33.9837C313.282 40.6733 312.176 47.9088 311.117 51.9343C310.194 55.4276 307.434 61.9451 306.542 62.7044C306.063 63.1175 306.03 63.0845 306.322 62.5289C310.793 53.8404 312.168 47.5879 313.732 29.3476C314.801 16.811 315.621 10.7175 316.894 6.2809C317.338 4.58421 317.681 3.18709 317.582 3.08822C317.516 3.02232 317.014 3.59054 316.521 4.34686ZM350.578 49.7785C339.438 60.8524 326.87 69.0705 310.673 75.7111C308.774 76.489 307.241 77.231 307.295 77.3745C307.337 77.7283 316.363 75.5577 320.79 74.0967C325.439 72.5455 332.134 69.6065 336.37 67.1509C345.463 61.8807 351.809 55.3363 354.718 48.209C356.027 44.9231 356.095 44.7234 355.963 44.5915C355.93 44.5586 353.478 46.8791 350.578 49.7785ZM354.921 49.2589C353.31 53.0451 350.862 56.2178 346.025 60.659C343.562 62.9243 340.266 65.561 338.676 66.558C330.914 71.4197 321.311 75.4209 312.364 77.4471C310.047 77.9847 308.228 78.4853 308.261 78.5183C308.525 78.7819 315.801 78.1628 320.432 77.4861C330.482 75.9386 336.353 73.8248 344.126 68.8855C344.604 68.6053 344.581 68.7604 344.056 69.3509C342.036 71.5686 333.553 75.3068 326.8 76.9845C323.518 77.7617 316.182 78.9015 312.584 79.1388C311.377 79.2253 310.446 79.3651 310.545 79.464C310.808 79.7277 319.439 80.0613 323.789 79.9954C331.394 79.8386 337.357 78.6206 342.289 76.193C345.345 74.6537 349.749 70.3153 351.344 67.138C353.265 63.438 355.159 57.259 354.441 57.1206C354.275 57.0886 354.447 56.3236 354.797 55.3803C355.451 53.8037 356.431 47.1557 356.011 47.0482C355.933 47.0599 355.428 48.0266 354.921 49.2589ZM347.28 45.3651C335.77 48.3071 330.73 51.8313 321.435 63.3672C319.245 66.0842 317.178 68.6121 316.832 69.0242C315.459 70.5951 318.541 68.5022 320.592 66.4504C321.741 65.3682 322.854 64.5187 323.052 64.5836C323.284 64.6815 322.882 65.2157 322.136 65.7637C321.423 66.3445 320.955 66.8129 321.121 66.8448C321.485 66.9417 327.145 63.4571 334.952 58.418C338.311 56.2456 340.813 54.7327 340.533 55.0779C339.182 56.6265 319.929 69.3551 314.506 72.2734C313.972 72.5431 313.938 72.6429 314.414 72.6283C315.201 72.5671 320.455 70.0152 325.245 67.4004C333.569 62.8334 342.093 56.6821 348.948 50.2888C351.221 48.1467 352.827 46.5409 352.505 46.665C352.061 46.8455 351.94 46.7689 351.943 46.3704C351.934 46.0495 350.804 46.2573 348.884 46.9247C342.97 48.9502 339.37 50.8367 334.873 54.2793C333.337 55.4197 332.993 55.5662 333.718 54.7749C336.474 51.8213 342.777 48.0884 348.748 45.9407C354.396 43.9171 353.823 43.7001 347.28 45.3651ZM311.301 8.31511C309.402 10.6093 308.896 11.7088 307.789 16.0446C306.182 22.3321 303.766 37.4023 302.633 48.3568C301.856 55.9219 301.718 56.7198 301.579 56.0014C301.174 53.9016 304.077 31.4234 306.206 20.5279C306.792 17.6348 307.323 14.7311 307.417 14.1106L307.591 12.9471L306.897 14.037C306.035 15.3605 304.507 19.8544 303.265 24.5897C300.883 33.7606 299.814 42.014 298.877 57.7151C298.559 63.2403 298.204 67.7475 298.126 67.7591C297.872 67.6836 298.438 55.7151 299.07 48.2286C299.884 38.5161 301.362 28.9314 303.174 21.912C304.429 16.9663 302.172 21.2665 299.627 28.6235C296.029 39.0763 295.18 50.405 296.987 64.7462C297.163 66.3497 297.285 67.8097 297.239 67.9871C297.193 68.1646 297.302 68.4515 297.467 68.6163C297.632 68.7811 298.188 68.3563 298.702 67.7105C299.685 66.4636 300.436 63.7353 301.134 59.2144C301.333 57.763 301.574 56.6655 301.673 56.7644C301.805 56.8962 301.57 58.7131 301.211 60.8518C300.458 65.2292 300.812 65.2709 302.781 60.995C305.584 54.6985 307.148 46.9394 308.002 34.9467C308.922 21.5036 310.229 13.9345 312.558 8.90332C313.098 7.70395 313.372 6.6394 313.195 6.55218C312.997 6.48726 312.139 7.27952 311.301 8.31511ZM272.996 36.2058C268.884 47.3043 258.216 58.8949 246.928 64.6464C243.173 66.5561 238.234 68.3972 233.876 69.5257C229.595 70.6425 218.426 72.453 214.229 72.7612C212.989 72.8148 212.013 72.9992 212.035 73.1097C212.152 73.7175 222.283 74.6597 228.658 74.6118C248.271 74.5087 262.867 67.4264 270.048 54.4453C271.686 51.489 273.799 45.7511 274.149 43.2915C274.384 41.4746 274.295 34.2481 274.018 34.1948C273.908 34.1735 273.414 35.0626 272.996 36.2058ZM350.812 118.883C331.944 106.707 310.138 98.1936 286.289 93.5694C280.708 92.4935 272.594 91.2485 268.855 90.9003C267.849 90.7861 265.162 90.5074 262.85 90.2481C260.572 90.0217 258.405 89.8167 258.061 89.8303C257.253 89.9139 259.68 90.9139 264.019 92.309C271.229 94.6565 275.526 95.6978 292.832 99.2201C308.535 102.434 321.628 106.873 341.659 115.842C346.579 118.041 351.642 120.294 352.9 120.882C354.146 121.415 355.095 121.784 354.963 121.652C354.832 121.521 352.938 120.251 350.812 118.883ZM344.309 112.336C327.07 98.3984 314.084 91.6119 300.134 89.2154C292.408 87.9121 283.599 87.7569 272.679 88.658C271.793 88.7532 270.276 88.8863 269.279 88.9602C268.316 89.0671 267.518 89.2059 267.539 89.3164C267.56 89.4269 269.208 89.6912 271.165 89.9089C277.413 90.5814 294.962 94.124 302.306 96.2049C316.874 100.29 331.206 106.325 343.294 113.417C345.332 114.608 348.032 116.193 349.266 116.936C351.9 118.455 351.998 118.554 344.309 112.336ZM347.303 118.899C346.145 118.409 343.266 117.136 340.883 116.092C334.673 113.272 323.782 108.937 317.954 106.856C307.257 103.118 300.453 101.354 283.909 98.0586C273.311 95.9358 273.919 96.053 271.279 95.3313C270.097 94.997 269.301 94.8702 269.466 95.035C269.993 95.5623 273.945 97.0157 279.797 98.8089C282.911 99.7816 285.97 100.744 286.543 100.961C287.15 101.211 292.196 102.822 297.75 104.584C303.304 106.347 312.832 109.407 318.894 111.321C343.372 119.205 347.049 120.339 350.386 121.089L353.888 121.871L351.638 120.825C350.381 120.237 348.462 119.388 347.303 118.899ZM262.133 44.3004C257.829 47.0886 251.878 49.6124 239.738 53.843C227.92 57.9493 223.834 59.6623 217.51 63.1519C215.399 64.3409 213.409 65.4737 213.087 65.5979C211.754 66.272 213.771 65.969 217.265 64.9135C219.383 64.311 224.796 62.7208 229.355 61.3917C243.963 57.1315 251.924 53.7182 260.168 48.045C260.825 47.5863 260.835 47.6415 260.165 48.4434C258.915 49.8252 252.868 53.368 247.704 55.6978C241.907 58.3312 235.915 60.3684 221.374 64.5617C209.428 68.0049 206.487 69.0342 204.686 70.1766C202.484 71.5877 220.14 68.2343 230.842 65.2431C241.889 62.1055 250.508 58.1006 258.508 52.407C258.998 52.0492 258.363 52.6184 257.137 53.7123C248.66 61.0696 228.585 68.1598 207.322 71.2968C203.599 71.856 202.699 72.4272 205.655 72.3054C208.699 72.2272 221.848 70.6121 226.581 69.7686C237.63 67.7488 245.245 64.7476 253.179 59.1209C256.605 56.7488 262.715 50.7706 264.607 48.0227C265.591 46.6429 265.379 46.7884 262.827 49.1428L259.941 51.8318L263.724 47.5866C265.801 45.2468 268.225 42.2292 269.054 40.8727L270.633 38.437L267.751 40.4619C266.182 41.5694 263.646 43.3151 262.133 44.3004ZM271.759 52.1415C267.258 61.9149 259.427 68.6254 247.931 72.6076C241.395 74.8592 229.311 76.0678 220.817 75.3347C216.536 74.9352 217.486 75.3044 223.389 76.2562C239.295 78.8704 248.099 78.1734 257.044 73.5131C260.911 71.4918 266.652 65.9481 268.873 62.0134C270.925 58.4453 273.98 49.5903 273.387 48.9971C273.321 48.9312 272.58 50.3313 271.759 52.1415ZM325.315 113.995C306.368 108.028 303.674 107.163 290.038 102.805C283.546 100.729 278.201 99.0866 278.223 99.1971C278.276 99.4734 291.318 106.271 295.674 108.307C303.296 111.825 308.772 113.599 317.591 115.326C324.001 116.561 339.755 118.933 339.425 118.604C339.293 118.472 332.967 116.428 325.315 113.995ZM213.233 6.46203C213.166 6.52894 213.236 8.9633 213.358 11.8068C213.949 24.5302 213.61 32.8446 212.23 41.1447C211.351 46.2424 209.295 53.2416 207.994 55.5977C206.816 57.632 208.55 56.6893 211.628 53.6114C221.062 44.1773 222.724 29.2013 216.218 12.7039C214.242 7.69404 213.522 6.17209 213.233 6.46203ZM210.575 6.61481C206.432 10.099 203.782 21.0539 204.6 31.5067C204.841 34.6924 206.183 44.6875 206.675 46.9638L207.081 48.9308L207.365 47.9215C208.047 45.5257 208.387 40.1111 208.599 28.101C208.672 24.2046 208.829 19.4997 208.976 17.6392C209.305 13.6856 210.527 7.19069 211.05 6.73299C211.229 6.55456 211.214 7.03057 210.987 7.78488C209.625 12.3108 209.074 20.7706 209.332 33.5629C209.431 39.5941 208.671 47.9338 207.714 51.5269C207.554 52.2143 207.54 52.6903 207.739 52.6224C208.438 52.3848 210.602 44.2891 211.394 39.0149C211.793 35.9793 212.229 31.062 212.351 28.106C212.548 20.988 212.173 6.07155 211.778 5.67609C211.745 5.64313 211.221 6.10083 210.575 6.61481ZM203.453 13.2757C201.176 17.3326 199.728 22.9326 199.803 27.7354C199.847 30.7234 200.789 36.4383 201.976 40.3916C204.069 47.6585 204.344 47.8446 203.055 41.1583C200.821 29.1555 201.592 19.3548 205.412 11.8444C206.501 9.76651 206.558 9.51152 205.79 10.0818C205.256 10.4842 204.227 11.9086 203.453 13.2757ZM203.676 18.985C202.581 23.2432 202.119 28.7141 202.538 33.3705C202.863 37.2639 206.024 52.5578 206.426 52.1564C206.76 51.8218 206.534 49.5436 205.643 44.3706C204.603 38.424 204.246 35.8811 203.903 31.4787C203.611 27.6183 203.929 20.5768 204.581 17.7497C205.292 14.5347 204.576 15.514 203.676 18.985ZM169.079 20.2963C157.052 21.25 143.823 24.6586 133.982 29.3588C128.539 31.901 124.582 34.2771 117.974 38.776C110.587 43.7898 108.053 45.137 101.151 47.5573C100.13 47.9192 105.8 47.5224 109.412 46.9419C122.265 45.0302 131.012 41.6885 147.239 32.5796C155.153 28.093 158.607 26.418 164.091 24.2296C168.165 22.5942 174.442 20.9312 174.238 21.5304C174.171 21.7301 173.427 22.0124 172.596 22.1182C167.654 22.8416 156.882 27.6816 146.676 33.8012C138.66 38.5874 131.474 42.017 124.762 44.1814C122.587 44.906 120.8 45.5725 120.832 45.7382C120.852 45.9816 124.556 45.0462 130.458 43.231C134.351 42.0397 140.512 39.636 145.876 37.2382C155.259 33.0616 174.596 22.557 174.658 21.6379C174.649 21.4498 175.57 21.1219 176.7 20.9142C181.965 19.9339 177.75 19.6003 169.079 20.2963ZM153.429 20.3918C137.5 23.5993 120.613 29.2822 99.4699 38.5608C95.7167 40.2049 91.5853 42.0953 90.2744 42.7471C88.9965 43.4318 87.0089 44.299 85.8657 44.7171C84.712 45.0799 83.7899 45.5406 83.8442 45.6841C83.9284 46.259 91.9225 47.2946 94.8126 47.1069C102.431 46.6069 106.273 44.8737 119.366 36.065C131.892 27.6259 145.502 22.189 159.341 20.1482C161.047 19.8918 162.51 19.6152 162.599 19.526C163.012 19.047 157.663 19.5852 153.429 20.3918ZM146.902 37.5958C138.54 41.4105 130.96 44.1791 123.186 46.2186C118.473 47.4382 107.712 49.301 103.56 49.5646C100.359 49.7989 102.359 50.2377 107.869 50.5283C128.801 51.6107 147.502 44.7078 164.971 29.3474L167.924 26.7243L159.623 31.1363C155.067 33.5833 149.346 36.4706 146.902 37.5958ZM252.035 112.664C246.659 107.824 239.998 103.214 232.569 99.1748C229.207 97.3296 224.662 95.283 226.447 96.3985C226.876 96.6942 228.991 98.0064 231.162 99.3293C240.195 104.928 249.227 112.176 257.774 120.767C263.343 126.336 269.96 133.89 270.075 134.763C270.14 134.962 269.679 134.501 269.12 133.808C259.998 122.233 247.059 110.587 232.676 101.111C227.852 97.8932 219.924 94.0237 216.51 93.1529L213.881 92.4864L219.383 95.2231C232.472 101.71 242.817 109.557 255.117 122.303C265.243 132.741 273.288 143.151 280.766 155.446C281.849 157.198 282.801 158.685 282.911 158.706C283.276 158.803 281.985 155.282 280.645 152.47C278.716 148.4 275.329 142.56 272.582 138.519C271.279 136.592 270.755 135.666 271.391 136.48C272.049 137.272 273.899 139.97 275.441 142.448C277.016 144.96 278.362 146.975 278.406 146.931C278.54 146.797 275.637 141.396 273.778 138.377C271.154 134.014 267.167 128.51 263.919 124.771C258.367 118.327 258.301 118.261 252.035 112.664ZM146.322 20.5116C136.561 21.902 127.525 24.0174 119.812 26.7869C112.044 29.5458 101.59 34.7929 96.7603 38.3045C94.8462 39.6913 95.1458 39.5894 101.997 36.6271C118.386 29.5978 134.486 24.109 147.291 21.2569C149.896 20.695 152.058 20.1807 152.125 20.1138C152.437 19.8016 150.754 19.9028 146.322 20.5116ZM245.031 113.868C235.233 105.408 223.977 98.0773 214.864 94.272C211.676 92.9125 205.88 90.8643 205.923 91.0853C205.934 91.1406 208.19 92.7727 210.932 94.7111C221.865 102.299 229.301 108.308 239.886 118.09C246.316 123.985 250.248 128.095 260.687 139.604C268.71 148.52 275.525 154.755 280.11 157.421C281.311 158.132 281.256 157.988 278.116 153.153C267.755 137.216 256.368 123.688 245.031 113.868ZM274.216 153.758C270.938 151.104 264.358 144.435 257.52 136.839C244.996 122.932 232.432 111.439 218.256 100.965C210.969 95.5962 210.891 95.7407 217.984 101.764C225.242 107.951 234.219 116.705 242.42 125.575C253.519 137.611 262.813 146.771 267.37 150.124C270.76 152.666 277.623 156.942 277.868 156.696C277.935 156.63 277.671 156.366 277.275 156.103C276.911 155.874 275.536 154.81 274.216 153.758ZM267.025 150.403C263.338 147.697 254.152 138.823 246.84 130.843C238.486 121.731 228.489 111.823 222.166 106.347C219.362 103.945 216.976 101.915 216.865 101.894C216.755 101.872 218.489 103.829 220.706 106.226C222.979 108.632 227.215 113.492 230.165 117.067C239.521 128.341 241.156 130.199 246.396 135.439C253.581 142.624 259.633 147.249 267.635 151.638C270.843 153.374 270.679 153.076 267.025 150.403ZM166.428 105.073C164.239 103.241 160.62 100.335 158.375 98.6255C154.149 95.3369 141.005 85.9395 140.541 85.8766C140.066 85.7584 141.033 86.6366 143.971 88.9055C163.503 103.977 183.778 123.315 196.862 139.298C198.978 141.861 201.271 144.644 202.028 145.534L203.377 147.151L202.01 144.893C198.895 139.637 194.435 133.749 186.427 124.225C184.255 121.651 170.223 108.199 166.428 105.073ZM165.078 108.005C154.151 98.1038 132.191 80.649 123.611 75.0579C119.205 72.2133 121.173 74.0026 126.876 78.0548C150.149 94.5922 173.4 115.435 193.475 137.741C199.337 144.271 199.768 144.301 194.238 137.835C185.594 127.629 176.422 118.279 165.078 108.005ZM157.634 102.925C147.452 94.1255 126.877 77.922 124.835 77.1294C124.316 76.923 125.546 78.1976 128.832 81.3051C143.625 95.2499 151.052 102.455 165.641 116.999C184.854 136.212 193.427 144.249 206.173 155.033C208.142 156.689 208.893 156.86 207.808 155.375C206.362 153.393 198.53 144.089 194.798 139.911C192.537 137.427 190.189 134.766 189.508 133.996C186.128 130.126 162.78 107.402 157.634 102.925ZM198.107 148.796C189.827 141.586 178.806 131.055 160.888 113.183C151.606 103.945 141.751 94.2236 138.959 91.6105L133.882 86.801L142.437 95.7126C150.992 104.624 152.474 106.24 169.787 124.98C177.559 133.422 179.943 135.85 184.318 139.779C191.695 146.442 198.562 151.57 203.799 154.309C205.75 155.324 205.75 155.324 204.485 154.282C203.792 153.722 200.922 151.254 198.107 148.796ZM191.775 147.548C182.385 140.79 175.602 134.721 163.597 122.404C158.391 117.064 152.704 111.02 150.959 109.007C149.214 106.995 147.699 105.346 147.556 105.292C147.257 105.261 153.648 113.436 157.564 118.155C162.292 123.775 171.091 132.574 176.536 137.082C181.76 141.415 188.894 146.541 193.423 149.196C196.849 151.24 196.816 151.207 191.775 147.548ZM189.295 144.756C185.587 141.806 168.439 124.614 162.293 117.71C159.89 115.039 153.246 108.038 147.491 102.194C137.792 92.3165 137.199 91.7233 139.029 94.1777C140.125 95.5861 144.019 100.194 147.663 104.328C165.627 124.79 177.13 136.026 189.808 145.626C191.833 147.161 193.617 148.409 193.805 148.419C193.971 148.45 193.707 148.187 193.179 147.792C192.65 147.398 190.923 146.027 189.295 144.756Z" fill="#015612"/>
</svg>
