<svg width="150" height="150" viewBox="0 0 150 150" fill="none" xmlns="http://www.w3.org/2000/svg">
<g clip-path="url(#clip0_174_4058)">
<path d="M139.12 88.6786C139.038 88.5245 139.847 89.8346 127.218 69.6085C125.239 65.8534 124.193 61.612 124.193 57.3362C124.193 41.9428 118.173 27.4924 107.242 16.6474C84.6286 -5.78727 48.0968 -5.46941 25.9009 17.1334C7.92711 35.4365 5.00808 62.3435 15.7617 83.396C22.9324 97.3601 26.723 112.98 26.723 128.566V147.071C26.723 148.689 28.0348 150 29.6525 150H94.0738C95.6916 150 97.0034 148.689 97.0034 147.071V126.468H109.827C117.755 126.468 124.205 120.018 124.205 112.09V100.317L132.34 100.187C135.093 100.14 137.571 98.6936 138.965 96.318C140.356 93.9506 140.414 91.0946 139.12 88.6786ZM132.244 94.3285L121.228 94.5046C119.629 94.5304 118.346 95.8341 118.346 97.4339V112.09C118.346 116.787 114.524 120.609 109.827 120.609H94.0741C92.4564 120.609 91.1446 121.921 91.1446 123.538V144.141H32.5824V128.566C32.5824 112.053 28.5683 95.5077 20.9769 80.7248C17.348 73.6206 15.4593 65.929 15.363 57.8688C15.0706 29.1608 38.0677 5.8654 66.8341 5.8654C95.2797 5.8654 118.334 28.8681 118.334 57.3365C118.334 62.6016 119.633 67.827 122.091 72.4479C122.183 72.6198 121.393 71.3393 133.99 91.5135C134.611 92.7779 133.692 94.3042 132.244 94.3285Z" fill="#E7B447"/>
<path d="M45.447 48.3145C47.065 48.3145 48.3767 47.0028 48.3767 45.3848C48.3767 43.7667 47.065 42.4551 45.447 42.4551C43.829 42.4551 42.5173 43.7667 42.5173 45.3848C42.5173 47.0028 43.829 48.3145 45.447 48.3145Z" fill="#E7B447"/>
<path d="M57.2126 48.3145C58.8307 48.3145 60.1423 47.0028 60.1423 45.3848C60.1423 43.7667 58.8307 42.4551 57.2126 42.4551C55.5946 42.4551 54.283 43.7667 54.283 45.3848C54.283 47.0028 55.5946 48.3145 57.2126 48.3145Z" fill="#E7B447"/>
<path d="M68.9778 48.3145C70.5958 48.3145 71.9075 47.0028 71.9075 45.3848C71.9075 43.7667 70.5958 42.4551 68.9778 42.4551C67.3598 42.4551 66.0481 43.7667 66.0481 45.3848C66.0481 47.0028 67.3598 48.3145 68.9778 48.3145Z" fill="#E7B447"/>
<path d="M77.6937 26.6567C72.6015 21.1265 65.3051 17.6553 57.2128 17.6553C41.8583 17.6553 29.3666 30.147 29.3666 45.5014C29.3666 52.0192 31.6223 58.2515 35.7536 63.2391L32.6313 72.6062C31.9985 74.5048 33.4158 76.4621 35.4109 76.4621C36.1819 76.4621 35.8034 76.4269 50.0215 72.4049C53.2628 73.27 56.7174 73.5671 60.258 73.1803C67.4929 81.0492 78.2266 83.8217 87.9361 81.2294C102.701 85.4063 101.81 85.2868 102.546 85.2868C104.544 85.2868 105.958 83.3275 105.326 81.4309L102.204 72.0636C106.335 67.076 108.591 60.8436 108.591 54.3259C108.591 37.8356 94.2273 24.8225 77.6937 26.6567ZM50.8629 66.554C50.3259 66.3919 49.7529 66.3881 49.2136 66.5422L39.9461 69.19L41.8451 63.4928C42.1861 62.4707 41.938 61.344 41.1997 60.5589C37.3476 56.4639 35.2257 51.1169 35.2257 45.5017C35.2257 33.378 45.089 23.5147 57.2128 23.5147C71.1238 23.5147 81.5452 36.3155 78.7431 49.9652C76.1513 62.4848 63.2966 70.2979 50.8629 66.554ZM96.7576 69.3833C96.0193 70.1685 95.7712 71.2949 96.1119 72.3173L98.0112 78.0144C88.2161 75.2557 88.6647 75.2539 87.9393 75.2539C86.9922 75.2539 76.7803 79.2712 67.0781 71.5506C82.9171 65.5992 89.6229 47.065 81.7599 32.3623C93.4138 32.8946 102.732 42.5429 102.732 54.3262C102.732 59.941 100.61 65.2884 96.7576 69.3833Z" fill="#E7B447"/>
</g>
<defs>
<clipPath id="clip0_174_4058">
<rect width="150" height="150" fill="white"/>
</clipPath>
</defs>
</svg>
