<svg width="150" height="150" viewBox="0 0 150 150" fill="none" xmlns="http://www.w3.org/2000/svg">
<path d="M102.716 94.933H124.774C130.443 94.933 135.055 90.2044 135.055 84.5353C135.055 78.8662 130.443 74.137 124.774 74.137H111.39V52.9578C111.39 41.6131 102.298 32.252 90.9532 32.252H88.5248C91.8381 29.0301 93.8822 24.2116 93.8822 19.0717C93.882 8.5375 85.3116 0 74.7777 0C64.2438 0 55.6732 8.5211 55.6732 19.0553C55.6732 24.1954 57.7174 29.0301 61.0307 32.252H58.6022C47.2576 32.252 38.165 41.6131 38.165 52.9578V74.137H24.7814C19.1123 74.137 14.5 78.8659 14.5 84.5353C14.5 90.2047 19.1123 94.933 24.7814 94.933H46.8387C48.986 94.933 51.0527 94.2344 52.8101 93.2248V104.233L26.5172 118.555C19.5915 122.332 16.2495 130.267 18.417 137.85C20.9723 146.792 30.2915 151.94 39.2209 149.314L74.7707 138.855L110.337 149.314C119.241 151.933 128.598 146.817 131.158 137.85C133.322 130.264 129.96 122.33 123.038 118.555L96.7451 104.233V93.2248C98.5028 94.2344 100.569 94.933 102.716 94.933ZM61.5312 19.1373C61.5312 11.8332 67.4736 5.89084 74.7777 5.89084C82.0818 5.89084 88.0242 11.8332 88.0242 19.1373C88.0242 26.4414 82.0818 32.3835 74.7777 32.3835C67.4736 32.3835 61.5312 26.4411 61.5312 19.1373ZM46.8387 89.075H24.7814C22.3424 89.075 20.3577 86.9743 20.3577 84.5353C20.3577 82.0963 22.3422 79.995 24.7814 79.995H40.9566C42.5741 79.995 44.023 78.7997 44.023 77.1823V52.9581C44.023 44.8433 50.4874 38.1103 58.6022 38.1103H90.9529C99.0678 38.1103 105.532 44.8433 105.532 52.9581V77.1823C105.532 78.7997 106.981 79.995 108.599 79.995H124.774C127.213 79.995 129.197 82.096 129.197 84.5353C129.197 86.9743 127.213 89.075 124.774 89.075H102.716C99.4664 89.075 96.7451 86.3141 96.7451 83.0643C96.7451 80.2147 96.7451 58.7224 96.7451 55.8991C96.7451 54.2814 95.4335 52.9701 93.8161 52.9701C92.1984 52.9701 90.887 54.2814 90.887 55.8991V103.135H58.6678C58.6678 96.4034 58.6678 62.6886 58.6678 55.8991C58.6678 54.2814 57.3565 52.9701 55.7388 52.9701C54.1214 52.9701 52.8098 54.2814 52.8098 55.8991V83.0643C52.8101 86.3141 50.0887 89.075 46.8387 89.075ZM120.272 123.744C124.772 126.198 126.932 131.333 125.525 136.265C123.893 141.984 117.875 145.431 111.99 143.7L82.363 134.985C84.2915 132.775 85.2121 129.76 84.6939 126.702C89.2828 127.956 96.1809 129.838 106.596 132.675C108.158 133.1 109.767 132.179 110.192 130.618C110.617 129.058 109.697 127.447 108.135 127.022C78.1848 118.865 77.0682 118.517 76.5196 118.435L76.5354 118.429V118.429C76.1529 118.408 74.4298 118.031 72.1428 118.65L41.4312 127.024C39.8706 127.449 38.9438 129.059 39.3697 130.62C39.7953 132.181 41.4022 133.101 42.963 132.675L73.6542 124.304C75.9605 123.678 78.2832 125.07 78.8505 127.343C79.4003 129.541 78.1282 131.762 75.954 132.401L37.5657 143.694C31.766 145.4 25.6924 142.057 24.0304 136.241C22.621 131.311 24.7811 126.199 29.2839 123.744L56.4084 108.993H93.1471L120.272 123.744Z" fill="#E7B447"/>
</svg>
