<svg width="150" height="150" viewBox="0 0 150 150" fill="none" xmlns="http://www.w3.org/2000/svg">
<g clip-path="url(#clip0_174_4091)">
<path d="M43.6589 68.5622C37.8572 62.3595 27.8811 64.7431 25.1245 72.391C24.0197 71.1767 21.1847 68.0524 21.105 67.9725C20.4751 67.3426 20.1279 66.5047 20.1279 65.6135V30.314C20.1279 24.6269 15.5011 20 9.81397 20C4.12686 20 -0.5 24.6269 -0.5 30.314V80.3217C-0.5 83.4711 0.72666 86.4318 2.95322 88.659C3.03906 88.7448 1.81064 87.6151 21.4328 105.585C22.5271 106.701 23.1291 108.173 23.1291 109.738V127.388C23.1291 129.006 24.441 130.318 26.0588 130.318H61.2625C62.8803 130.318 64.1922 129.006 64.1922 127.388V91.6701C64.1922 90.9269 63.9098 90.2114 63.4021 89.6689L43.6589 68.5622ZM58.3328 124.459H28.9885V109.738C28.9885 106.589 27.7624 103.629 25.5353 101.401C25.4374 101.304 26.1256 101.94 7.05566 84.4748C5.96143 83.3592 5.35938 81.887 5.35938 80.322V30.314C5.35938 27.8577 7.35772 25.8594 9.81397 25.8594C12.2702 25.8594 14.2683 27.8577 14.2683 30.314V65.6135C14.2683 68.0234 15.1908 70.2904 16.8657 72.0154C19.5684 74.9894 33.2107 90.0017 35.9289 92.9929C37.019 94.192 38.8718 94.2772 40.0674 93.1906C41.2647 92.1025 41.3535 90.2498 40.2651 89.0521L31.3577 79.25C29.6896 77.0097 30.0707 73.8034 32.321 72.0298C34.4729 70.3332 37.5074 70.5629 39.3798 72.5645L58.3328 92.8265V124.459Z" fill="#E7B447"/>
<path d="M139.186 20C133.499 20 128.872 24.6269 128.872 30.314V65.6135C128.872 66.5047 128.526 67.3423 127.895 67.9725C127.82 68.048 124.626 71.566 123.876 72.391C121.12 64.7437 111.143 62.3598 105.341 68.5622L85.598 89.6689C85.0903 90.2114 84.8079 90.9269 84.8079 91.6701V127.388C84.8079 129.006 86.1198 130.318 87.7375 130.318H122.941C124.559 130.318 125.871 129.006 125.871 127.388V109.738C125.871 108.174 126.473 106.701 127.567 105.586C146.973 87.8138 145.96 88.7457 146.047 88.6593C148.274 86.4321 149.5 83.4714 149.5 80.322V30.314C149.5 24.6269 144.873 20 139.186 20ZM143.641 80.322C143.641 81.887 143.039 83.3592 141.944 84.4748C122.791 102.016 123.558 101.308 123.465 101.401C121.238 103.629 120.012 106.589 120.012 109.738V124.459H90.6672V92.8268L109.62 72.5647C111.492 70.5641 114.526 70.3338 116.679 72.0301C118.926 73.8011 119.313 77.0064 117.642 79.2503L108.735 89.0524C107.646 90.2501 107.735 92.1028 108.932 93.1909C110.129 94.2787 111.982 94.1911 113.071 92.9932C115.828 89.9595 129.448 74.9712 132.134 72.0157C133.809 70.2907 134.731 68.0234 134.731 65.6138V30.314C134.731 27.8577 136.73 25.8594 139.186 25.8594C141.642 25.8594 143.641 27.858 143.641 30.314V80.322Z" fill="#E7B447"/>
</g>
<defs>
<clipPath id="clip0_174_4091">
<rect width="150" height="150" fill="white"/>
</clipPath>
</defs>
</svg>
