<svg width="24" height="24" viewBox="0 0 24 24" fill="none" xmlns="http://www.w3.org/2000/svg">
<g clip-path="url(#clip0_263_21715)">
<path d="M9.37733 16.4H7.244V9.468H9.37733V16.4ZM8.31067 8.57867C7.54089 8.57867 7.156 8.22311 7.156 7.512C7.15361 7.36938 7.18218 7.22794 7.23972 7.09743C7.29727 6.96691 7.38243 6.85043 7.48933 6.756C7.71182 6.54882 8.00676 6.43726 8.31067 6.44533C9.08044 6.44533 9.46533 6.80133 9.46533 7.51333C9.46533 8.58133 9.08133 8.57867 8.31067 8.57867ZM17.2893 16.4H15.112V12.5333C15.112 11.5262 14.756 11.0227 14.044 11.0227C13.4822 11.0227 13.1116 11.304 12.932 11.8667C12.8742 11.9564 12.8449 12.1342 12.844 12.4V16.4H10.6667V11.6893C10.6667 10.6227 10.652 9.88222 10.6227 9.468H12.4893L12.6227 10.4C13.112 9.65867 13.8227 9.28933 14.8 9.28933C15.5422 9.28933 16.1422 9.54844 16.6 10.0667C17.0604 10.5849 17.2907 11.3333 17.2907 12.312V16.4H17.2893ZM12 24C5.38267 24 0 18.6173 0 12C0 5.38267 5.38267 0 12 0C18.6173 0 24 5.38267 24 12C24 18.6173 18.6173 24 12 24ZM12 2.66667C6.85467 2.66667 2.66667 6.85467 2.66667 12C2.66667 17.1453 6.85467 21.3333 12 21.3333C17.1453 21.3333 21.3333 17.1453 21.3333 12C21.3333 6.85467 17.1453 2.66667 12 2.66667Z" fill="white"/>
</g>
<defs>
<clipPath id="clip0_263_21715">
<rect width="24" height="24" fill="white"/>
</clipPath>
</defs>
</svg>
