<svg width="1196" height="854" viewBox="0 0 1196 854" fill="none" xmlns="http://www.w3.org/2000/svg">
<path d="M698.667 851.187C701.511 850.186 713.432 847.405 725.357 844.993C870.416 816.65 1002.67 749.241 1083.95 662.169C1133.95 608.568 1164.48 550.065 1178.35 481.734C1181.77 465.387 1182.24 457.529 1181.97 425.253C1181.76 378.739 1178.76 361.331 1163.42 317.988C1155.76 296.561 1154.81 290.185 1157.01 276.425C1158.03 269.668 1159.58 263.521 1160.46 262.778C1161.35 262.159 1162.05 260.927 1162.05 259.945C1162.04 259.086 1167.86 251.56 1174.92 243.29C1182.16 235.018 1191.34 223.911 1195.39 218.729C1199.45 213.424 1203.16 209.103 1203.34 209.102C1203.69 209.1 1202.83 212.788 1201.45 217.461C1197.46 231.356 1196.9 270.879 1200.45 290.615C1207.75 331.558 1220.85 362.767 1264.85 444.333C1296.37 502.91 1310 534.36 1318.85 568.665C1322.9 585.084 1323.1 586.924 1320.64 590.991C1318.7 594.44 1318.54 595.546 1320.33 596.393C1323.19 597.601 1323.9 597.596 1326.56 596.351C1330.3 594.73 1337.68 582.039 1337.64 577.499C1337.62 575.044 1340.06 569.014 1342.87 563.963C1355.7 542.153 1366.67 510.292 1370.71 482.037C1373.92 461.396 1371.59 416.37 1366.62 397.625C1356.86 361.117 1341.82 332.621 1304.12 279.241C1278.86 243.573 1266.56 222.301 1257.63 198.919C1252.34 185.577 1252.15 183.983 1253.09 168.267C1254.78 136.468 1261.25 99.4822 1266.34 90.6114C1272.32 80.5072 1278.26 66.1078 1277.17 63.9059C1276.63 62.6823 1278.52 53.9556 1281.47 44.6082C1287.03 27.5112 1288.73 18.0495 1288.99 6.63368C1289.13 1.84623 1288.41 0.501055 1286.09 0.148451C1283.95 -0.0826257 1282.53 1.03148 1281.31 3.86252C1280.43 6.07755 1279.55 6.94261 1279.54 5.83809C1279.33 2.64845 1274.17 3.17408 1272.24 6.62354C1271.36 8.22495 1267.88 19.1714 1264.42 30.8541C1251.93 72.2985 1220.27 144.923 1211.77 151.485C1207.69 154.58 1193.12 159.833 1184.39 161.242C1178.16 162.265 1170.67 162.07 1152.3 160.353C1037.4 149.833 968.376 146.615 917.77 149.532C838.652 153.991 782.431 167.747 718.151 198.37C678.731 217.168 657.098 231.059 558.909 299.957C460.721 368.856 442.631 380.146 395.04 402.434C368.935 414.637 333.565 427.394 308.658 433.575C299.762 435.721 282.141 439.153 269.499 441.079C250.27 444.031 246.178 445.04 245.66 447.007C245.314 448.237 244.256 449.717 243.368 450.091C240.704 451.336 243.398 453.65 247.32 453.624C249.281 453.611 257.849 454.903 266.42 456.564C339.633 470.677 432.812 463.546 504.445 438.15C538.397 426.263 560.594 415.804 613.126 387.346C654.476 364.854 671.696 356.147 694.79 346.419C748.795 323.473 799.488 309.632 920.865 284.761C1035.12 261.289 1072.48 251.955 1124.74 233.44C1145.36 226.183 1169.17 216.205 1179.81 210.242C1183.54 208.253 1186.56 206.76 1186.56 207.128C1186.58 208.969 1176.01 223.891 1167.18 234.505C1158 245.613 1150.77 254.621 1140.89 267.328C1138.95 269.796 1135.06 273.136 1132.4 274.749C1123.88 279.838 1105.3 295.796 1095.58 306.048C1088.86 313.334 1077.17 322.372 1052 339.6C998.824 375.918 962.285 398.132 914.18 423.002C898.737 430.96 883.471 438.918 880.099 440.659C863.947 449.236 822.913 466.939 812.241 469.834C805.839 471.718 796.938 473.25 792.659 473.279C780.894 473.358 753.461 475.997 751.331 477.116C750.266 477.737 742.608 478.647 734.234 479.194C633.202 485.396 546.346 502.548 452.131 535.091C407.869 550.485 382.818 560.717 334.871 583.131C300.419 599.195 250.005 625.061 228.183 637.727C225.167 639.465 217.892 643.564 212.214 646.793C206.357 649.901 199.793 653.75 197.31 655.239C188.974 660.45 165.014 673.252 151.52 679.848C143.885 683.458 135.72 687.809 133.06 689.422C125.789 694.012 88.1216 709.238 72.1175 714.132C53.8023 719.778 30.4892 724.721 16.9492 725.794C1.62736 727.002 0.027018 727.503 0.0548049 730.817C0.0887668 734.867 7.42456 738.009 14.1915 737.104C16.8624 736.718 20.0734 736.942 21.1491 737.671C22.4042 738.522 26.8568 738.001 36.1072 735.607C53.3641 731.318 73.4797 727.746 96.2774 725.138C110.883 723.568 136.726 722.658 213.91 721.403C268.276 720.424 314.798 719.375 317.291 718.99C319.784 718.605 332.072 717.05 344.896 715.613C419.697 706.642 497.439 686.851 597.512 651.323C683.364 620.8 719.591 603.865 747.57 581.34C761.735 569.831 771.98 558.471 793.489 529.73C814.999 501.112 834.09 481.592 840.686 481.548C842.112 481.538 842.821 481.042 842.281 480.432C840.841 478.846 856.802 468.798 871.721 462.07C878.824 458.709 886.636 454.852 889.119 453.362C891.604 451.995 903.848 445.286 916.629 438.695C960.825 415.325 1013.5 382.938 1047.52 358.163C1061.88 347.634 1062.76 347.26 1060.13 351.819C1058.55 354.53 1053.45 363.523 1048.71 371.656C1044.14 379.909 1034.13 398.263 1026.94 412.303C987.465 488.294 971.774 509.263 917.625 557.492C855.336 612.894 843.172 629.299 808.336 705.75C788.03 750.315 773.26 774.838 754.185 796.198C738.82 813.484 713.485 832.432 693.418 841.772C683.296 846.503 681.711 848.846 686.903 851.511C691.021 853.57 692.625 853.559 698.667 851.187ZM724.724 833.338C724.718 832.602 727.2 830.99 730.043 829.866C765.759 815.757 800.535 795.887 828.339 773.731C881.644 731.276 914.112 691.293 989.089 575.667C1070.23 450.673 1108.66 378.494 1136.52 299.268C1145.23 274.049 1146.3 274.533 1141.9 301.932C1124.43 408.703 1087.98 505.169 1034.28 586.41C975.132 675.787 887.003 753.823 785.118 807.036C773.936 812.88 764.352 818.099 764.178 818.591C763.826 819.084 762.76 819.582 762.047 819.587C761.156 819.593 752.983 822.962 743.926 827.073C726.876 834.797 724.742 835.425 724.724 833.338ZM756.773 828.459C846.441 785.269 909.006 741.402 973.354 676.413C1009.06 640.213 1051.01 582.492 1078.39 531.498C1104.37 483.09 1126.86 422.309 1141.32 361.092C1144.25 349.045 1146.84 339.086 1147.2 338.838C1147.55 338.59 1149.91 343.975 1152.65 350.952C1182.17 427.829 1157.58 513.906 1079.38 606.848C1045.49 647.086 989.976 702.688 950.144 736.093C913.322 767.146 865.782 795.571 825.617 810.569C808.022 817.069 777.611 825.987 763.016 828.785C751.624 830.948 751.446 830.95 756.773 828.459ZM755.525 807.112C778.682 783.638 794.869 758.001 817.102 709.373C847.39 643.262 857.771 626.869 888.177 596.105C895.424 588.692 905.153 579.545 909.756 575.709C921.97 565.318 952.223 537.623 960.532 529.221C986.339 502.783 1005.35 474.182 1031.48 422.582C1045.69 394.504 1061.31 365.557 1062.21 366.165C1063.28 366.894 1060 400.299 1057.93 408.536C1052.6 432.013 1040.85 455.657 1020.23 484.269C1003.49 507.7 987.596 525.112 926.783 586.518C907.514 606.039 903.626 610.115 887.557 628.51C866.544 652.584 852.464 674.279 831.591 715.166C809.494 758.762 799.812 773.432 781.245 791.598C772.05 800.619 748.132 818.453 745.101 818.474C744.567 818.477 749.337 813.29 755.525 807.112ZM766.587 808.265C777.04 800.463 779.872 797.989 788.357 789.341C804.445 773.155 816.236 754.912 837.288 714.146C864.302 661.559 880.878 639.846 936.042 585.229C1020.03 501.821 1046.31 468.384 1061.46 425.449C1066.34 411.793 1068.39 401.47 1070.34 379.242C1073.1 346.577 1077.32 339.676 1110.43 312.821C1127.61 298.837 1127.25 299.085 1125.87 304.126C1123.62 311.75 1109.29 347.316 1100.37 367.504C1074.47 424.993 1026.67 507.79 959.087 612.075C897.838 706.498 865.348 743.782 808.986 783.189C787.009 798.678 765.726 811.83 762.163 812.1C761.629 812.226 763.753 810.371 766.587 808.265ZM895.784 780.396C927.002 761.531 965.969 731.201 998.512 700.176C1025.04 674.715 1063.58 635.551 1071.69 625.432C1072.75 624.075 1079.81 615.805 1087.23 606.918C1121.82 565.939 1145.56 526.751 1159.33 488.612C1163.86 475.817 1170.06 450.861 1171.23 441.28C1171.73 436.858 1171.91 437.348 1172.14 443.729C1172.36 448.146 1171.38 459.443 1170.04 468.903C1153.01 585.98 1070.63 689.996 938.06 762.071C919.958 771.888 886.578 788.068 884.26 788.083C883.547 788.088 888.688 784.617 895.784 780.396ZM169.28 714.216L145.213 714.255L156.781 711.845C163.187 710.452 180.805 706.652 195.932 703.482C229.212 696.631 331.697 672.378 397.879 655.978C525.26 624.194 612.027 596.487 685.562 563.961C730.677 544.021 765.11 525.748 795.958 505.29C812.269 494.38 815.113 493.379 807.155 501.164C803.441 504.626 792.499 517.954 782.622 530.662C761.457 557.928 751.208 568.797 734.555 581.305C710.105 599.511 676.896 614.83 606.689 640.216C519.063 671.855 456.279 689.582 392.018 701.183C335.056 711.507 293.545 714.854 229.005 714.428C209.393 714.315 182.473 714.25 169.28 714.216ZM114.175 712.254C118.44 710.507 268.903 667.645 298.077 659.962C306.792 657.572 315.685 655.058 317.641 654.431C319.597 653.804 335.604 649.278 353.212 644.373C370.821 639.468 386.828 634.943 388.783 634.316C390.739 633.689 399.098 631.301 407.456 628.79C532.126 592.606 573.022 579.69 647.501 553.539C700.471 534.896 735.836 521.403 773.676 505.562C790.731 498.452 805.476 492.216 806.542 491.841C807.431 491.467 806.018 493.072 803.007 495.424C795.746 501.241 774.284 514.272 751.392 526.944C740.745 532.784 731.161 538.003 729.919 538.625C722.291 543.218 675.934 563.903 653.901 572.642C570.035 606.22 500.142 626.572 326.665 667.625C240.016 688.09 187.343 699.735 140.707 708.394C113.117 713.611 109.734 714.125 114.175 712.254ZM174.388 685.585C174.378 684.358 209.921 670.987 222.372 667.589C302.588 645.204 411.924 608.755 495.266 576.53C510.903 570.411 528.14 563.791 533.472 561.791C538.802 559.669 549.643 555.546 557.462 552.548C582.34 542.931 617.364 531.404 637.466 526.114C656.499 521.077 666.465 518.924 717.54 508.148C749.93 501.426 772.878 495.381 792.431 488.622C828.34 476.23 804.363 487.069 736.662 513.666C703.611 526.652 625.757 554.298 593.219 564.581C583.44 567.715 570.993 571.603 565.659 573.357C545.033 579.878 526.54 585.525 501.643 592.934C487.417 597.202 472.301 601.722 467.855 603.102C442.07 610.884 361.858 633.638 271.324 658.669C258.517 662.192 231.839 669.735 211.742 675.516C191.644 681.174 175.104 685.949 174.748 685.951C174.571 686.075 174.39 685.831 174.388 685.585ZM188.526 670.762C188.524 670.517 196.33 665.923 205.734 660.583C215.316 655.241 229.511 647.168 237.316 642.575C245.123 638.104 264.289 627.666 279.909 619.46C427.409 542.008 554.9 502.123 700.257 488.014C734.28 484.717 734.286 485.453 700.281 490.959C652.925 498.764 604.887 510.378 555.099 525.931C527.183 534.71 479.011 551.48 464.265 557.593C459.113 559.714 454.492 561.463 454.135 561.465C453.779 561.468 439.209 567.334 421.798 574.447C391.593 586.677 375.605 593.535 335.817 610.984C304.379 624.942 202.228 667.725 196.716 669.48C191.026 671.236 188.533 671.621 188.526 670.762ZM268.717 645.432C438.336 569.549 521.148 537.819 610.623 514.144C662.387 500.419 720.775 489.963 768.162 485.839C802.011 482.912 802.901 482.783 800.951 484.146C796.167 487.615 752.939 498.829 715.742 506.32C667.331 515.972 660.213 517.493 644.555 521.157C635.659 523.304 621.961 526.832 613.781 529.219C599.375 533.366 544.626 552.512 527.213 559.502C477.106 579.475 399.789 607.364 345.917 624.785C310.536 636.314 254.344 653.506 251.85 653.645C250.958 653.651 258.593 649.918 268.717 645.432ZM1323.94 516.593C1317.24 483.378 1305.2 450.567 1275.96 386.575C1249.81 329.312 1237.4 295.522 1230.53 262.921C1226.45 244.048 1225.54 199.748 1228.98 184.997C1231.73 172.215 1234.52 164.709 1235.95 164.7C1237.37 164.69 1240.73 182.832 1242.84 200.859C1246.89 237.038 1258.25 273.904 1284.82 338.036C1322.12 427.502 1332.75 461.796 1337.4 507.052C1339.94 532.809 1338.02 559.823 1332.75 569.063L1329.59 574.607L1328.16 553.139C1327.53 541.238 1325.43 524.806 1323.94 516.593ZM1314.79 531.751C1305.85 507.387 1298.59 492.094 1272.87 443.666C1233.74 369.676 1224.3 348.63 1214.37 312.736C1204.26 276.721 1204.14 240.884 1213.85 208.418C1216.11 201.162 1216.11 201.407 1217.54 223.735C1220.45 272.562 1231.62 307.956 1270.1 389.069C1294.05 439.596 1302.23 458.687 1310.65 484.527C1319.43 510.732 1325.01 538.187 1324.78 553.039L1324.65 559.912L1322.83 554.402C1321.91 551.34 1318.26 541.178 1314.79 531.751ZM1337.84 473.912C1331.53 444.131 1320.92 411.678 1301.06 361.246C1274.65 294.29 1268.44 276.903 1261.06 247.375C1258.48 237.328 1255.9 227.404 1255.35 225.321C1253.88 219.686 1256.94 223.102 1263.45 234.472C1266.89 240.217 1276.46 254.758 1284.76 266.853C1293.06 278.947 1305.69 297.149 1312.55 307.167C1339.08 345.649 1352.15 373.176 1359.56 406.264C1369.37 450.258 1365.13 496.679 1347.47 538.281L1343.63 547.512L1342.31 518.065C1341.46 501.87 1339.51 482.001 1337.84 473.912ZM395.286 453.121C465.075 441.606 522.821 418.39 621.118 362.501C698.124 318.782 736.653 299.99 781.625 284.224C829.798 267.455 862.544 260.607 974.724 244.512C1011.41 239.234 1053.07 232.572 1067.31 229.776C1114.29 220.501 1153.77 208.822 1184.14 194.994C1192.13 191.381 1198.88 188.513 1198.89 188.881C1198.91 191.827 1169.1 208.105 1145.82 217.712C1096.08 238.296 1044.14 252.269 927.745 276.124C763.122 309.999 714.402 325.3 632.935 368.558C564.069 404.981 557.856 408.213 542.052 415.683C509.377 430.999 473.996 442.405 437.506 449.278C416.681 453.222 394.776 456.07 384.615 456.138C378.198 456.304 380.154 455.677 395.286 453.121ZM293.673 453.681C289.741 452.602 291.52 452.1 307.01 449.664C364.161 440.566 413.61 427.224 452.87 410.514C459.62 407.646 467.615 404.401 470.457 403.155C478.098 400.158 515.374 380.762 529.388 372.444C542.516 364.747 552.27 358.545 581.343 338.958C645.165 296.309 682.258 276.301 724.39 262.026C773.099 245.376 830.776 235.292 929.11 226.286C1038.84 216.098 1071.97 211.703 1121.61 200.569C1144.21 195.508 1165.37 189.229 1186.17 181.48C1194.34 178.48 1201.99 175.974 1203.24 175.965C1204.48 175.957 1205.9 175.211 1206.43 174.471C1206.78 173.61 1207.67 173.236 1208.39 173.599C1212.33 176.15 1180.2 192.566 1151.76 202.453C1105.54 218.596 1067.64 226.705 979.317 239.449C859.659 256.699 830.471 262.663 778.03 280.689C739.278 294.082 680.151 322.707 627.995 353.495C518.539 418.051 446.213 445.906 365.882 454.546C356.086 455.593 298.14 454.878 293.673 453.681ZM354.25 427.991C384.29 417.357 408.621 406.27 443.405 387.382C485.644 364.515 514.377 346.894 587.427 299.152C601.433 289.853 634.423 269.626 654.823 257.462C681.965 241.324 730.436 217.679 757.802 207.063C833.325 177.837 899.205 167.944 1001.73 170.078C1055.23 171.191 1128.14 170.702 1149.69 168.961C1159.67 168.158 1171.08 168.081 1175.54 168.542L1183.57 169.47L1177.34 170.371C1146 174.632 1097.53 177.535 1004.49 180.369C989.344 180.839 972.413 181.566 967.067 181.848C961.721 182.129 949.604 182.824 940.337 183.255C811.854 189.763 730.048 213.877 630.01 274.811C614.756 284.118 605.891 289.946 569.902 313.998C557.316 322.551 544.374 331.229 541.36 333.213C538.169 335.321 530.545 340.281 524.34 344.496C481.26 373.259 423.224 404.331 381.645 420.811C368.674 426.053 334.536 436.96 331.15 437.106C329.724 437.115 340.208 432.995 354.25 427.991ZM412.797 415.324C412.795 415.079 418.654 412.217 425.579 408.857C457.187 393.916 485.745 376.665 547.615 335.012C625.795 282.448 648.14 268.307 679.026 252.267C775.409 202.036 844.287 188.195 1026.8 182.674C1095.24 180.618 1139.43 177.744 1175.58 173.083C1195.17 170.619 1195.7 170.616 1186.64 174.236C1164.25 183.223 1125.47 193.302 1088.09 199.935C1054.45 205.93 1023.46 209.697 959.328 215.651C852.978 225.447 820.21 229.595 776.79 239.092C732.657 248.716 691.952 263.103 657.698 281.375C630.188 296.042 614.581 305.72 554.123 345.768C509.977 374.907 474.299 393.556 434.135 408.676C416.895 415.052 412.807 416.429 412.797 415.324ZM1150.8 322.368C1150.05 317.832 1150.21 315.99 1151.47 316.841C1153.26 318.056 1164.78 352.589 1164.46 356.396C1164.31 359.956 1152.11 329.478 1150.8 322.368ZM569.629 302.708C615.341 268.895 665.157 235.423 692.308 220.513C716.62 207.095 752.852 190.773 777.206 182.387C858.801 154.47 932.923 149.431 1087.23 161.403C1106.86 162.99 1126.12 164.579 1130.05 165.043C1136.83 165.857 1136.48 165.982 1124.72 166.797C1117.77 167.212 1092.63 167.381 1068.56 167.174C993.145 166.454 913.642 167.479 898.324 169.177C850.057 174.656 813.401 183.003 769.32 198.763C720.442 216.397 671.445 241.149 608.66 279.986C598.905 286.065 585.074 294.872 577.803 299.462C563.263 308.887 559.176 310.51 569.629 302.708Z" fill="#085913" fill-opacity="0.12"/>
</svg>
