<svg width="106" height="91" viewBox="0 0 106 91" fill="none" xmlns="http://www.w3.org/2000/svg">
<path d="M0.913025 8.6798C1.20919 9.0708 2.5368 10.0182 3.90549 10.7743C6.84809 12.4617 9.75889 12.6741 11.7688 11.3287C12.688 10.6861 13.9213 10.4991 15.6971 10.687C17.1516 10.8466 18.3223 11.0001 18.3972 11.0445C18.4347 11.0666 17.5136 11.816 16.3641 12.6458C12.8369 15.3046 12.6759 16.989 15.8632 17.6348C19.4289 18.2887 23.336 16.6637 25.2017 13.7768L26.3086 12.1127L29.421 12.7141C31.1556 13.0934 32.835 13.3861 33.1562 13.4144C33.4578 13.485 32.5171 14.2766 31.0249 15.2273C28.2314 17.0258 26.6515 18.6797 26.7084 19.792C26.7689 20.6907 29.3672 21.4733 31.8105 21.3551C34.1967 21.2571 36.9902 19.4585 38.6398 17.0369C39.8824 15.1835 39.8074 15.1392 45.5179 17.6555L48.0162 18.7565L45.2747 19.7228C42.1137 20.8725 38.9525 23.1546 38.8184 24.3696C38.5984 26.181 43.3633 27.5445 46.8026 26.7214C48.7784 26.2726 52.2823 23.8697 52.8912 22.5582C53.2251 21.8389 54.4261 22.4417 58.8567 25.6569L61.6618 27.6405L59.5238 27.6157C55.9669 27.5603 51.5225 29.6223 51.3597 31.4136C51.247 32.4795 54.1914 34.0601 57.0236 34.4418C59.8362 34.8658 62.9132 34.2057 65.1141 32.7576C66.2243 32.0124 66.965 31.8574 67.3754 32.2082C67.7109 32.5145 68.3996 33.1918 68.9403 33.6735L69.9092 34.5705L68.6955 34.7152C66.4771 34.9664 63.848 35.9994 63.5141 36.7186C63.0427 37.734 63.7493 38.4758 67.4591 40.6712C71.7312 43.1992 73.9173 43.7379 76.2983 42.8278L78.1849 42.0566L80.7882 44.7836C82.2013 46.2671 83.1826 47.5489 82.9542 47.6294C82.7257 47.71 81.6692 47.5162 80.5949 47.258C78.05 46.6689 74.4895 46.827 74.3448 47.5504C74.1731 48.7432 76.4355 51.4842 79.0354 53.2925C82.1225 55.389 85.2276 56.4175 87.7691 56.0878L89.5521 55.8485L90.8027 57.9908C91.4824 59.202 92.5831 61.2556 93.2984 62.5958L94.5633 65.0162L91.7651 63.7379C90.2251 63.0423 87.7963 62.3061 86.3989 62.1263C82.9634 61.6034 82.567 62.6632 84.8898 66.303C86.3653 68.5783 86.9612 69.1467 89.7343 70.7878C92.2825 72.2957 93.3354 72.7031 95.0005 72.7176L97.119 72.7848L97.8645 74.5743C98.8474 76.8817 100.077 83.5961 100.316 87.4045C100.493 90.3142 101.116 91.5455 101.744 90.1916C102.452 88.6685 101.911 80.3666 100.743 75.5766L100.265 73.6219L102.238 71.1219C104.482 68.2431 105.628 65.362 105.84 61.8197C106.139 56.4418 105.058 54.3458 102.905 56.3078C101.02 58.1046 99.5935 60.766 98.8218 63.8689C98.3538 65.8032 98.0181 66.6292 97.854 66.2624C97.688 66.0024 96.921 64.362 96.1361 62.6571C95.3316 60.9945 94.0668 58.5741 93.3122 57.3186L91.9135 54.9808L93.3383 52.4262C95.7968 48.0563 95.9268 41.4996 93.6574 38.0533C92.1071 35.7336 90.5955 35.5941 89.4635 37.6209C88.3904 39.5207 87.6022 44.7171 87.955 47.3528C88.1064 48.4672 88.2044 49.3881 88.1847 49.4304C88.1651 49.4727 86.4932 47.6204 84.4895 45.2482C82.5037 42.9404 80.6088 40.8483 80.2341 40.6265C79.7844 40.3604 79.8149 39.6774 80.4132 37.8741C81.2901 35.265 81.5483 30.0784 80.9867 27.4809C80.4768 25.1837 78.9962 22.0963 78.1343 21.5862C77.16 21.0097 75.7481 21.6843 75.1392 22.9959C74.2161 24.9844 73.7315 29.0122 74.0199 32.0953C74.2104 34.2574 74.162 34.876 73.7535 34.4185C73.3074 33.9388 69.3925 30.4356 69.0928 30.2582C69.0553 30.236 69.2197 29.4703 69.4804 28.5999C70.9559 23.0551 64.8996 10.788 62.27 14.0858C61.1096 15.5564 60.6736 17.8333 60.978 21.0876L61.2664 24.1706L58.4988 22.2092C57.0035 21.1086 55.3761 19.9837 54.8889 19.6954C54.2519 19.3184 53.9986 18.6292 54.0239 17.1341C54.0317 14.4421 53.0793 11.4516 51.3095 8.67841C49.761 6.2519 46.385 3.33723 45.6192 3.85486C44.4322 4.66253 44.7111 10.5444 46.081 13.4585L46.9212 15.25L43.8001 14.0502L40.736 12.8302L40.0904 10.7224C39.2112 7.88298 37.7893 5.80107 35.2144 3.63017C32.7895 1.54797 30.8675 1.05777 30.2782 2.32704C29.6694 3.63863 30.3434 6.30265 31.8759 8.55787C33.4638 10.8998 33.4834 10.8575 29.2217 9.95349C27.5067 9.53186 27.3943 9.46533 27.1537 8.02857C26.8133 5.77772 25.295 3.80056 22.8592 2.35913C20.6108 1.02858 16.392 -0.173595 15.6459 0.301726C14.9569 0.756914 16.0162 4.13435 17.5488 6.38958L18.8958 8.42714L17.2361 8.09216C16.3313 7.88032 14.3576 7.08987 12.8193 6.28745C9.64829 4.68057 5.96475 4.28053 3.10899 5.28719C1.16707 5.97172 0.117287 7.61565 0.913025 8.6798ZM7.75418 7.01137C10.1742 7.14909 12.2818 7.85698 12.3459 8.54209C12.3867 9.48311 9.19369 10.2902 7.38409 9.86651C6.4793 9.65467 5.14446 9.13441 4.43245 8.71307L3.15835 7.95909L4.49164 7.45372C5.2163 7.1275 6.69587 6.92442 7.75418 7.01137ZM20.3443 3.35179C22.2627 4.05558 24.2718 6.10743 24.6605 7.73969C25.0671 9.43644 24.4602 9.5088 21.987 8.04519C20.4702 7.09367 19.5388 6.21889 18.7306 4.76987C17.5175 2.64974 17.7674 2.42011 20.3443 3.35179ZM18.7697 13.6379C21.024 12.3832 23.4782 11.6243 23.6405 12.0978C23.817 12.8495 21.2876 14.6965 19.31 15.252C16.0206 16.1639 15.7139 15.2812 18.7697 13.6379ZM34.0897 5.22975C36.0293 6.91687 37.8384 9.6054 38.1165 11.0643C38.2912 11.9228 38.1395 11.9409 36.8653 11.1869C35.2165 10.2111 33.0523 7.25854 32.4246 5.21516C32.1731 4.41916 32.0894 3.77635 32.1661 3.71391C32.2804 3.67364 33.1583 4.35497 34.0897 5.22975ZM35.2206 15.5529C37.3375 14.5944 37.4696 14.6186 37.0178 15.5917C36.0947 17.5802 31.4575 19.8518 30.0335 19.0091C29.5838 18.743 32.5504 16.7772 35.2206 15.5529ZM49.1803 9.25206C49.8261 10.2275 50.7518 12.5551 51.2137 14.3385L52.0856 17.6051L50.5172 16.3533C48.6882 14.8395 47.113 11.7501 46.8566 9.00958C46.6964 7.29679 46.7571 7.06307 47.3032 7.22442C47.6798 7.33939 48.5344 8.27661 49.1803 9.25206ZM45.1331 22.4975C47.7622 21.4645 51.6869 21.0365 51.3333 21.798C50.9994 22.5173 48.1739 23.9733 46.3123 24.3818C44.5454 24.7924 41.9969 24.4168 42.2522 23.8668C42.3308 23.6976 43.6284 23.0632 45.1331 22.4975ZM56.7515 30.3976C58.6345 29.84 60.6405 29.8406 62.5982 30.4598L64.0472 30.9398L62.3516 31.6082C61.3807 31.9505 59.7672 32.2362 58.7464 32.1714C54.6809 31.9768 53.9547 31.2774 56.7515 30.3976ZM63.6901 16.2745C63.8025 16.3411 64.3377 17.1432 64.9283 18.032C66.0879 19.9586 67.0847 23.6766 67.1875 26.5419C67.2478 28.5731 67.2281 28.6154 66.5161 28.194C64.3426 26.9078 62.9639 23.3953 63.1254 19.446C63.2277 16.756 63.3528 16.0749 63.6901 16.2745ZM69.7926 36.9824C71.1169 37.011 72.4535 37.4245 73.8775 38.2671C76.7826 39.9324 77.0126 40.8775 74.5675 41.1024C73.1273 41.2209 71.9976 40.876 69.4279 39.5172C66.3515 37.9123 66.1641 37.8014 66.9655 37.4128C67.4617 37.1671 68.7325 37.0022 69.7926 36.9824ZM76.9933 24.147C77.5288 23.8167 77.75 24.1633 78.3759 26.3135C78.8057 27.7543 79.1068 30.0898 79.044 31.5627C78.9577 34.424 78.0038 38.2281 77.4791 37.9176C76.1675 37.1414 75.3318 31.739 75.8181 27.6044C76.1918 24.5356 76.1704 24.6847 76.9933 24.147ZM81.6116 49.8012C84.6257 50.6141 86.8938 51.9024 87.7394 53.3736C88.3835 54.4558 88.346 54.4336 86.174 54.1731C82.7939 53.7369 75.7918 49.2696 78.31 49.1958C78.7651 49.1415 80.2356 49.4724 81.6116 49.8012ZM91.4871 38.8184C92.1849 38.9616 93.146 42.5506 93.0865 44.9424C93.0646 47.3563 92.1394 50.5841 91.3147 51.2287C90.2615 51.9537 89.3185 47.2968 89.7423 43.5027C90.1215 40.1136 90.6572 38.6509 91.4871 38.8184ZM92.8619 67.1375C94.3966 68.1535 95.8526 69.3387 96.1273 69.8788C96.6429 70.7233 96.5858 70.7434 95.3008 70.6302C93.3734 70.4604 87.7149 67.1118 86.8692 65.6406L86.227 64.4516L88.1883 64.8572C89.3947 65.1396 91.1971 65.9905 92.8619 67.1375ZM103.278 58.9012C103.909 58.4662 103.652 62.5203 102.875 64.8111C102.039 67.2288 99.975 70.6457 99.4878 70.3574C99.263 70.2243 99.7938 66.8171 100.687 63.2468C100.932 62.2051 102.665 59.294 103.278 58.9012Z" fill="#015612"/>
</svg>
