<svg width="23" height="24" viewBox="0 0 23 24" fill="none" xmlns="http://www.w3.org/2000/svg">
<path d="M11.4966 1.50953C5.77943 1.50953 1.00514 6.29239 1.00514 12.0044C1.00734 14.0721 1.61848 16.0933 2.76229 17.8158L1 22.5044L6.89543 21.4381C8.3286 22.1362 9.90241 22.4974 11.4966 22.4941C17.2189 22.4975 22 17.7215 22 12.0061C22 6.29753 17.2171 1.5061 11.4966 1.50953Z" stroke="white" stroke-width="2" stroke-linecap="round" stroke-linejoin="round"/>
<path d="M12.0744 16.6294C13.4955 17.5397 14.9749 16.8762 16.0069 16.1065C16.7184 15.5751 16.6961 14.5517 16.0875 13.9037L14.8875 12.6265C14.4332 13.0808 13.5452 13.3071 12.9298 13.1185C11.6046 12.7157 11.0492 12.0265 10.5984 11.3237C10.0824 10.5179 10.6669 9.31451 11.1212 8.86022L9.78407 7.63965C9.22007 7.12537 8.36464 7.03965 7.87264 7.62251C6.89893 8.77622 6.2955 10.5299 7.01036 11.6459C8.29607 13.6499 10.0704 15.3437 12.0744 16.6294Z" stroke="white" stroke-width="2" stroke-linecap="round" stroke-linejoin="round"/>
</svg>
